DBRep_DrawableShape

CASCADE Topology V1, (c) Matra-Datavision
Locations 1
1
              1               0               0               0 
              0               1               0               0 
              0               0               1           0.035 
Curve2ds 0
Curves 136
1 -35.700000000000003 -5.4000000000000004 -0.035000000000000003 0 0 1 
1 -34.200000000000003 -5.4000000000000004 -0.035000000000000003 0 0 1 
1 -35.700000000000003 -5.4000000000000004 -0.035000000000000003 1 0 0 
1 -34.200000000000003 -3.8999999999999999 -0.035000000000000003 0 0 1 
1 -34.200000000000003 -5.4000000000000004 -0.035000000000000003 0 1 0 
1 -35.700000000000003 -3.8999999999999999 -0.035000000000000003 0 0 1 
1 -34.200000000000003 -3.8999999999999999 -0.035000000000000003 -1 0 0 
1 -35.700000000000003 -3.8999999999999999 -0.035000000000000003 0 -1 0 
1 -34.592849000000001 -4.6586860000000003 -0.035000000000000003 0 0 1 
1 -34.576599000000002 -4.6500000000000004 -0.035000000000000003 0 0 1 
1 -34.592849000000001 -4.6586860000000003 -0.035000000000000003 0.88191688622989461 0.47140492761803737 0 
1 -34.450000000000003 -4.6500000000000004 -0.035000000000000003 0 0 1 
1 -34.576599000000002 -4.6500000000000004 -0.035000000000000003 1 0 0 
1 -34.450000000000003 -4.5234009999999998 -0.035000000000000003 0 0 1 
1 -34.450000000000003 -4.6500000000000004 -0.035000000000000003 0 1 0 
1 -34.441313999999998 -4.5071510000000004 -0.035000000000000003 0 0 1 
1 -34.450000000000003 -4.5234009999999998 -0.035000000000000003 0.47140492761822489 0.88191688622979447 0 
1 -34.425379999999997 -4.4546250000000001 -0.035000000000000003 0 0 1 
1 -34.441313999999998 -4.5071510000000004 -0.035000000000000003 0.29029155234022064 0.95693825017077505 0 
1 -34.420000000000002 -4.4000000000000004 -0.035000000000000003 0 0 1 
1 -34.425379999999997 -4.4546250000000001 -0.035000000000000003 0.098015463940963929 0.99518489178063663 0 
1 -34.425379999999997 -4.3453749999999998 -0.035000000000000003 0 0 1 
1 -34.420000000000002 -4.4000000000000004 -0.035000000000000003 -0.098015463940962347 0.99518489178063674 0 
1 -34.441313999999998 -4.2928490000000004 -0.035000000000000003 0 0 1 
1 -34.425379999999997 -4.3453749999999998 -0.035000000000000003 -0.29029155234022513 0.95693825017077372 0 
1 -34.450000000000003 -4.276599 -0.035000000000000003 0 0 1 
1 -34.441313999999998 -4.2928490000000004 -0.035000000000000003 -0.47140492761820479 0.88191688622980513 0 
1 -34.450000000000003 -4.1500000000000004 -0.035000000000000003 0 0 1 
1 -34.450000000000003 -4.276599 -0.035000000000000003 0 1 0 
1 -34.576599000000002 -4.1500000000000004 -0.035000000000000003 0 0 1 
1 -34.450000000000003 -4.1500000000000004 -0.035000000000000003 -1 0 0 
1 -34.592849000000001 -4.1413140000000004 -0.035000000000000003 0 0 1 
1 -34.576599000000002 -4.1500000000000004 -0.035000000000000003 -0.88191688622989461 0.47140492761803737 0 
1 -34.645375000000001 -4.1253799999999998 -0.035000000000000003 0 0 1 
1 -34.592849000000001 -4.1413140000000004 -0.035000000000000003 -0.9569382501707796 0.29029155234020582 0 
1 -34.700000000000003 -4.1200000000000001 -0.035000000000000003 0 0 1 
1 -34.645375000000001 -4.1253799999999998 -0.035000000000000003 -0.99518489178062919 0.098015463941040909 0 
1 -34.754624999999997 -4.1253799999999998 -0.035000000000000003 0 0 1 
1 -34.700000000000003 -4.1200000000000001 -0.035000000000000003 -0.99518489178062786 -0.098015463941053538 0 
1 -34.807150999999998 -4.1413140000000004 -0.035000000000000003 0 0 1 
1 -34.754624999999997 -4.1253799999999998 -0.035000000000000003 -0.9569382501707796 -0.29029155234020582 0 
1 -34.823400999999997 -4.1500000000000004 -0.035000000000000003 0 0 1 
1 -34.807150999999998 -4.1413140000000004 -0.035000000000000003 -0.88191688622989461 -0.47140492761803737 0 
1 -34.950000000000003 -4.1500000000000004 -0.035000000000000003 0 0 1 
1 -34.823400999999997 -4.1500000000000004 -0.035000000000000003 -1 0 0 
1 -34.950000000000003 -4.276599 -0.035000000000000003 0 0 1 
1 -34.950000000000003 -4.1500000000000004 -0.035000000000000003 0 -1 0 
1 -34.958686 -4.2928490000000004 -0.035000000000000003 0 0 1 
1 -34.950000000000003 -4.276599 -0.035000000000000003 -0.47140492761790481 -0.88191688622996534 0 
1 -34.974620000000002 -4.3453749999999998 -0.035000000000000003 0 0 1 
1 -34.958686 -4.2928490000000004 -0.035000000000000003 -0.29029155234022513 -0.95693825017077372 0 
1 -34.979999999999997 -4.4000000000000004 -0.035000000000000003 0 0 1 
1 -34.974620000000002 -4.3453749999999998 -0.035000000000000003 -0.098015463940962347 -0.99518489178063674 0 
1 -34.974620000000002 -4.4546250000000001 -0.035000000000000003 0 0 1 
1 -34.979999999999997 -4.4000000000000004 -0.035000000000000003 0.098015463940963929 -0.99518489178063663 0 
1 -34.958686 -4.5071510000000004 -0.035000000000000003 0 0 1 
1 -34.974620000000002 -4.4546250000000001 -0.035000000000000003 0.29029155234022064 -0.95693825017077505 0 
1 -34.950000000000003 -4.5234009999999998 -0.035000000000000003 0 0 1 
1 -34.958686 -4.5071510000000004 -0.035000000000000003 0.47140492761792491 -0.88191688622995468 0 
1 -34.950000000000003 -4.6500000000000004 -0.035000000000000003 0 0 1 
1 -34.950000000000003 -4.5234009999999998 -0.035000000000000003 0 -1 0 
1 -34.823400999999997 -4.6500000000000004 -0.035000000000000003 0 0 1 
1 -34.950000000000003 -4.6500000000000004 -0.035000000000000003 1 0 0 
1 -34.807150999999998 -4.6586860000000003 -0.035000000000000003 0 0 1 
1 -34.823400999999997 -4.6500000000000004 -0.035000000000000003 0.88191688622989461 -0.47140492761803737 0 
1 -34.754624999999997 -4.67462 -0.035000000000000003 0 0 1 
1 -34.807150999999998 -4.6586860000000003 -0.035000000000000003 0.95693825017078404 -0.29029155234019099 0 
1 -34.700000000000003 -4.6799999999999997 -0.035000000000000003 0 0 1 
1 -34.754624999999997 -4.67462 -0.035000000000000003 0.99518489178062786 -0.098015463941053538 0 
1 -34.645375000000001 -4.67462 -0.035000000000000003 0 0 1 
1 -34.700000000000003 -4.6799999999999997 -0.035000000000000003 0.99518489178062919 0.098015463941040909 0 
1 -34.645375000000001 -4.67462 -0.035000000000000003 0.95693825017078404 0.29029155234019099 0 
1 -35.076599000000002 -4.6500000000000004 -0.035000000000000003 0 0 1 
1 -35.092849000000001 -4.6413140000000004 -0.035000000000000003 0 0 1 
1 -35.076599000000002 -4.6500000000000004 -0.035000000000000003 -0.88191688622989461 0.47140492761803737 0 
1 -35.145375000000001 -4.6253799999999998 -0.035000000000000003 0 0 1 
1 -35.092849000000001 -4.6413140000000004 -0.035000000000000003 -0.9569382501707796 0.29029155234020582 0 
1 -35.200000000000003 -4.6200000000000001 -0.035000000000000003 0 0 1 
1 -35.145375000000001 -4.6253799999999998 -0.035000000000000003 -0.99518489178062919 0.098015463941040909 0 
1 -35.254624999999997 -4.6253799999999998 -0.035000000000000003 0 0 1 
1 -35.200000000000003 -4.6200000000000001 -0.035000000000000003 -0.99518489178062786 -0.098015463941053538 0 
1 -35.307150999999998 -4.6413140000000004 -0.035000000000000003 0 0 1 
1 -35.254624999999997 -4.6253799999999998 -0.035000000000000003 -0.9569382501707796 -0.29029155234020582 0 
1 -35.323400999999997 -4.6500000000000004 -0.035000000000000003 0 0 1 
1 -35.307150999999998 -4.6413140000000004 -0.035000000000000003 -0.88191688622989461 -0.47140492761803737 0 
1 -35.450000000000003 -4.6500000000000004 -0.035000000000000003 0 0 1 
1 -35.323400999999997 -4.6500000000000004 -0.035000000000000003 -1 0 0 
1 -35.450000000000003 -4.776599 -0.035000000000000003 0 0 1 
1 -35.450000000000003 -4.6500000000000004 -0.035000000000000003 0 -1 0 
1 -35.458686 -4.7928490000000004 -0.035000000000000003 0 0 1 
1 -35.450000000000003 -4.776599 -0.035000000000000003 -0.47140492761790481 -0.88191688622996534 0 
1 -35.474620000000002 -4.8453749999999998 -0.035000000000000003 0 0 1 
1 -35.458686 -4.7928490000000004 -0.035000000000000003 -0.29029155234022513 -0.95693825017077372 0 
1 -35.479999999999997 -4.9000000000000004 -0.035000000000000003 0 0 1 
1 -35.474620000000002 -4.8453749999999998 -0.035000000000000003 -0.098015463940962347 -0.99518489178063674 0 
1 -35.474620000000002 -4.9546250000000001 -0.035000000000000003 0 0 1 
1 -35.479999999999997 -4.9000000000000004 -0.035000000000000003 0.098015463940963929 -0.99518489178063663 0 
1 -35.458686 -5.0071510000000004 -0.035000000000000003 0 0 1 
1 -35.474620000000002 -4.9546250000000001 -0.035000000000000003 0.29029155234022064 -0.95693825017077505 0 
1 -35.450000000000003 -5.0234009999999998 -0.035000000000000003 0 0 1 
1 -35.458686 -5.0071510000000004 -0.035000000000000003 0.47140492761792491 -0.88191688622995468 0 
1 -35.450000000000003 -5.1500000000000004 -0.035000000000000003 0 0 1 
1 -35.450000000000003 -5.0234009999999998 -0.035000000000000003 0 -1 0 
1 -35.323400999999997 -5.1500000000000004 -0.035000000000000003 0 0 1 
1 -35.450000000000003 -5.1500000000000004 -0.035000000000000003 1 0 0 
1 -35.307150999999998 -5.1586860000000003 -0.035000000000000003 0 0 1 
1 -35.323400999999997 -5.1500000000000004 -0.035000000000000003 0.88191688622989461 -0.47140492761803737 0 
1 -35.254624999999997 -5.17462 -0.035000000000000003 0 0 1 
1 -35.307150999999998 -5.1586860000000003 -0.035000000000000003 0.95693825017078404 -0.29029155234019099 0 
1 -35.200000000000003 -5.1799999999999997 -0.035000000000000003 0 0 1 
1 -35.254624999999997 -5.17462 -0.035000000000000003 0.99518489178062786 -0.098015463941053538 0 
1 -35.145375000000001 -5.17462 -0.035000000000000003 0 0 1 
1 -35.200000000000003 -5.1799999999999997 -0.035000000000000003 0.99518489178062919 0.098015463941040909 0 
1 -35.092849000000001 -5.1586860000000003 -0.035000000000000003 0 0 1 
1 -35.145375000000001 -5.17462 -0.035000000000000003 0.95693825017078404 0.29029155234019099 0 
1 -35.076599000000002 -5.1500000000000004 -0.035000000000000003 0 0 1 
1 -35.092849000000001 -5.1586860000000003 -0.035000000000000003 0.88191688622989461 0.47140492761803737 0 
1 -34.950000000000003 -5.1500000000000004 -0.035000000000000003 0 0 1 
1 -35.076599000000002 -5.1500000000000004 -0.035000000000000003 1 0 0 
1 -34.950000000000003 -5.0234009999999998 -0.035000000000000003 0 0 1 
1 -34.950000000000003 -5.1500000000000004 -0.035000000000000003 0 1 0 
1 -34.941313999999998 -5.0071510000000004 -0.035000000000000003 0 0 1 
1 -34.950000000000003 -5.0234009999999998 -0.035000000000000003 0.47140492761822489 0.88191688622979447 0 
1 -34.925379999999997 -4.9546250000000001 -0.035000000000000003 0 0 1 
1 -34.941313999999998 -5.0071510000000004 -0.035000000000000003 0.29029155234022064 0.95693825017077505 0 
1 -34.920000000000002 -4.9000000000000004 -0.035000000000000003 0 0 1 
1 -34.925379999999997 -4.9546250000000001 -0.035000000000000003 0.098015463940963929 0.99518489178063663 0 
1 -34.925379999999997 -4.8453749999999998 -0.035000000000000003 0 0 1 
1 -34.920000000000002 -4.9000000000000004 -0.035000000000000003 -0.098015463940962347 0.99518489178063674 0 
1 -34.941313999999998 -4.7928490000000004 -0.035000000000000003 0 0 1 
1 -34.925379999999997 -4.8453749999999998 -0.035000000000000003 -0.29029155234022513 0.95693825017077372 0 
1 -34.950000000000003 -4.776599 -0.035000000000000003 0 0 1 
1 -34.941313999999998 -4.7928490000000004 -0.035000000000000003 -0.47140492761820479 0.88191688622980513 0 
1 -34.950000000000003 -4.6500000000000004 -0.035000000000000003 0 0 1 
1 -34.950000000000003 -4.776599 -0.035000000000000003 0 1 0 
1 -34.950000000000003 -4.6500000000000004 -0.035000000000000003 -1 0 0 
Polygon3D 0
PolygonOnTriangulations 0
Surfaces 69
1 -35.700000000000003 -5.4000000000000004 -0.035000000000000003 0 1 0 1 0 0 0 0 -1 
1 -34.200000000000003 -5.4000000000000004 -0.035000000000000003 -1 0 0 0 1 0 0 0 -1 
1 -34.200000000000003 -3.8999999999999999 -0.035000000000000003 0 -1 0 -1 0 0 -0 -0 -1 
1 -35.700000000000003 -3.8999999999999999 -0.035000000000000003 1 0 -0 0 -1 0 0 -0 -1 
1 -34.592849000000001 -4.6586860000000003 -0.035000000000000003 -0.47140492761803743 0.88191688622989473 0 0.88191688622989473 0.47140492761803743 0 0 0 -1 
1 -34.576599000000002 -4.6500000000000004 -0.035000000000000003 0 1 0 1 0 0 0 0 -1 
1 -34.450000000000003 -4.6500000000000004 -0.035000000000000003 -1 0 0 0 1 0 0 0 -1 
1 -34.450000000000003 -4.5234009999999998 -0.035000000000000003 -0.88191688622979447 0.47140492761822489 0 0.47140492761822489 0.88191688622979447 0 0 0 -1 
1 -34.441313999999998 -4.5071510000000004 -0.035000000000000003 -0.95693825017077505 0.29029155234022064 0 0.29029155234022064 0.95693825017077505 0 0 0 -1 
1 -34.425379999999997 -4.4546250000000001 -0.035000000000000003 -0.99518489178063674 0.098015463940963943 0 0.098015463940963943 0.99518489178063674 0 0 0 -1 
1 -34.420000000000002 -4.4000000000000004 -0.035000000000000003 -0.99518489178063685 -0.098015463940962361 0 -0.098015463940962361 0.99518489178063685 0 -0 0 -1 
1 -34.425379999999997 -4.3453749999999998 -0.035000000000000003 -0.95693825017077372 -0.29029155234022513 0 -0.29029155234022513 0.95693825017077372 0 -0 0 -1 
1 -34.441313999999998 -4.2928490000000004 -0.035000000000000003 -0.88191688622980513 -0.47140492761820479 0 -0.47140492761820479 0.88191688622980513 0 -0 0 -1 
1 -34.450000000000003 -4.276599 -0.035000000000000003 -1 0 0 0 1 0 0 0 -1 
1 -34.450000000000003 -4.1500000000000004 -0.035000000000000003 0 -1 0 -1 0 0 -0 -0 -1 
1 -34.576599000000002 -4.1500000000000004 -0.035000000000000003 -0.47140492761803743 -0.88191688622989473 0 -0.88191688622989473 0.47140492761803743 0 -0 0 -1 
1 -34.592849000000001 -4.1413140000000004 -0.035000000000000003 -0.29029155234020582 -0.9569382501707796 0 -0.9569382501707796 0.29029155234020582 0 -0 0 -1 
1 -34.645375000000001 -4.1253799999999998 -0.035000000000000003 -0.098015463941040909 -0.99518489178062919 0 -0.99518489178062919 0.098015463941040909 0 -0 0 -1 
1 -34.700000000000003 -4.1200000000000001 -0.035000000000000003 0.098015463941053538 -0.99518489178062786 0 -0.99518489178062786 -0.098015463941053538 0 0 -0 -1 
1 -34.754624999999997 -4.1253799999999998 -0.035000000000000003 0.29029155234020582 -0.9569382501707796 0 -0.9569382501707796 -0.29029155234020582 0 0 -0 -1 
1 -34.807150999999998 -4.1413140000000004 -0.035000000000000003 0.47140492761803743 -0.88191688622989473 0 -0.88191688622989473 -0.47140492761803743 0 0 -0 -1 
1 -34.823400999999997 -4.1500000000000004 -0.035000000000000003 0 -1 0 -1 0 0 -0 -0 -1 
1 -34.950000000000003 -4.1500000000000004 -0.035000000000000003 1 0 -0 0 -1 0 0 -0 -1 
1 -34.950000000000003 -4.276599 -0.035000000000000003 0.88191688622996545 -0.47140492761790487 0 -0.47140492761790487 -0.88191688622996545 0 0 -0 -1 
1 -34.958686 -4.2928490000000004 -0.035000000000000003 0.95693825017077372 -0.29029155234022513 0 -0.29029155234022513 -0.95693825017077372 0 0 -0 -1 
1 -34.974620000000002 -4.3453749999999998 -0.035000000000000003 0.99518489178063685 -0.098015463940962361 0 -0.098015463940962361 -0.99518489178063685 0 0 -0 -1 
1 -34.979999999999997 -4.4000000000000004 -0.035000000000000003 0.99518489178063674 0.098015463940963943 -0 0.098015463940963943 -0.99518489178063674 0 0 -0 -1 
1 -34.974620000000002 -4.4546250000000001 -0.035000000000000003 0.95693825017077505 0.29029155234022064 -0 0.29029155234022064 -0.95693825017077505 0 0 -0 -1 
1 -34.958686 -4.5071510000000004 -0.035000000000000003 0.88191688622995479 0.47140492761792496 -0 0.47140492761792496 -0.88191688622995479 0 0 -0 -1 
1 -34.950000000000003 -4.5234009999999998 -0.035000000000000003 1 0 -0 0 -1 0 0 -0 -1 
1 -34.950000000000003 -4.6500000000000004 -0.035000000000000003 0 1 0 1 0 0 0 0 -1 
1 -34.823400999999997 -4.6500000000000004 -0.035000000000000003 0.47140492761803743 0.88191688622989473 -0 0.88191688622989473 -0.47140492761803743 0 0 -0 -1 
1 -34.807150999999998 -4.6586860000000003 -0.035000000000000003 0.29029155234019099 0.95693825017078404 -0 0.95693825017078404 -0.29029155234019099 0 0 -0 -1 
1 -34.754624999999997 -4.67462 -0.035000000000000003 0.098015463941053538 0.99518489178062786 -0 0.99518489178062786 -0.098015463941053538 0 0 -0 -1 
1 -34.700000000000003 -4.6799999999999997 -0.035000000000000003 -0.098015463941040909 0.99518489178062919 0 0.99518489178062919 0.098015463941040909 0 0 0 -1 
1 -34.645375000000001 -4.67462 -0.035000000000000003 -0.29029155234019099 0.95693825017078404 0 0.95693825017078404 0.29029155234019099 0 0 0 -1 
1 -35.076599000000002 -4.6500000000000004 -0.035000000000000003 -0.47140492761803743 -0.88191688622989473 0 -0.88191688622989473 0.47140492761803743 0 -0 0 -1 
1 -35.092849000000001 -4.6413140000000004 -0.035000000000000003 -0.29029155234020582 -0.9569382501707796 0 -0.9569382501707796 0.29029155234020582 0 -0 0 -1 
1 -35.145375000000001 -4.6253799999999998 -0.035000000000000003 -0.098015463941040909 -0.99518489178062919 0 -0.99518489178062919 0.098015463941040909 0 -0 0 -1 
1 -35.200000000000003 -4.6200000000000001 -0.035000000000000003 0.098015463941053538 -0.99518489178062786 0 -0.99518489178062786 -0.098015463941053538 0 0 -0 -1 
1 -35.254624999999997 -4.6253799999999998 -0.035000000000000003 0.29029155234020582 -0.9569382501707796 0 -0.9569382501707796 -0.29029155234020582 0 0 -0 -1 
1 -35.307150999999998 -4.6413140000000004 -0.035000000000000003 0.47140492761803743 -0.88191688622989473 0 -0.88191688622989473 -0.47140492761803743 0 0 -0 -1 
1 -35.323400999999997 -4.6500000000000004 -0.035000000000000003 0 -1 0 -1 0 0 -0 -0 -1 
1 -35.450000000000003 -4.6500000000000004 -0.035000000000000003 1 0 -0 0 -1 0 0 -0 -1 
1 -35.450000000000003 -4.776599 -0.035000000000000003 0.88191688622996545 -0.47140492761790487 0 -0.47140492761790487 -0.88191688622996545 0 0 -0 -1 
1 -35.458686 -4.7928490000000004 -0.035000000000000003 0.95693825017077372 -0.29029155234022513 0 -0.29029155234022513 -0.95693825017077372 0 0 -0 -1 
1 -35.474620000000002 -4.8453749999999998 -0.035000000000000003 0.99518489178063685 -0.098015463940962361 0 -0.098015463940962361 -0.99518489178063685 0 0 -0 -1 
1 -35.479999999999997 -4.9000000000000004 -0.035000000000000003 0.99518489178063674 0.098015463940963943 -0 0.098015463940963943 -0.99518489178063674 0 0 -0 -1 
1 -35.474620000000002 -4.9546250000000001 -0.035000000000000003 0.95693825017077505 0.29029155234022064 -0 0.29029155234022064 -0.95693825017077505 0 0 -0 -1 
1 -35.458686 -5.0071510000000004 -0.035000000000000003 0.88191688622995479 0.47140492761792496 -0 0.47140492761792496 -0.88191688622995479 0 0 -0 -1 
1 -35.450000000000003 -5.0234009999999998 -0.035000000000000003 1 0 -0 0 -1 0 0 -0 -1 
1 -35.450000000000003 -5.1500000000000004 -0.035000000000000003 0 1 0 1 0 0 0 0 -1 
1 -35.323400999999997 -5.1500000000000004 -0.035000000000000003 0.47140492761803743 0.88191688622989473 -0 0.88191688622989473 -0.47140492761803743 0 0 -0 -1 
1 -35.307150999999998 -5.1586860000000003 -0.035000000000000003 0.29029155234019099 0.95693825017078404 -0 0.95693825017078404 -0.29029155234019099 0 0 -0 -1 
1 -35.254624999999997 -5.17462 -0.035000000000000003 0.098015463941053538 0.99518489178062786 -0 0.99518489178062786 -0.098015463941053538 0 0 -0 -1 
1 -35.200000000000003 -5.1799999999999997 -0.035000000000000003 -0.098015463941040909 0.99518489178062919 0 0.99518489178062919 0.098015463941040909 0 0 0 -1 
1 -35.145375000000001 -5.17462 -0.035000000000000003 -0.29029155234019099 0.95693825017078404 0 0.95693825017078404 0.29029155234019099 0 0 0 -1 
1 -35.092849000000001 -5.1586860000000003 -0.035000000000000003 -0.47140492761803743 0.88191688622989473 0 0.88191688622989473 0.47140492761803743 0 0 0 -1 
1 -35.076599000000002 -5.1500000000000004 -0.035000000000000003 0 1 0 1 0 0 0 0 -1 
1 -34.950000000000003 -5.1500000000000004 -0.035000000000000003 -1 0 0 0 1 0 0 0 -1 
1 -34.950000000000003 -5.0234009999999998 -0.035000000000000003 -0.88191688622979447 0.47140492761822489 0 0.47140492761822489 0.88191688622979447 0 0 0 -1 
1 -34.941313999999998 -5.0071510000000004 -0.035000000000000003 -0.95693825017077505 0.29029155234022064 0 0.29029155234022064 0.95693825017077505 0 0 0 -1 
1 -34.925379999999997 -4.9546250000000001 -0.035000000000000003 -0.99518489178063674 0.098015463940963943 0 0.098015463940963943 0.99518489178063674 0 0 0 -1 
1 -34.920000000000002 -4.9000000000000004 -0.035000000000000003 -0.99518489178063685 -0.098015463940962361 0 -0.098015463940962361 0.99518489178063685 0 -0 0 -1 
1 -34.925379999999997 -4.8453749999999998 -0.035000000000000003 -0.95693825017077372 -0.29029155234022513 0 -0.29029155234022513 0.95693825017077372 0 -0 0 -1 
1 -34.941313999999998 -4.7928490000000004 -0.035000000000000003 -0.88191688622980513 -0.47140492761820479 0 -0.47140492761820479 0.88191688622980513 0 -0 0 -1 
1 -34.950000000000003 -4.776599 -0.035000000000000003 -1 0 0 0 1 0 0 0 -1 
1 -34.950000000000003 -4.6500000000000004 -0.035000000000000003 0 -1 0 -1 0 0 -0 -0 -1 
1 -34.95000000000001 -4.6500000000000012 -0.035000000000000003 0 0 1 1 0 -0 -0 1 0 
Triangulations 0

TShapes 347
Ve
1e-07
-35.7 -5.4 -0.035
0 0

0101101
*
Ed
 1e-07 1 1 0
1  1 0 0 0.035
0

0101000
+347 0 -347 1 *
Ve
1e-07
-34.2 -5.4 -0.035
0 0

0101101
*
Ed
 1e-07 1 1 0
1  2 0 0 0.035
0

0101000
+345 0 -345 1 *
Ed
 1e-07 1 1 0
1  3 0 0 1.5
0

0101000
+347 0 -345 0 *
Wi

0101100
+346 0 -344 0 -343 0 +343 1 *
Fa
0  1e-07 1 0

0101000
+342 0 *
Ve
1e-07
-34.2 -3.9 -0.035
0 0

0101101
*
Ed
 1e-07 1 1 0
1  4 0 0 0.035
0

0101000
+340 0 -340 1 *
Ed
 1e-07 1 1 0
1  5 0 0 1.5
0

0101000
+345 0 -340 0 *
Wi

0101100
+344 0 -339 0 -338 0 +338 1 *
Fa
0  1e-07 2 0

0101000
+337 0 *
Ve
1e-07
-35.7 -3.9 -0.035
0 0

0101101
*
Ed
 1e-07 1 1 0
1  6 0 0 0.035
0

0101000
+335 0 -335 1 *
Ed
 1e-07 1 1 0
1  7 0 0 1.5
0

0101000
+340 0 -335 0 *
Wi

0101100
+339 0 -334 0 -333 0 +333 1 *
Fa
0  1e-07 3 0

0101000
+332 0 *
Ed
 1e-07 1 1 0
1  8 0 0 1.5
0

0101000
+335 0 -347 0 *
Wi

0101100
+334 0 -346 0 -330 0 +330 1 *
Fa
0  1e-07 4 0

0101000
+329 0 *
Ve
1e-07
-34.592849 -4.658686 -0.035
0 0

0101101
*
Ed
 1e-07 1 1 0
1  9 0 0 0.035
0

0101000
+327 0 -327 1 *
Ve
1e-07
-34.576599 -4.65 -0.035
0 0

0101101
*
Ed
 1e-07 1 1 0
1  10 0 0 0.035
0

0101000
+325 0 -325 1 *
Ed
 1e-07 1 1 0
1  11 0 0 0.0184257726025255
0

0101000
+327 0 -325 0 *
Wi

0101100
+326 0 -324 0 -323 0 +323 1 *
Fa
0  1e-07 5 0

0101000
+322 0 *
Ve
1e-07
-34.45 -4.65 -0.035
0 0

0101101
*
Ed
 1e-07 1 1 0
1  12 0 0 0.035
0

0101000
+320 0 -320 1 *
Ed
 1e-07 1 1 0
1  13 0 0 0.126598999999999
0

0101000
+325 0 -320 0 *
Wi

0101100
+324 0 -319 0 -318 0 +318 1 *
Fa
0  1e-07 6 0

0101000
+317 0 *
Ve
1e-07
-34.45 -4.523401 -0.035
0 0

0101101
*
Ed
 1e-07 1 1 0
1  14 0 0 0.035
0

0101000
+315 0 -315 1 *
Ed
 1e-07 1 1 0
1  15 0 0 0.126599000000001
0

0101000
+320 0 -315 0 *
Wi

0101100
+319 0 -314 0 -313 0 +313 1 *
Fa
0  1e-07 7 0

0101000
+312 0 *
Ve
1e-07
-34.441314 -4.507151 -0.035
0 0

0101101
*
Ed
 1e-07 1 1 0
1  16 0 0 0.035
0

0101000
+310 0 -310 1 *
Ed
 1e-07 1 1 0
1  17 0 0 0.0184257726025276
0

0101000
+315 0 -310 0 *
Wi

0101100
+314 0 -309 0 -308 0 +308 1 *
Fa
0  1e-07 8 0

0101000
+307 0 *
Ve
1e-07
-34.42538 -4.454625 -0.035
0 0

0101101
*
Ed
 1e-07 1 1 0
1  18 0 0 0.035
0

0101000
+305 0 -305 1 *
Ed
 1e-07 1 1 0
1  19 0 0 0.0548896441234599
0

0101000
+310 0 -305 0 *
Wi

0101100
+309 0 -304 0 -303 0 +303 1 *
Fa
0  1e-07 9 0

0101000
+302 0 *
Ve
1e-07
-34.42 -4.4 -0.035
0 0

0101101
*
Ed
 1e-07 1 1 0
1  20 0 0 0.035
0

0101000
+300 0 -300 1 *
Ed
 1e-07 1 1 0
1  21 0 0 0.0548892979095189
0

0101000
+305 0 -300 0 *
Wi

0101100
+304 0 -299 0 -298 0 +298 1 *
Fa
0  1e-07 10 0

0101000
+297 0 *
Ve
1e-07
-34.42538 -4.345375 -0.035
0 0

0101101
*
Ed
 1e-07 1 1 0
1  22 0 0 0.035
0

0101000
+295 0 -295 1 *
Ed
 1e-07 1 1 0
1  23 0 0 0.0548892979095198
0

0101000
+300 0 -295 0 *
Wi

0101100
+299 0 -294 0 -293 0 +293 1 *
Fa
0  1e-07 11 0

0101000
+292 0 *
Ve
1e-07
-34.441314 -4.292849 -0.035
0 0

0101101
*
Ed
 1e-07 1 1 0
1  24 0 0 0.035
0

0101000
+290 0 -290 1 *
Ed
 1e-07 1 1 0
1  25 0 0 0.0548896441234591
0

0101000
+295 0 -290 0 *
Wi

0101100
+294 0 -289 0 -288 0 +288 1 *
Fa
0  1e-07 12 0

0101000
+287 0 *
Ve
1e-07
-34.45 -4.276599 -0.035
0 0

0101101
*
Ed
 1e-07 1 1 0
1  26 0 0 0.035
0

0101000
+285 0 -285 1 *
Ed
 1e-07 1 1 0
1  27 0 0 0.0184257726025284
0

0101000
+290 0 -285 0 *
Wi

0101100
+289 0 -284 0 -283 0 +283 1 *
Fa
0  1e-07 13 0

0101000
+282 0 *
Ve
1e-07
-34.45 -4.15 -0.035
0 0

0101101
*
Ed
 1e-07 1 1 0
1  28 0 0 0.035
0

0101000
+280 0 -280 1 *
Ed
 1e-07 1 1 0
1  29 0 0 0.126599
0

0101000
+285 0 -280 0 *
Wi

0101100
+284 0 -279 0 -278 0 +278 1 *
Fa
0  1e-07 14 0

0101000
+277 0 *
Ve
1e-07
-34.576599 -4.15 -0.035
0 0

0101101
*
Ed
 1e-07 1 1 0
1  30 0 0 0.035
0

0101000
+275 0 -275 1 *
Ed
 1e-07 1 1 0
1  31 0 0 0.126598999999999
0

0101000
+280 0 -275 0 *
Wi

0101100
+279 0 -274 0 -273 0 +273 1 *
Fa
0  1e-07 15 0

0101000
+272 0 *
Ve
1e-07
-34.592849 -4.141314 -0.035
0 0

0101101
*
Ed
 1e-07 1 1 0
1  32 0 0 0.035
0

0101000
+270 0 -270 1 *
Ed
 1e-07 1 1 0
1  33 0 0 0.0184257726025255
0

0101000
+275 0 -270 0 *
Wi

0101100
+274 0 -269 0 -268 0 +268 1 *
Fa
0  1e-07 16 0

0101000
+267 0 *
Ve
1e-07
-34.645375 -4.12538 -0.035
0 0

0101101
*
Ed
 1e-07 1 1 0
1  34 0 0 0.035
0

0101000
+265 0 -265 1 *
Ed
 1e-07 1 1 0
1  35 0 0 0.0548896441234597
0

0101000
+270 0 -265 0 *
Wi

0101100
+269 0 -264 0 -263 0 +263 1 *
Fa
0  1e-07 17 0

0101000
+262 0 *
Ve
1e-07
-34.7 -4.12 -0.035
0 0

0101101
*
Ed
 1e-07 1 1 0
1  36 0 0 0.035
0

0101000
+260 0 -260 1 *
Ed
 1e-07 1 1 0
1  37 0 0 0.0548892979095211
0

0101000
+265 0 -260 0 *
Wi

0101100
+264 0 -259 0 -258 0 +258 1 *
Fa
0  1e-07 18 0

0101000
+257 0 *
Ve
1e-07
-34.754625 -4.12538 -0.035
0 0

0101101
*
Ed
 1e-07 1 1 0
1  38 0 0 0.035
0

0101000
+255 0 -255 1 *
Ed
 1e-07 1 1 0
1  39 0 0 0.054889297909514
0

0101000
+260 0 -255 0 *
Wi

0101100
+259 0 -254 0 -253 0 +253 1 *
Fa
0  1e-07 19 0

0101000
+252 0 *
Ve
1e-07
-34.807151 -4.141314 -0.035
0 0

0101101
*
Ed
 1e-07 1 1 0
1  40 0 0 0.035
0

0101000
+250 0 -250 1 *
Ed
 1e-07 1 1 0
1  41 0 0 0.0548896441234597
0

0101000
+255 0 -250 0 *
Wi

0101100
+254 0 -249 0 -248 0 +248 1 *
Fa
0  1e-07 20 0

0101000
+247 0 *
Ve
1e-07
-34.823401 -4.15 -0.035
0 0

0101101
*
Ed
 1e-07 1 1 0
1  42 0 0 0.035
0

0101000
+245 0 -245 1 *
Ed
 1e-07 1 1 0
1  43 0 0 0.0184257726025255
0

0101000
+250 0 -245 0 *
Wi

0101100
+249 0 -244 0 -243 0 +243 1 *
Fa
0  1e-07 21 0

0101000
+242 0 *
Ve
1e-07
-34.95 -4.15 -0.035
0 0

0101101
*
Ed
 1e-07 1 1 0
1  44 0 0 0.035
0

0101000
+240 0 -240 1 *
Ed
 1e-07 1 1 0
1  45 0 0 0.126599000000006
0

0101000
+245 0 -240 0 *
Wi

0101100
+244 0 -239 0 -238 0 +238 1 *
Fa
0  1e-07 22 0

0101000
+237 0 *
Ve
1e-07
-34.95 -4.276599 -0.035
0 0

0101101
*
Ed
 1e-07 1 1 0
1  46 0 0 0.035
0

0101000
+235 0 -235 1 *
Ed
 1e-07 1 1 0
1  47 0 0 0.126599
0

0101000
+240 0 -235 0 *
Wi

0101100
+239 0 -234 0 -233 0 +233 1 *
Fa
0  1e-07 23 0

0101000
+232 0 *
Ve
1e-07
-34.958686 -4.292849 -0.035
0 0

0101101
*
Ed
 1e-07 1 1 0
1  48 0 0 0.035
0

0101000
+230 0 -230 1 *
Ed
 1e-07 1 1 0
1  49 0 0 0.0184257726025251
0

0101000
+235 0 -230 0 *
Wi

0101100
+234 0 -229 0 -228 0 +228 1 *
Fa
0  1e-07 24 0

0101000
+227 0 *
Ve
1e-07
-34.97462 -4.345375 -0.035
0 0

0101101
*
Ed
 1e-07 1 1 0
1  50 0 0 0.035
0

0101000
+225 0 -225 1 *
Ed
 1e-07 1 1 0
1  51 0 0 0.0548896441234591
0

0101000
+230 0 -225 0 *
Wi

0101100
+229 0 -224 0 -223 0 +223 1 *
Fa
0  1e-07 25 0

0101000
+222 0 *
Ve
1e-07
-34.98 -4.4 -0.035
0 0

0101101
*
Ed
 1e-07 1 1 0
1  52 0 0 0.035
0

0101000
+220 0 -220 1 *
Ed
 1e-07 1 1 0
1  53 0 0 0.0548892979095198
0

0101000
+225 0 -220 0 *
Wi

0101100
+224 0 -219 0 -218 0 +218 1 *
Fa
0  1e-07 26 0

0101000
+217 0 *
Ve
1e-07
-34.97462 -4.454625 -0.035
0 0

0101101
*
Ed
 1e-07 1 1 0
1  54 0 0 0.035
0

0101000
+215 0 -215 1 *
Ed
 1e-07 1 1 0
1  55 0 0 0.0548892979095189
0

0101000
+220 0 -215 0 *
Wi

0101100
+219 0 -214 0 -213 0 +213 1 *
Fa
0  1e-07 27 0

0101000
+212 0 *
Ve
1e-07
-34.958686 -4.507151 -0.035
0 0

0101101
*
Ed
 1e-07 1 1 0
1  56 0 0 0.035
0

0101000
+210 0 -210 1 *
Ed
 1e-07 1 1 0
1  57 0 0 0.0548896441234599
0

0101000
+215 0 -210 0 *
Wi

0101100
+214 0 -209 0 -208 0 +208 1 *
Fa
0  1e-07 28 0

0101000
+207 0 *
Ve
1e-07
-34.95 -4.523401 -0.035
0 0

0101101
*
Ed
 1e-07 1 1 0
1  58 0 0 0.035
0

0101000
+205 0 -205 1 *
Ed
 1e-07 1 1 0
1  59 0 0 0.0184257726025243
0

0101000
+210 0 -205 0 *
Wi

0101100
+209 0 -204 0 -203 0 +203 1 *
Fa
0  1e-07 29 0

0101000
+202 0 *
Ve
1e-07
-34.95 -4.65 -0.035
0 0

0101101
*
Ed
 1e-07 1 1 0
1  60 0 0 0.035
0

0101000
+200 0 -200 1 *
Ed
 1e-07 1 1 0
1  61 0 0 0.126599000000001
0

0101000
+205 0 -200 0 *
Wi

0101100
+204 0 -199 0 -198 0 +198 1 *
Fa
0  1e-07 30 0

0101000
+197 0 *
Ve
1e-07
-34.823401 -4.65 -0.035
0 0

0101101
*
Ed
 1e-07 1 1 0
1  62 0 0 0.035
0

0101000
+195 0 -195 1 *
Ed
 1e-07 1 1 0
1  63 0 0 0.126599000000006
0

0101000
+200 0 -195 0 *
Wi

0101100
+199 0 -194 0 -193 0 +193 1 *
Fa
0  1e-07 31 0

0101000
+192 0 *
Ve
1e-07
-34.807151 -4.658686 -0.035
0 0

0101101
*
Ed
 1e-07 1 1 0
1  64 0 0 0.035
0

0101000
+190 0 -190 1 *
Ed
 1e-07 1 1 0
1  65 0 0 0.0184257726025255
0

0101000
+195 0 -190 0 *
Wi

0101100
+194 0 -189 0 -188 0 +188 1 *
Fa
0  1e-07 32 0

0101000
+187 0 *
Ve
1e-07
-34.754625 -4.67462 -0.035
0 0

0101101
*
Ed
 1e-07 1 1 0
1  66 0 0 0.035
0

0101000
+185 0 -185 1 *
Ed
 1e-07 1 1 0
1  67 0 0 0.0548896441234594
0

0101000
+190 0 -185 0 *
Wi

0101100
+189 0 -184 0 -183 0 +183 1 *
Fa
0  1e-07 33 0

0101000
+182 0 *
Ve
1e-07
-34.7 -4.68 -0.035
0 0

0101101
*
Ed
 1e-07 1 1 0
1  68 0 0 0.035
0

0101000
+180 0 -180 1 *
Ed
 1e-07 1 1 0
1  69 0 0 0.054889297909514
0

0101000
+185 0 -180 0 *
Wi

0101100
+184 0 -179 0 -178 0 +178 1 *
Fa
0  1e-07 34 0

0101000
+177 0 *
Ve
1e-07
-34.645375 -4.67462 -0.035
0 0

0101101
*
Ed
 1e-07 1 1 0
1  70 0 0 0.035
0

0101000
+175 0 -175 1 *
Ed
 1e-07 1 1 0
1  71 0 0 0.0548892979095211
0

0101000
+180 0 -175 0 *
Wi

0101100
+179 0 -174 0 -173 0 +173 1 *
Fa
0  1e-07 35 0

0101000
+172 0 *
Ed
 1e-07 1 1 0
1  72 0 0 0.0548896441234594
0

0101000
+175 0 -327 0 *
Wi

0101100
+174 0 -326 0 -170 0 +170 1 *
Fa
0  1e-07 36 0

0101000
+169 0 *
Ve
1e-07
-35.076599 -4.65 -0.035
0 0

0101101
*
Ed
 1e-07 1 1 0
1  73 0 0 0.035
0

0101000
+167 0 -167 1 *
Ve
1e-07
-35.092849 -4.641314 -0.035
0 0

0101101
*
Ed
 1e-07 1 1 0
1  74 0 0 0.035
0

0101000
+165 0 -165 1 *
Ed
 1e-07 1 1 0
1  75 0 0 0.0184257726025255
0

0101000
+167 0 -165 0 *
Wi

0101100
+166 0 -164 0 -163 0 +163 1 *
Fa
0  1e-07 37 0

0101000
+162 0 *
Ve
1e-07
-35.145375 -4.62538 -0.035
0 0

0101101
*
Ed
 1e-07 1 1 0
1  76 0 0 0.035
0

0101000
+160 0 -160 1 *
Ed
 1e-07 1 1 0
1  77 0 0 0.0548896441234597
0

0101000
+165 0 -160 0 *
Wi

0101100
+164 0 -159 0 -158 0 +158 1 *
Fa
0  1e-07 38 0

0101000
+157 0 *
Ve
1e-07
-35.2 -4.62 -0.035
0 0

0101101
*
Ed
 1e-07 1 1 0
1  78 0 0 0.035
0

0101000
+155 0 -155 1 *
Ed
 1e-07 1 1 0
1  79 0 0 0.0548892979095211
0

0101000
+160 0 -155 0 *
Wi

0101100
+159 0 -154 0 -153 0 +153 1 *
Fa
0  1e-07 39 0

0101000
+152 0 *
Ve
1e-07
-35.254625 -4.62538 -0.035
0 0

0101101
*
Ed
 1e-07 1 1 0
1  80 0 0 0.035
0

0101000
+150 0 -150 1 *
Ed
 1e-07 1 1 0
1  81 0 0 0.054889297909514
0

0101000
+155 0 -150 0 *
Wi

0101100
+154 0 -149 0 -148 0 +148 1 *
Fa
0  1e-07 40 0

0101000
+147 0 *
Ve
1e-07
-35.307151 -4.641314 -0.035
0 0

0101101
*
Ed
 1e-07 1 1 0
1  82 0 0 0.035
0

0101000
+145 0 -145 1 *
Ed
 1e-07 1 1 0
1  83 0 0 0.0548896441234597
0

0101000
+150 0 -145 0 *
Wi

0101100
+149 0 -144 0 -143 0 +143 1 *
Fa
0  1e-07 41 0

0101000
+142 0 *
Ve
1e-07
-35.323401 -4.65 -0.035
0 0

0101101
*
Ed
 1e-07 1 1 0
1  84 0 0 0.035
0

0101000
+140 0 -140 1 *
Ed
 1e-07 1 1 0
1  85 0 0 0.0184257726025255
0

0101000
+145 0 -140 0 *
Wi

0101100
+144 0 -139 0 -138 0 +138 1 *
Fa
0  1e-07 42 0

0101000
+137 0 *
Ve
1e-07
-35.45 -4.65 -0.035
0 0

0101101
*
Ed
 1e-07 1 1 0
1  86 0 0 0.035
0

0101000
+135 0 -135 1 *
Ed
 1e-07 1 1 0
1  87 0 0 0.126599000000006
0

0101000
+140 0 -135 0 *
Wi

0101100
+139 0 -134 0 -133 0 +133 1 *
Fa
0  1e-07 43 0

0101000
+132 0 *
Ve
1e-07
-35.45 -4.776599 -0.035
0 0

0101101
*
Ed
 1e-07 1 1 0
1  88 0 0 0.035
0

0101000
+130 0 -130 1 *
Ed
 1e-07 1 1 0
1  89 0 0 0.126599
0

0101000
+135 0 -130 0 *
Wi

0101100
+134 0 -129 0 -128 0 +128 1 *
Fa
0  1e-07 44 0

0101000
+127 0 *
Ve
1e-07
-35.458686 -4.792849 -0.035
0 0

0101101
*
Ed
 1e-07 1 1 0
1  90 0 0 0.035
0

0101000
+125 0 -125 1 *
Ed
 1e-07 1 1 0
1  91 0 0 0.0184257726025251
0

0101000
+130 0 -125 0 *
Wi

0101100
+129 0 -124 0 -123 0 +123 1 *
Fa
0  1e-07 45 0

0101000
+122 0 *
Ve
1e-07
-35.47462 -4.845375 -0.035
0 0

0101101
*
Ed
 1e-07 1 1 0
1  92 0 0 0.035
0

0101000
+120 0 -120 1 *
Ed
 1e-07 1 1 0
1  93 0 0 0.0548896441234591
0

0101000
+125 0 -120 0 *
Wi

0101100
+124 0 -119 0 -118 0 +118 1 *
Fa
0  1e-07 46 0

0101000
+117 0 *
Ve
1e-07
-35.48 -4.9 -0.035
0 0

0101101
*
Ed
 1e-07 1 1 0
1  94 0 0 0.035
0

0101000
+115 0 -115 1 *
Ed
 1e-07 1 1 0
1  95 0 0 0.0548892979095198
0

0101000
+120 0 -115 0 *
Wi

0101100
+119 0 -114 0 -113 0 +113 1 *
Fa
0  1e-07 47 0

0101000
+112 0 *
Ve
1e-07
-35.47462 -4.954625 -0.035
0 0

0101101
*
Ed
 1e-07 1 1 0
1  96 0 0 0.035
0

0101000
+110 0 -110 1 *
Ed
 1e-07 1 1 0
1  97 0 0 0.0548892979095189
0

0101000
+115 0 -110 0 *
Wi

0101100
+114 0 -109 0 -108 0 +108 1 *
Fa
0  1e-07 48 0

0101000
+107 0 *
Ve
1e-07
-35.458686 -5.007151 -0.035
0 0

0101101
*
Ed
 1e-07 1 1 0
1  98 0 0 0.035
0

0101000
+105 0 -105 1 *
Ed
 1e-07 1 1 0
1  99 0 0 0.0548896441234599
0

0101000
+110 0 -105 0 *
Wi

0101100
+109 0 -104 0 -103 0 +103 1 *
Fa
0  1e-07 49 0

0101000
+102 0 *
Ve
1e-07
-35.45 -5.023401 -0.035
0 0

0101101
*
Ed
 1e-07 1 1 0
1  100 0 0 0.035
0

0101000
+100 0 -100 1 *
Ed
 1e-07 1 1 0
1  101 0 0 0.0184257726025243
0

0101000
+105 0 -100 0 *
Wi

0101100
+104 0 -99 0 -98 0 +98 1 *
Fa
0  1e-07 50 0

0101000
+97 0 *
Ve
1e-07
-35.45 -5.15 -0.035
0 0

0101101
*
Ed
 1e-07 1 1 0
1  102 0 0 0.035
0

0101000
+95 0 -95 1 *
Ed
 1e-07 1 1 0
1  103 0 0 0.126599000000001
0

0101000
+100 0 -95 0 *
Wi

0101100
+99 0 -94 0 -93 0 +93 1 *
Fa
0  1e-07 51 0

0101000
+92 0 *
Ve
1e-07
-35.323401 -5.15 -0.035
0 0

0101101
*
Ed
 1e-07 1 1 0
1  104 0 0 0.035
0

0101000
+90 0 -90 1 *
Ed
 1e-07 1 1 0
1  105 0 0 0.126599000000006
0

0101000
+95 0 -90 0 *
Wi

0101100
+94 0 -89 0 -88 0 +88 1 *
Fa
0  1e-07 52 0

0101000
+87 0 *
Ve
1e-07
-35.307151 -5.158686 -0.035
0 0

0101101
*
Ed
 1e-07 1 1 0
1  106 0 0 0.035
0

0101000
+85 0 -85 1 *
Ed
 1e-07 1 1 0
1  107 0 0 0.0184257726025255
0

0101000
+90 0 -85 0 *
Wi

0101100
+89 0 -84 0 -83 0 +83 1 *
Fa
0  1e-07 53 0

0101000
+82 0 *
Ve
1e-07
-35.254625 -5.17462 -0.035
0 0

0101101
*
Ed
 1e-07 1 1 0
1  108 0 0 0.035
0

0101000
+80 0 -80 1 *
Ed
 1e-07 1 1 0
1  109 0 0 0.0548896441234594
0

0101000
+85 0 -80 0 *
Wi

0101100
+84 0 -79 0 -78 0 +78 1 *
Fa
0  1e-07 54 0

0101000
+77 0 *
Ve
1e-07
-35.2 -5.18 -0.035
0 0

0101101
*
Ed
 1e-07 1 1 0
1  110 0 0 0.035
0

0101000
+75 0 -75 1 *
Ed
 1e-07 1 1 0
1  111 0 0 0.054889297909514
0

0101000
+80 0 -75 0 *
Wi

0101100
+79 0 -74 0 -73 0 +73 1 *
Fa
0  1e-07 55 0

0101000
+72 0 *
Ve
1e-07
-35.145375 -5.17462 -0.035
0 0

0101101
*
Ed
 1e-07 1 1 0
1  112 0 0 0.035
0

0101000
+70 0 -70 1 *
Ed
 1e-07 1 1 0
1  113 0 0 0.0548892979095211
0

0101000
+75 0 -70 0 *
Wi

0101100
+74 0 -69 0 -68 0 +68 1 *
Fa
0  1e-07 56 0

0101000
+67 0 *
Ve
1e-07
-35.092849 -5.158686 -0.035
0 0

0101101
*
Ed
 1e-07 1 1 0
1  114 0 0 0.035
0

0101000
+65 0 -65 1 *
Ed
 1e-07 1 1 0
1  115 0 0 0.0548896441234594
0

0101000
+70 0 -65 0 *
Wi

0101100
+69 0 -64 0 -63 0 +63 1 *
Fa
0  1e-07 57 0

0101000
+62 0 *
Ve
1e-07
-35.076599 -5.15 -0.035
0 0

0101101
*
Ed
 1e-07 1 1 0
1  116 0 0 0.035
0

0101000
+60 0 -60 1 *
Ed
 1e-07 1 1 0
1  117 0 0 0.0184257726025255
0

0101000
+65 0 -60 0 *
Wi

0101100
+64 0 -59 0 -58 0 +58 1 *
Fa
0  1e-07 58 0

0101000
+57 0 *
Ve
1e-07
-34.95 -5.15 -0.035
0 0

0101101
*
Ed
 1e-07 1 1 0
1  118 0 0 0.035
0

0101000
+55 0 -55 1 *
Ed
 1e-07 1 1 0
1  119 0 0 0.126598999999999
0

0101000
+60 0 -55 0 *
Wi

0101100
+59 0 -54 0 -53 0 +53 1 *
Fa
0  1e-07 59 0

0101000
+52 0 *
Ve
1e-07
-34.95 -5.023401 -0.035
0 0

0101101
*
Ed
 1e-07 1 1 0
1  120 0 0 0.035
0

0101000
+50 0 -50 1 *
Ed
 1e-07 1 1 0
1  121 0 0 0.126599000000001
0

0101000
+55 0 -50 0 *
Wi

0101100
+54 0 -49 0 -48 0 +48 1 *
Fa
0  1e-07 60 0

0101000
+47 0 *
Ve
1e-07
-34.941314 -5.007151 -0.035
0 0

0101101
*
Ed
 1e-07 1 1 0
1  122 0 0 0.035
0

0101000
+45 0 -45 1 *
Ed
 1e-07 1 1 0
1  123 0 0 0.0184257726025276
0

0101000
+50 0 -45 0 *
Wi

0101100
+49 0 -44 0 -43 0 +43 1 *
Fa
0  1e-07 61 0

0101000
+42 0 *
Ve
1e-07
-34.92538 -4.954625 -0.035
0 0

0101101
*
Ed
 1e-07 1 1 0
1  124 0 0 0.035
0

0101000
+40 0 -40 1 *
Ed
 1e-07 1 1 0
1  125 0 0 0.0548896441234599
0

0101000
+45 0 -40 0 *
Wi

0101100
+44 0 -39 0 -38 0 +38 1 *
Fa
0  1e-07 62 0

0101000
+37 0 *
Ve
1e-07
-34.92 -4.9 -0.035
0 0

0101101
*
Ed
 1e-07 1 1 0
1  126 0 0 0.035
0

0101000
+35 0 -35 1 *
Ed
 1e-07 1 1 0
1  127 0 0 0.0548892979095189
0

0101000
+40 0 -35 0 *
Wi

0101100
+39 0 -34 0 -33 0 +33 1 *
Fa
0  1e-07 63 0

0101000
+32 0 *
Ve
1e-07
-34.92538 -4.845375 -0.035
0 0

0101101
*
Ed
 1e-07 1 1 0
1  128 0 0 0.035
0

0101000
+30 0 -30 1 *
Ed
 1e-07 1 1 0
1  129 0 0 0.0548892979095198
0

0101000
+35 0 -30 0 *
Wi

0101100
+34 0 -29 0 -28 0 +28 1 *
Fa
0  1e-07 64 0

0101000
+27 0 *
Ve
1e-07
-34.941314 -4.792849 -0.035
0 0

0101101
*
Ed
 1e-07 1 1 0
1  130 0 0 0.035
0

0101000
+25 0 -25 1 *
Ed
 1e-07 1 1 0
1  131 0 0 0.0548896441234591
0

0101000
+30 0 -25 0 *
Wi

0101100
+29 0 -24 0 -23 0 +23 1 *
Fa
0  1e-07 65 0

0101000
+22 0 *
Ve
1e-07
-34.95 -4.776599 -0.035
0 0

0101101
*
Ed
 1e-07 1 1 0
1  132 0 0 0.035
0

0101000
+20 0 -20 1 *
Ed
 1e-07 1 1 0
1  133 0 0 0.0184257726025284
0

0101000
+25 0 -20 0 *
Wi

0101100
+24 0 -19 0 -18 0 +18 1 *
Fa
0  1e-07 66 0

0101000
+17 0 *
Ve
1e-07
-34.95 -4.65 -0.035
0 0

0101101
*
Ed
 1e-07 1 1 0
1  134 0 0 0.035
0

0101000
+15 0 -15 1 *
Ed
 1e-07 1 1 0
1  135 0 0 0.126599
0

0101000
+20 0 -15 0 *
Wi

0101100
+19 0 -14 0 -13 0 +13 1 *
Fa
0  1e-07 67 0

0101000
+12 0 *
Ed
 1e-07 1 1 0
1  136 0 0 0.126598999999999
0

0101000
+15 0 -167 0 *
Wi

0101100
+14 0 -166 0 -10 0 +10 1 *
Fa
0  1e-07 68 0

0101000
+9 0 *
Wi

0101100
+343 0 +338 0 +333 0 +330 0 *
Wi

0101100
+323 0 +318 0 +313 0 +308 0 +303 0 +298 0 +293 0 +288 0 +283 0 +278 0 
+273 0 +268 0 +263 0 +258 0 +253 0 +248 0 +243 0 +238 0 +233 0 +228 0 
+223 0 +218 0 +213 0 +208 0 +203 0 +198 0 +193 0 +188 0 +183 0 +178 0 
+173 0 +170 0 *
Wi

0101100
+163 0 +158 0 +153 0 +148 0 +143 0 +138 0 +133 0 +128 0 +123 0 +118 0 
+113 0 +108 0 +103 0 +98 0 +93 0 +88 0 +83 0 +78 0 +73 0 +68 0 
+63 0 +58 0 +53 0 +48 0 +43 0 +38 0 +33 0 +28 0 +23 0 +18 0 
+13 0 +10 0 *
Fa
0  1e-07 69 0

0111000
+7 0 -6 0 -5 0 *
Sh

0101100
+341 0 +336 0 +331 0 +328 0 -321 0 -316 0 -311 0 -306 0 -301 0 -296 0 
-291 0 -286 0 -281 0 -276 0 -271 0 -266 0 -261 0 -256 0 -251 0 -246 0 
-241 0 -236 0 -231 0 -226 0 -221 0 -216 0 -211 0 -206 0 -201 0 -196 0 
-191 0 -186 0 -181 0 -176 0 -171 0 -168 0 -161 0 -156 0 -151 0 -146 0 
-141 0 -136 0 -131 0 -126 0 -121 0 -116 0 -111 0 -106 0 -101 0 -96 0 
-91 0 -86 0 -81 0 -76 0 -71 0 -66 0 -61 0 -56 0 -51 0 -46 0 
-41 0 -36 0 -31 0 -26 0 -21 0 -16 0 -11 0 -8 0 +4 0 -4 1 
*
So

0100000
-3 0 *
Co

1100000
+2 0 *

+1 0 