DBRep_DrawableShape

CASCADE Topology V1, (c) Matra-Datavision
Locations 1
1
              1               0               0               0 
              0               1               0               0 
              0               0               1           0.035 
Curve2ds 0
Curves 144
1 -35.700000000000003 -3.8999999999999999 -0.035000000000000003 0 0 1 
1 -35.700000000000003 -5.4000000000000004 -0.035000000000000003 0 0 1 
1 -35.700000000000003 -3.8999999999999999 -0.035000000000000003 0 -1 0 
1 -34.200000000000003 -5.4000000000000004 -0.035000000000000003 0 0 1 
1 -35.700000000000003 -5.4000000000000004 -0.035000000000000003 1 0 0 
1 -34.200000000000003 -3.8999999999999999 -0.035000000000000003 0 0 1 
1 -34.200000000000003 -5.4000000000000004 -0.035000000000000003 0 1 0 
1 -34.200000000000003 -3.8999999999999999 -0.035000000000000003 -1 0 0 
1 -34.576599000000002 -4.6500000000000004 -0.035000000000000003 0 0 1 
1 -34.450000000000003 -4.6500000000000004 -0.035000000000000003 0 0 1 
1 -34.576599000000002 -4.6500000000000004 -0.035000000000000003 1 0 0 
1 -34.450000000000003 -4.5234009999999998 -0.035000000000000003 0 0 1 
1 -34.450000000000003 -4.6500000000000004 -0.035000000000000003 0 1 0 
1 -34.441313999999998 -4.5071510000000004 -0.035000000000000003 0 0 1 
1 -34.450000000000003 -4.5234009999999998 -0.035000000000000003 0.47140492761822489 0.88191688622979447 0 
1 -34.425379999999997 -4.4546250000000001 -0.035000000000000003 0 0 1 
1 -34.441313999999998 -4.5071510000000004 -0.035000000000000003 0.29029155234022064 0.95693825017077505 0 
1 -34.420000000000002 -4.4000000000000004 -0.035000000000000003 0 0 1 
1 -34.425379999999997 -4.4546250000000001 -0.035000000000000003 0.098015463940963929 0.99518489178063663 0 
1 -34.425379999999997 -4.3453749999999998 -0.035000000000000003 0 0 1 
1 -34.420000000000002 -4.4000000000000004 -0.035000000000000003 -0.098015463940962347 0.99518489178063674 0 
1 -34.441313999999998 -4.2928490000000004 -0.035000000000000003 0 0 1 
1 -34.425379999999997 -4.3453749999999998 -0.035000000000000003 -0.29029155234022513 0.95693825017077372 0 
1 -34.450000000000003 -4.276599 -0.035000000000000003 0 0 1 
1 -34.441313999999998 -4.2928490000000004 -0.035000000000000003 -0.47140492761820479 0.88191688622980513 0 
1 -34.450000000000003 -4.1500000000000004 -0.035000000000000003 0 0 1 
1 -34.450000000000003 -4.276599 -0.035000000000000003 0 1 0 
1 -34.576599000000002 -4.1500000000000004 -0.035000000000000003 0 0 1 
1 -34.450000000000003 -4.1500000000000004 -0.035000000000000003 -1 0 0 
1 -34.592849000000001 -4.1413140000000004 -0.035000000000000003 0 0 1 
1 -34.576599000000002 -4.1500000000000004 -0.035000000000000003 -0.88191688622989461 0.47140492761803737 0 
1 -34.645375000000001 -4.1253799999999998 -0.035000000000000003 0 0 1 
1 -34.592849000000001 -4.1413140000000004 -0.035000000000000003 -0.9569382501707796 0.29029155234020582 0 
1 -34.700000000000003 -4.1200000000000001 -0.035000000000000003 0 0 1 
1 -34.645375000000001 -4.1253799999999998 -0.035000000000000003 -0.99518489178062919 0.098015463941040909 0 
1 -34.754624999999997 -4.1253799999999998 -0.035000000000000003 0 0 1 
1 -34.700000000000003 -4.1200000000000001 -0.035000000000000003 -0.99518489178062786 -0.098015463941053538 0 
1 -34.807150999999998 -4.1413140000000004 -0.035000000000000003 0 0 1 
1 -34.754624999999997 -4.1253799999999998 -0.035000000000000003 -0.9569382501707796 -0.29029155234020582 0 
1 -34.823400999999997 -4.1500000000000004 -0.035000000000000003 0 0 1 
1 -34.807150999999998 -4.1413140000000004 -0.035000000000000003 -0.88191688622989461 -0.47140492761803737 0 
1 -34.950000000000003 -4.1500000000000004 -0.035000000000000003 0 0 1 
1 -34.823400999999997 -4.1500000000000004 -0.035000000000000003 -1 0 0 
1 -34.950000000000003 -4.276599 -0.035000000000000003 0 0 1 
1 -34.950000000000003 -4.1500000000000004 -0.035000000000000003 0 -1 0 
1 -34.958686 -4.2928490000000004 -0.035000000000000003 0 0 1 
1 -34.950000000000003 -4.276599 -0.035000000000000003 -0.47140492761790481 -0.88191688622996534 0 
1 -34.974620000000002 -4.3453749999999998 -0.035000000000000003 0 0 1 
1 -34.958686 -4.2928490000000004 -0.035000000000000003 -0.29029155234022513 -0.95693825017077372 0 
1 -34.979999999999997 -4.4000000000000004 -0.035000000000000003 0 0 1 
1 -34.974620000000002 -4.3453749999999998 -0.035000000000000003 -0.098015463940962347 -0.99518489178063674 0 
1 -34.974620000000002 -4.4546250000000001 -0.035000000000000003 0 0 1 
1 -34.979999999999997 -4.4000000000000004 -0.035000000000000003 0.098015463940963929 -0.99518489178063663 0 
1 -34.958686 -4.5071510000000004 -0.035000000000000003 0 0 1 
1 -34.974620000000002 -4.4546250000000001 -0.035000000000000003 0.29029155234022064 -0.95693825017077505 0 
1 -34.950000000000003 -4.5234009999999998 -0.035000000000000003 0 0 1 
1 -34.958686 -4.5071510000000004 -0.035000000000000003 0.47140492761792491 -0.88191688622995468 0 
1 -34.950000000000003 -4.6499000000000006 -0.035000000000000003 0 0 1 
1 -34.950000000000003 -4.5234009999999998 -0.035000000000000003 0 -1 0 
1 -34.950100000000006 -4.6499000000000006 -0.035000000000000003 0 0 1 
1 -34.950000000000003 -4.6499000000000006 -0.035000000000000003 -1 0 0 
1 -34.950100000000006 -4.6500000000000004 -0.035000000000000003 0 0 1 
1 -34.950100000000006 -4.6499000000000006 -0.035000000000000003 0 -1 0 
1 -35.076599000000002 -4.6500000000000004 -0.035000000000000003 0 0 1 
1 -34.950100000000006 -4.6500000000000004 -0.035000000000000003 -1 0 0 
1 -35.092849000000001 -4.6413140000000004 -0.035000000000000003 0 0 1 
1 -35.076599000000002 -4.6500000000000004 -0.035000000000000003 -0.88191688622989461 0.47140492761803737 0 
1 -35.145375000000001 -4.6253799999999998 -0.035000000000000003 0 0 1 
1 -35.092849000000001 -4.6413140000000004 -0.035000000000000003 -0.9569382501707796 0.29029155234020582 0 
1 -35.200000000000003 -4.6200000000000001 -0.035000000000000003 0 0 1 
1 -35.145375000000001 -4.6253799999999998 -0.035000000000000003 -0.99518489178062919 0.098015463941040909 0 
1 -35.254624999999997 -4.6253799999999998 -0.035000000000000003 0 0 1 
1 -35.200000000000003 -4.6200000000000001 -0.035000000000000003 -0.99518489178062786 -0.098015463941053538 0 
1 -35.307150999999998 -4.6413140000000004 -0.035000000000000003 0 0 1 
1 -35.254624999999997 -4.6253799999999998 -0.035000000000000003 -0.9569382501707796 -0.29029155234020582 0 
1 -35.323400999999997 -4.6500000000000004 -0.035000000000000003 0 0 1 
1 -35.307150999999998 -4.6413140000000004 -0.035000000000000003 -0.88191688622989461 -0.47140492761803737 0 
1 -35.450000000000003 -4.6500000000000004 -0.035000000000000003 0 0 1 
1 -35.323400999999997 -4.6500000000000004 -0.035000000000000003 -1 0 0 
1 -35.450000000000003 -4.776599 -0.035000000000000003 0 0 1 
1 -35.450000000000003 -4.6500000000000004 -0.035000000000000003 0 -1 0 
1 -35.458686 -4.7928490000000004 -0.035000000000000003 0 0 1 
1 -35.450000000000003 -4.776599 -0.035000000000000003 -0.47140492761790481 -0.88191688622996534 0 
1 -35.474620000000002 -4.8453749999999998 -0.035000000000000003 0 0 1 
1 -35.458686 -4.7928490000000004 -0.035000000000000003 -0.29029155234022513 -0.95693825017077372 0 
1 -35.479999999999997 -4.9000000000000004 -0.035000000000000003 0 0 1 
1 -35.474620000000002 -4.8453749999999998 -0.035000000000000003 -0.098015463940962347 -0.99518489178063674 0 
1 -35.474620000000002 -4.9546250000000001 -0.035000000000000003 0 0 1 
1 -35.479999999999997 -4.9000000000000004 -0.035000000000000003 0.098015463940963929 -0.99518489178063663 0 
1 -35.458686 -5.0071510000000004 -0.035000000000000003 0 0 1 
1 -35.474620000000002 -4.9546250000000001 -0.035000000000000003 0.29029155234022064 -0.95693825017077505 0 
1 -35.450000000000003 -5.0234009999999998 -0.035000000000000003 0 0 1 
1 -35.458686 -5.0071510000000004 -0.035000000000000003 0.47140492761792491 -0.88191688622995468 0 
1 -35.450000000000003 -5.1500000000000004 -0.035000000000000003 0 0 1 
1 -35.450000000000003 -5.0234009999999998 -0.035000000000000003 0 -1 0 
1 -35.323400999999997 -5.1500000000000004 -0.035000000000000003 0 0 1 
1 -35.450000000000003 -5.1500000000000004 -0.035000000000000003 1 0 0 
1 -35.307150999999998 -5.1586860000000003 -0.035000000000000003 0 0 1 
1 -35.323400999999997 -5.1500000000000004 -0.035000000000000003 0.88191688622989461 -0.47140492761803737 0 
1 -35.254624999999997 -5.17462 -0.035000000000000003 0 0 1 
1 -35.307150999999998 -5.1586860000000003 -0.035000000000000003 0.95693825017078404 -0.29029155234019099 0 
1 -35.200000000000003 -5.1799999999999997 -0.035000000000000003 0 0 1 
1 -35.254624999999997 -5.17462 -0.035000000000000003 0.99518489178062786 -0.098015463941053538 0 
1 -35.145375000000001 -5.17462 -0.035000000000000003 0 0 1 
1 -35.200000000000003 -5.1799999999999997 -0.035000000000000003 0.99518489178062919 0.098015463941040909 0 
1 -35.092849000000001 -5.1586860000000003 -0.035000000000000003 0 0 1 
1 -35.145375000000001 -5.17462 -0.035000000000000003 0.95693825017078404 0.29029155234019099 0 
1 -35.076599000000002 -5.1500000000000004 -0.035000000000000003 0 0 1 
1 -35.092849000000001 -5.1586860000000003 -0.035000000000000003 0.88191688622989461 0.47140492761803737 0 
1 -34.950000000000003 -5.1500000000000004 -0.035000000000000003 0 0 1 
1 -35.076599000000002 -5.1500000000000004 -0.035000000000000003 1 0 0 
1 -34.950000000000003 -5.0234009999999998 -0.035000000000000003 0 0 1 
1 -34.950000000000003 -5.1500000000000004 -0.035000000000000003 0 1 0 
1 -34.941313999999998 -5.0071510000000004 -0.035000000000000003 0 0 1 
1 -34.950000000000003 -5.0234009999999998 -0.035000000000000003 0.47140492761822489 0.88191688622979447 0 
1 -34.925379999999997 -4.9546250000000001 -0.035000000000000003 0 0 1 
1 -34.941313999999998 -5.0071510000000004 -0.035000000000000003 0.29029155234022064 0.95693825017077505 0 
1 -34.920000000000002 -4.9000000000000004 -0.035000000000000003 0 0 1 
1 -34.925379999999997 -4.9546250000000001 -0.035000000000000003 0.098015463940963929 0.99518489178063663 0 
1 -34.925379999999997 -4.8453749999999998 -0.035000000000000003 0 0 1 
1 -34.920000000000002 -4.9000000000000004 -0.035000000000000003 -0.098015463940962347 0.99518489178063674 0 
1 -34.941313999999998 -4.7928490000000004 -0.035000000000000003 0 0 1 
1 -34.925379999999997 -4.8453749999999998 -0.035000000000000003 -0.29029155234022513 0.95693825017077372 0 
1 -34.950000000000003 -4.776599 -0.035000000000000003 0 0 1 
1 -34.941313999999998 -4.7928490000000004 -0.035000000000000003 -0.47140492761820479 0.88191688622980513 0 
1 -34.950000000000003 -4.6501000000000001 -0.035000000000000003 0 0 1 
1 -34.950000000000003 -4.776599 -0.035000000000000003 0 1 0 
1 -34.9499 -4.6501000000000001 -0.035000000000000003 0 0 1 
1 -34.950000000000003 -4.6501000000000001 -0.035000000000000003 1 0 0 
1 -34.9499 -4.6500000000000004 -0.035000000000000003 0 0 1 
1 -34.9499 -4.6501000000000001 -0.035000000000000003 0 1 0 
1 -34.823400999999997 -4.6500000000000004 -0.035000000000000003 0 0 1 
1 -34.9499 -4.6500000000000004 -0.035000000000000003 1 0 0 
1 -34.807150999999998 -4.6586860000000003 -0.035000000000000003 0 0 1 
1 -34.823400999999997 -4.6500000000000004 -0.035000000000000003 0.88191688622989461 -0.47140492761803737 0 
1 -34.754624999999997 -4.67462 -0.035000000000000003 0 0 1 
1 -34.807150999999998 -4.6586860000000003 -0.035000000000000003 0.95693825017078404 -0.29029155234019099 0 
1 -34.700000000000003 -4.6799999999999997 -0.035000000000000003 0 0 1 
1 -34.754624999999997 -4.67462 -0.035000000000000003 0.99518489178062786 -0.098015463941053538 0 
1 -34.645375000000001 -4.67462 -0.035000000000000003 0 0 1 
1 -34.700000000000003 -4.6799999999999997 -0.035000000000000003 0.99518489178062919 0.098015463941040909 0 
1 -34.592849000000001 -4.6586860000000003 -0.035000000000000003 0 0 1 
1 -34.645375000000001 -4.67462 -0.035000000000000003 0.95693825017078404 0.29029155234019099 0 
1 -34.592849000000001 -4.6586860000000003 -0.035000000000000003 0.88191688622989461 0.47140492761803737 0 
Polygon3D 0
PolygonOnTriangulations 0
Surfaces 73
1 -35.700000000000003 -3.8999999999999999 -0.035000000000000003 1 0 -0 0 -1 0 0 -0 -1 
1 -35.700000000000003 -5.4000000000000004 -0.035000000000000003 0 1 0 1 0 0 0 0 -1 
1 -34.200000000000003 -5.4000000000000004 -0.035000000000000003 -1 0 0 0 1 0 0 0 -1 
1 -34.200000000000003 -3.8999999999999999 -0.035000000000000003 0 -1 0 -1 0 0 -0 -0 -1 
1 -34.576599000000002 -4.6500000000000004 -0.035000000000000003 0 1 0 1 0 0 0 0 -1 
1 -34.450000000000003 -4.6500000000000004 -0.035000000000000003 -1 0 0 0 1 0 0 0 -1 
1 -34.450000000000003 -4.5234009999999998 -0.035000000000000003 -0.88191688622979447 0.47140492761822489 0 0.47140492761822489 0.88191688622979447 0 0 0 -1 
1 -34.441313999999998 -4.5071510000000004 -0.035000000000000003 -0.95693825017077505 0.29029155234022064 0 0.29029155234022064 0.95693825017077505 0 0 0 -1 
1 -34.425379999999997 -4.4546250000000001 -0.035000000000000003 -0.99518489178063674 0.098015463940963943 0 0.098015463940963943 0.99518489178063674 0 0 0 -1 
1 -34.420000000000002 -4.4000000000000004 -0.035000000000000003 -0.99518489178063685 -0.098015463940962361 0 -0.098015463940962361 0.99518489178063685 0 -0 0 -1 
1 -34.425379999999997 -4.3453749999999998 -0.035000000000000003 -0.95693825017077372 -0.29029155234022513 0 -0.29029155234022513 0.95693825017077372 0 -0 0 -1 
1 -34.441313999999998 -4.2928490000000004 -0.035000000000000003 -0.88191688622980513 -0.47140492761820479 0 -0.47140492761820479 0.88191688622980513 0 -0 0 -1 
1 -34.450000000000003 -4.276599 -0.035000000000000003 -1 0 0 0 1 0 0 0 -1 
1 -34.450000000000003 -4.1500000000000004 -0.035000000000000003 0 -1 0 -1 0 0 -0 -0 -1 
1 -34.576599000000002 -4.1500000000000004 -0.035000000000000003 -0.47140492761803743 -0.88191688622989473 0 -0.88191688622989473 0.47140492761803743 0 -0 0 -1 
1 -34.592849000000001 -4.1413140000000004 -0.035000000000000003 -0.29029155234020582 -0.9569382501707796 0 -0.9569382501707796 0.29029155234020582 0 -0 0 -1 
1 -34.645375000000001 -4.1253799999999998 -0.035000000000000003 -0.098015463941040909 -0.99518489178062919 0 -0.99518489178062919 0.098015463941040909 0 -0 0 -1 
1 -34.700000000000003 -4.1200000000000001 -0.035000000000000003 0.098015463941053538 -0.99518489178062786 0 -0.99518489178062786 -0.098015463941053538 0 0 -0 -1 
1 -34.754624999999997 -4.1253799999999998 -0.035000000000000003 0.29029155234020582 -0.9569382501707796 0 -0.9569382501707796 -0.29029155234020582 0 0 -0 -1 
1 -34.807150999999998 -4.1413140000000004 -0.035000000000000003 0.47140492761803743 -0.88191688622989473 0 -0.88191688622989473 -0.47140492761803743 0 0 -0 -1 
1 -34.823400999999997 -4.1500000000000004 -0.035000000000000003 0 -1 0 -1 0 0 -0 -0 -1 
1 -34.950000000000003 -4.1500000000000004 -0.035000000000000003 1 0 -0 0 -1 0 0 -0 -1 
1 -34.950000000000003 -4.276599 -0.035000000000000003 0.88191688622996545 -0.47140492761790487 0 -0.47140492761790487 -0.88191688622996545 0 0 -0 -1 
1 -34.958686 -4.2928490000000004 -0.035000000000000003 0.95693825017077372 -0.29029155234022513 0 -0.29029155234022513 -0.95693825017077372 0 0 -0 -1 
1 -34.974620000000002 -4.3453749999999998 -0.035000000000000003 0.99518489178063685 -0.098015463940962361 0 -0.098015463940962361 -0.99518489178063685 0 0 -0 -1 
1 -34.979999999999997 -4.4000000000000004 -0.035000000000000003 0.99518489178063674 0.098015463940963943 -0 0.098015463940963943 -0.99518489178063674 0 0 -0 -1 
1 -34.974620000000002 -4.4546250000000001 -0.035000000000000003 0.95693825017077505 0.29029155234022064 -0 0.29029155234022064 -0.95693825017077505 0 0 -0 -1 
1 -34.958686 -4.5071510000000004 -0.035000000000000003 0.88191688622995479 0.47140492761792496 -0 0.47140492761792496 -0.88191688622995479 0 0 -0 -1 
1 -34.950000000000003 -4.5234009999999998 -0.035000000000000003 1 0 -0 0 -1 0 0 -0 -1 
1 -34.950000000000003 -4.6499000000000006 -0.035000000000000003 0 -1 0 -1 0 0 -0 -0 -1 
1 -34.950100000000006 -4.6499000000000006 -0.035000000000000003 1 0 -0 0 -1 0 0 -0 -1 
1 -34.950100000000006 -4.6500000000000004 -0.035000000000000003 0 -1 0 -1 0 0 -0 -0 -1 
1 -35.076599000000002 -4.6500000000000004 -0.035000000000000003 -0.47140492761803743 -0.88191688622989473 0 -0.88191688622989473 0.47140492761803743 0 -0 0 -1 
1 -35.092849000000001 -4.6413140000000004 -0.035000000000000003 -0.29029155234020582 -0.9569382501707796 0 -0.9569382501707796 0.29029155234020582 0 -0 0 -1 
1 -35.145375000000001 -4.6253799999999998 -0.035000000000000003 -0.098015463941040909 -0.99518489178062919 0 -0.99518489178062919 0.098015463941040909 0 -0 0 -1 
1 -35.200000000000003 -4.6200000000000001 -0.035000000000000003 0.098015463941053538 -0.99518489178062786 0 -0.99518489178062786 -0.098015463941053538 0 0 -0 -1 
1 -35.254624999999997 -4.6253799999999998 -0.035000000000000003 0.29029155234020582 -0.9569382501707796 0 -0.9569382501707796 -0.29029155234020582 0 0 -0 -1 
1 -35.307150999999998 -4.6413140000000004 -0.035000000000000003 0.47140492761803743 -0.88191688622989473 0 -0.88191688622989473 -0.47140492761803743 0 0 -0 -1 
1 -35.323400999999997 -4.6500000000000004 -0.035000000000000003 0 -1 0 -1 0 0 -0 -0 -1 
1 -35.450000000000003 -4.6500000000000004 -0.035000000000000003 1 0 -0 0 -1 0 0 -0 -1 
1 -35.450000000000003 -4.776599 -0.035000000000000003 0.88191688622996545 -0.47140492761790487 0 -0.47140492761790487 -0.88191688622996545 0 0 -0 -1 
1 -35.458686 -4.7928490000000004 -0.035000000000000003 0.95693825017077372 -0.29029155234022513 0 -0.29029155234022513 -0.95693825017077372 0 0 -0 -1 
1 -35.474620000000002 -4.8453749999999998 -0.035000000000000003 0.99518489178063685 -0.098015463940962361 0 -0.098015463940962361 -0.99518489178063685 0 0 -0 -1 
1 -35.479999999999997 -4.9000000000000004 -0.035000000000000003 0.99518489178063674 0.098015463940963943 -0 0.098015463940963943 -0.99518489178063674 0 0 -0 -1 
1 -35.474620000000002 -4.9546250000000001 -0.035000000000000003 0.95693825017077505 0.29029155234022064 -0 0.29029155234022064 -0.95693825017077505 0 0 -0 -1 
1 -35.458686 -5.0071510000000004 -0.035000000000000003 0.88191688622995479 0.47140492761792496 -0 0.47140492761792496 -0.88191688622995479 0 0 -0 -1 
1 -35.450000000000003 -5.0234009999999998 -0.035000000000000003 1 0 -0 0 -1 0 0 -0 -1 
1 -35.450000000000003 -5.1500000000000004 -0.035000000000000003 0 1 0 1 0 0 0 0 -1 
1 -35.323400999999997 -5.1500000000000004 -0.035000000000000003 0.47140492761803743 0.88191688622989473 -0 0.88191688622989473 -0.47140492761803743 0 0 -0 -1 
1 -35.307150999999998 -5.1586860000000003 -0.035000000000000003 0.29029155234019099 0.95693825017078404 -0 0.95693825017078404 -0.29029155234019099 0 0 -0 -1 
1 -35.254624999999997 -5.17462 -0.035000000000000003 0.098015463941053538 0.99518489178062786 -0 0.99518489178062786 -0.098015463941053538 0 0 -0 -1 
1 -35.200000000000003 -5.1799999999999997 -0.035000000000000003 -0.098015463941040909 0.99518489178062919 0 0.99518489178062919 0.098015463941040909 0 0 0 -1 
1 -35.145375000000001 -5.17462 -0.035000000000000003 -0.29029155234019099 0.95693825017078404 0 0.95693825017078404 0.29029155234019099 0 0 0 -1 
1 -35.092849000000001 -5.1586860000000003 -0.035000000000000003 -0.47140492761803743 0.88191688622989473 0 0.88191688622989473 0.47140492761803743 0 0 0 -1 
1 -35.076599000000002 -5.1500000000000004 -0.035000000000000003 0 1 0 1 0 0 0 0 -1 
1 -34.950000000000003 -5.1500000000000004 -0.035000000000000003 -1 0 0 0 1 0 0 0 -1 
1 -34.950000000000003 -5.0234009999999998 -0.035000000000000003 -0.88191688622979447 0.47140492761822489 0 0.47140492761822489 0.88191688622979447 0 0 0 -1 
1 -34.941313999999998 -5.0071510000000004 -0.035000000000000003 -0.95693825017077505 0.29029155234022064 0 0.29029155234022064 0.95693825017077505 0 0 0 -1 
1 -34.925379999999997 -4.9546250000000001 -0.035000000000000003 -0.99518489178063674 0.098015463940963943 0 0.098015463940963943 0.99518489178063674 0 0 0 -1 
1 -34.920000000000002 -4.9000000000000004 -0.035000000000000003 -0.99518489178063685 -0.098015463940962361 0 -0.098015463940962361 0.99518489178063685 0 -0 0 -1 
1 -34.925379999999997 -4.8453749999999998 -0.035000000000000003 -0.95693825017077372 -0.29029155234022513 0 -0.29029155234022513 0.95693825017077372 0 -0 0 -1 
1 -34.941313999999998 -4.7928490000000004 -0.035000000000000003 -0.88191688622980513 -0.47140492761820479 0 -0.47140492761820479 0.88191688622980513 0 -0 0 -1 
1 -34.950000000000003 -4.776599 -0.035000000000000003 -1 0 0 0 1 0 0 0 -1 
1 -34.950000000000003 -4.6501000000000001 -0.035000000000000003 0 1 0 1 0 0 0 0 -1 
1 -34.9499 -4.6501000000000001 -0.035000000000000003 -1 0 0 0 1 0 0 0 -1 
1 -34.9499 -4.6500000000000004 -0.035000000000000003 0 1 0 1 0 0 0 0 -1 
1 -34.823400999999997 -4.6500000000000004 -0.035000000000000003 0.47140492761803743 0.88191688622989473 -0 0.88191688622989473 -0.47140492761803743 0 0 -0 -1 
1 -34.807150999999998 -4.6586860000000003 -0.035000000000000003 0.29029155234019099 0.95693825017078404 -0 0.95693825017078404 -0.29029155234019099 0 0 -0 -1 
1 -34.754624999999997 -4.67462 -0.035000000000000003 0.098015463941053538 0.99518489178062786 -0 0.99518489178062786 -0.098015463941053538 0 0 -0 -1 
1 -34.700000000000003 -4.6799999999999997 -0.035000000000000003 -0.098015463941040909 0.99518489178062919 0 0.99518489178062919 0.098015463941040909 0 0 0 -1 
1 -34.645375000000001 -4.67462 -0.035000000000000003 -0.29029155234019099 0.95693825017078404 0 0.95693825017078404 0.29029155234019099 0 0 0 -1 
1 -34.592849000000001 -4.6586860000000003 -0.035000000000000003 -0.47140492761803743 0.88191688622989473 0 0.88191688622989473 0.47140492761803743 0 0 0 -1 
1 -34.950000000000003 -4.6500000000000004 -0.034999999999999996 0 0 1 1 0 -0 -0 1 0 
Triangulations 0

TShapes 366
Ve
1e-07
-35.7 -3.9 -0.035
0 0

0101101
*
Ed
 1e-07 1 1 0
1  1 0 0 0.035
0

0101000
+366 0 -366 1 *
Ve
1e-07
-35.7 -5.4 -0.035
0 0

0101101
*
Ed
 1e-07 1 1 0
1  2 0 0 0.035
0

0101000
+364 0 -364 1 *
Ed
 1e-07 1 1 0
1  3 0 0 1.5
0

0101000
+366 0 -364 0 *
Wi

0101100
+365 0 -363 0 -362 0 +362 1 *
Fa
0  1e-07 1 0

0101000
+361 0 *
Ve
1e-07
-34.2 -5.4 -0.035
0 0

0101101
*
Ed
 1e-07 1 1 0
1  4 0 0 0.035
0

0101000
+359 0 -359 1 *
Ed
 1e-07 1 1 0
1  5 0 0 1.5
0

0101000
+364 0 -359 0 *
Wi

0101100
+363 0 -358 0 -357 0 +357 1 *
Fa
0  1e-07 2 0

0101000
+356 0 *
Ve
1e-07
-34.2 -3.9 -0.035
0 0

0101101
*
Ed
 1e-07 1 1 0
1  6 0 0 0.035
0

0101000
+354 0 -354 1 *
Ed
 1e-07 1 1 0
1  7 0 0 1.5
0

0101000
+359 0 -354 0 *
Wi

0101100
+358 0 -353 0 -352 0 +352 1 *
Fa
0  1e-07 3 0

0101000
+351 0 *
Ed
 1e-07 1 1 0
1  8 0 0 1.5
0

0101000
+354 0 -366 0 *
Wi

0101100
+353 0 -365 0 -349 0 +349 1 *
Fa
0  1e-07 4 0

0101000
+348 0 *
Ve
1e-07
-34.576599 -4.65 -0.035
0 0

0101101
*
Ed
 1e-07 1 1 0
1  9 0 0 0.035
0

0101000
+346 0 -346 1 *
Ve
1e-07
-34.45 -4.65 -0.035
0 0

0101101
*
Ed
 1e-07 1 1 0
1  10 0 0 0.035
0

0101000
+344 0 -344 1 *
Ed
 1e-07 1 1 0
1  11 0 0 0.126598999999999
0

0101000
+346 0 -344 0 *
Wi

0101100
+345 0 -343 0 -342 0 +342 1 *
Fa
0  1e-07 5 0

0101000
+341 0 *
Ve
1e-07
-34.45 -4.523401 -0.035
0 0

0101101
*
Ed
 1e-07 1 1 0
1  12 0 0 0.035
0

0101000
+339 0 -339 1 *
Ed
 1e-07 1 1 0
1  13 0 0 0.126599000000001
0

0101000
+344 0 -339 0 *
Wi

0101100
+343 0 -338 0 -337 0 +337 1 *
Fa
0  1e-07 6 0

0101000
+336 0 *
Ve
1e-07
-34.441314 -4.507151 -0.035
0 0

0101101
*
Ed
 1e-07 1 1 0
1  14 0 0 0.035
0

0101000
+334 0 -334 1 *
Ed
 1e-07 1 1 0
1  15 0 0 0.0184257726025276
0

0101000
+339 0 -334 0 *
Wi

0101100
+338 0 -333 0 -332 0 +332 1 *
Fa
0  1e-07 7 0

0101000
+331 0 *
Ve
1e-07
-34.42538 -4.454625 -0.035
0 0

0101101
*
Ed
 1e-07 1 1 0
1  16 0 0 0.035
0

0101000
+329 0 -329 1 *
Ed
 1e-07 1 1 0
1  17 0 0 0.0548896441234599
0

0101000
+334 0 -329 0 *
Wi

0101100
+333 0 -328 0 -327 0 +327 1 *
Fa
0  1e-07 8 0

0101000
+326 0 *
Ve
1e-07
-34.42 -4.4 -0.035
0 0

0101101
*
Ed
 1e-07 1 1 0
1  18 0 0 0.035
0

0101000
+324 0 -324 1 *
Ed
 1e-07 1 1 0
1  19 0 0 0.0548892979095189
0

0101000
+329 0 -324 0 *
Wi

0101100
+328 0 -323 0 -322 0 +322 1 *
Fa
0  1e-07 9 0

0101000
+321 0 *
Ve
1e-07
-34.42538 -4.345375 -0.035
0 0

0101101
*
Ed
 1e-07 1 1 0
1  20 0 0 0.035
0

0101000
+319 0 -319 1 *
Ed
 1e-07 1 1 0
1  21 0 0 0.0548892979095198
0

0101000
+324 0 -319 0 *
Wi

0101100
+323 0 -318 0 -317 0 +317 1 *
Fa
0  1e-07 10 0

0101000
+316 0 *
Ve
1e-07
-34.441314 -4.292849 -0.035
0 0

0101101
*
Ed
 1e-07 1 1 0
1  22 0 0 0.035
0

0101000
+314 0 -314 1 *
Ed
 1e-07 1 1 0
1  23 0 0 0.0548896441234591
0

0101000
+319 0 -314 0 *
Wi

0101100
+318 0 -313 0 -312 0 +312 1 *
Fa
0  1e-07 11 0

0101000
+311 0 *
Ve
1e-07
-34.45 -4.276599 -0.035
0 0

0101101
*
Ed
 1e-07 1 1 0
1  24 0 0 0.035
0

0101000
+309 0 -309 1 *
Ed
 1e-07 1 1 0
1  25 0 0 0.0184257726025284
0

0101000
+314 0 -309 0 *
Wi

0101100
+313 0 -308 0 -307 0 +307 1 *
Fa
0  1e-07 12 0

0101000
+306 0 *
Ve
1e-07
-34.45 -4.15 -0.035
0 0

0101101
*
Ed
 1e-07 1 1 0
1  26 0 0 0.035
0

0101000
+304 0 -304 1 *
Ed
 1e-07 1 1 0
1  27 0 0 0.126599
0

0101000
+309 0 -304 0 *
Wi

0101100
+308 0 -303 0 -302 0 +302 1 *
Fa
0  1e-07 13 0

0101000
+301 0 *
Ve
1e-07
-34.576599 -4.15 -0.035
0 0

0101101
*
Ed
 1e-07 1 1 0
1  28 0 0 0.035
0

0101000
+299 0 -299 1 *
Ed
 1e-07 1 1 0
1  29 0 0 0.126598999999999
0

0101000
+304 0 -299 0 *
Wi

0101100
+303 0 -298 0 -297 0 +297 1 *
Fa
0  1e-07 14 0

0101000
+296 0 *
Ve
1e-07
-34.592849 -4.141314 -0.035
0 0

0101101
*
Ed
 1e-07 1 1 0
1  30 0 0 0.035
0

0101000
+294 0 -294 1 *
Ed
 1e-07 1 1 0
1  31 0 0 0.0184257726025255
0

0101000
+299 0 -294 0 *
Wi

0101100
+298 0 -293 0 -292 0 +292 1 *
Fa
0  1e-07 15 0

0101000
+291 0 *
Ve
1e-07
-34.645375 -4.12538 -0.035
0 0

0101101
*
Ed
 1e-07 1 1 0
1  32 0 0 0.035
0

0101000
+289 0 -289 1 *
Ed
 1e-07 1 1 0
1  33 0 0 0.0548896441234597
0

0101000
+294 0 -289 0 *
Wi

0101100
+293 0 -288 0 -287 0 +287 1 *
Fa
0  1e-07 16 0

0101000
+286 0 *
Ve
1e-07
-34.7 -4.12 -0.035
0 0

0101101
*
Ed
 1e-07 1 1 0
1  34 0 0 0.035
0

0101000
+284 0 -284 1 *
Ed
 1e-07 1 1 0
1  35 0 0 0.0548892979095211
0

0101000
+289 0 -284 0 *
Wi

0101100
+288 0 -283 0 -282 0 +282 1 *
Fa
0  1e-07 17 0

0101000
+281 0 *
Ve
1e-07
-34.754625 -4.12538 -0.035
0 0

0101101
*
Ed
 1e-07 1 1 0
1  36 0 0 0.035
0

0101000
+279 0 -279 1 *
Ed
 1e-07 1 1 0
1  37 0 0 0.054889297909514
0

0101000
+284 0 -279 0 *
Wi

0101100
+283 0 -278 0 -277 0 +277 1 *
Fa
0  1e-07 18 0

0101000
+276 0 *
Ve
1e-07
-34.807151 -4.141314 -0.035
0 0

0101101
*
Ed
 1e-07 1 1 0
1  38 0 0 0.035
0

0101000
+274 0 -274 1 *
Ed
 1e-07 1 1 0
1  39 0 0 0.0548896441234597
0

0101000
+279 0 -274 0 *
Wi

0101100
+278 0 -273 0 -272 0 +272 1 *
Fa
0  1e-07 19 0

0101000
+271 0 *
Ve
1e-07
-34.823401 -4.15 -0.035
0 0

0101101
*
Ed
 1e-07 1 1 0
1  40 0 0 0.035
0

0101000
+269 0 -269 1 *
Ed
 1e-07 1 1 0
1  41 0 0 0.0184257726025255
0

0101000
+274 0 -269 0 *
Wi

0101100
+273 0 -268 0 -267 0 +267 1 *
Fa
0  1e-07 20 0

0101000
+266 0 *
Ve
1e-07
-34.95 -4.15 -0.035
0 0

0101101
*
Ed
 1e-07 1 1 0
1  42 0 0 0.035
0

0101000
+264 0 -264 1 *
Ed
 1e-07 1 1 0
1  43 0 0 0.126599000000006
0

0101000
+269 0 -264 0 *
Wi

0101100
+268 0 -263 0 -262 0 +262 1 *
Fa
0  1e-07 21 0

0101000
+261 0 *
Ve
1e-07
-34.95 -4.276599 -0.035
0 0

0101101
*
Ed
 1e-07 1 1 0
1  44 0 0 0.035
0

0101000
+259 0 -259 1 *
Ed
 1e-07 1 1 0
1  45 0 0 0.126599
0

0101000
+264 0 -259 0 *
Wi

0101100
+263 0 -258 0 -257 0 +257 1 *
Fa
0  1e-07 22 0

0101000
+256 0 *
Ve
1e-07
-34.958686 -4.292849 -0.035
0 0

0101101
*
Ed
 1e-07 1 1 0
1  46 0 0 0.035
0

0101000
+254 0 -254 1 *
Ed
 1e-07 1 1 0
1  47 0 0 0.0184257726025251
0

0101000
+259 0 -254 0 *
Wi

0101100
+258 0 -253 0 -252 0 +252 1 *
Fa
0  1e-07 23 0

0101000
+251 0 *
Ve
1e-07
-34.97462 -4.345375 -0.035
0 0

0101101
*
Ed
 1e-07 1 1 0
1  48 0 0 0.035
0

0101000
+249 0 -249 1 *
Ed
 1e-07 1 1 0
1  49 0 0 0.0548896441234591
0

0101000
+254 0 -249 0 *
Wi

0101100
+253 0 -248 0 -247 0 +247 1 *
Fa
0  1e-07 24 0

0101000
+246 0 *
Ve
1e-07
-34.98 -4.4 -0.035
0 0

0101101
*
Ed
 1e-07 1 1 0
1  50 0 0 0.035
0

0101000
+244 0 -244 1 *
Ed
 1e-07 1 1 0
1  51 0 0 0.0548892979095198
0

0101000
+249 0 -244 0 *
Wi

0101100
+248 0 -243 0 -242 0 +242 1 *
Fa
0  1e-07 25 0

0101000
+241 0 *
Ve
1e-07
-34.97462 -4.454625 -0.035
0 0

0101101
*
Ed
 1e-07 1 1 0
1  52 0 0 0.035
0

0101000
+239 0 -239 1 *
Ed
 1e-07 1 1 0
1  53 0 0 0.0548892979095189
0

0101000
+244 0 -239 0 *
Wi

0101100
+243 0 -238 0 -237 0 +237 1 *
Fa
0  1e-07 26 0

0101000
+236 0 *
Ve
1e-07
-34.958686 -4.507151 -0.035
0 0

0101101
*
Ed
 1e-07 1 1 0
1  54 0 0 0.035
0

0101000
+234 0 -234 1 *
Ed
 1e-07 1 1 0
1  55 0 0 0.0548896441234599
0

0101000
+239 0 -234 0 *
Wi

0101100
+238 0 -233 0 -232 0 +232 1 *
Fa
0  1e-07 27 0

0101000
+231 0 *
Ve
1e-07
-34.95 -4.523401 -0.035
0 0

0101101
*
Ed
 1e-07 1 1 0
1  56 0 0 0.035
0

0101000
+229 0 -229 1 *
Ed
 1e-07 1 1 0
1  57 0 0 0.0184257726025243
0

0101000
+234 0 -229 0 *
Wi

0101100
+233 0 -228 0 -227 0 +227 1 *
Fa
0  1e-07 28 0

0101000
+226 0 *
Ve
1e-07
-34.95 -4.6499 -0.035
0 0

0101101
*
Ed
 1e-07 1 1 0
1  58 0 0 0.035
0

0101000
+224 0 -224 1 *
Ed
 1e-07 1 1 0
1  59 0 0 0.126499000000001
0

0101000
+229 0 -224 0 *
Wi

0101100
+228 0 -223 0 -222 0 +222 1 *
Fa
0  1e-07 29 0

0101000
+221 0 *
Ve
1e-07
-34.9501 -4.6499 -0.035
0 0

0101101
*
Ed
 1e-07 1 1 0
1  60 0 0 0.035
0

0101000
+219 0 -219 1 *
Ed
 1e-07 1 1 0
1  61 0 0 0.00010000000000332
0

0101000
+224 0 -219 0 *
Wi

0101100
+223 0 -218 0 -217 0 +217 1 *
Fa
0  1e-07 30 0

0101000
+216 0 *
Ve
1e-07
-34.9501 -4.65 -0.035
0 0

0101101
*
Ed
 1e-07 1 1 0
1  62 0 0 0.035
0

0101000
+214 0 -214 1 *
Ed
 1e-07 1 1 0
1  63 0 0 9.99999999997669e-05
0

0101000
+219 0 -214 0 *
Wi

0101100
+218 0 -213 0 -212 0 +212 1 *
Fa
0  1e-07 31 0

0101000
+211 0 *
Ve
1e-07
-35.076599 -4.65 -0.035
0 0

0101101
*
Ed
 1e-07 1 1 0
1  64 0 0 0.035
0

0101000
+209 0 -209 1 *
Ed
 1e-07 1 1 0
1  65 0 0 0.126498999999995
0

0101000
+214 0 -209 0 *
Wi

0101100
+213 0 -208 0 -207 0 +207 1 *
Fa
0  1e-07 32 0

0101000
+206 0 *
Ve
1e-07
-35.092849 -4.641314 -0.035
0 0

0101101
*
Ed
 1e-07 1 1 0
1  66 0 0 0.035
0

0101000
+204 0 -204 1 *
Ed
 1e-07 1 1 0
1  67 0 0 0.0184257726025255
0

0101000
+209 0 -204 0 *
Wi

0101100
+208 0 -203 0 -202 0 +202 1 *
Fa
0  1e-07 33 0

0101000
+201 0 *
Ve
1e-07
-35.145375 -4.62538 -0.035
0 0

0101101
*
Ed
 1e-07 1 1 0
1  68 0 0 0.035
0

0101000
+199 0 -199 1 *
Ed
 1e-07 1 1 0
1  69 0 0 0.0548896441234597
0

0101000
+204 0 -199 0 *
Wi

0101100
+203 0 -198 0 -197 0 +197 1 *
Fa
0  1e-07 34 0

0101000
+196 0 *
Ve
1e-07
-35.2 -4.62 -0.035
0 0

0101101
*
Ed
 1e-07 1 1 0
1  70 0 0 0.035
0

0101000
+194 0 -194 1 *
Ed
 1e-07 1 1 0
1  71 0 0 0.0548892979095211
0

0101000
+199 0 -194 0 *
Wi

0101100
+198 0 -193 0 -192 0 +192 1 *
Fa
0  1e-07 35 0

0101000
+191 0 *
Ve
1e-07
-35.254625 -4.62538 -0.035
0 0

0101101
*
Ed
 1e-07 1 1 0
1  72 0 0 0.035
0

0101000
+189 0 -189 1 *
Ed
 1e-07 1 1 0
1  73 0 0 0.054889297909514
0

0101000
+194 0 -189 0 *
Wi

0101100
+193 0 -188 0 -187 0 +187 1 *
Fa
0  1e-07 36 0

0101000
+186 0 *
Ve
1e-07
-35.307151 -4.641314 -0.035
0 0

0101101
*
Ed
 1e-07 1 1 0
1  74 0 0 0.035
0

0101000
+184 0 -184 1 *
Ed
 1e-07 1 1 0
1  75 0 0 0.0548896441234597
0

0101000
+189 0 -184 0 *
Wi

0101100
+188 0 -183 0 -182 0 +182 1 *
Fa
0  1e-07 37 0

0101000
+181 0 *
Ve
1e-07
-35.323401 -4.65 -0.035
0 0

0101101
*
Ed
 1e-07 1 1 0
1  76 0 0 0.035
0

0101000
+179 0 -179 1 *
Ed
 1e-07 1 1 0
1  77 0 0 0.0184257726025255
0

0101000
+184 0 -179 0 *
Wi

0101100
+183 0 -178 0 -177 0 +177 1 *
Fa
0  1e-07 38 0

0101000
+176 0 *
Ve
1e-07
-35.45 -4.65 -0.035
0 0

0101101
*
Ed
 1e-07 1 1 0
1  78 0 0 0.035
0

0101000
+174 0 -174 1 *
Ed
 1e-07 1 1 0
1  79 0 0 0.126599000000006
0

0101000
+179 0 -174 0 *
Wi

0101100
+178 0 -173 0 -172 0 +172 1 *
Fa
0  1e-07 39 0

0101000
+171 0 *
Ve
1e-07
-35.45 -4.776599 -0.035
0 0

0101101
*
Ed
 1e-07 1 1 0
1  80 0 0 0.035
0

0101000
+169 0 -169 1 *
Ed
 1e-07 1 1 0
1  81 0 0 0.126599
0

0101000
+174 0 -169 0 *
Wi

0101100
+173 0 -168 0 -167 0 +167 1 *
Fa
0  1e-07 40 0

0101000
+166 0 *
Ve
1e-07
-35.458686 -4.792849 -0.035
0 0

0101101
*
Ed
 1e-07 1 1 0
1  82 0 0 0.035
0

0101000
+164 0 -164 1 *
Ed
 1e-07 1 1 0
1  83 0 0 0.0184257726025251
0

0101000
+169 0 -164 0 *
Wi

0101100
+168 0 -163 0 -162 0 +162 1 *
Fa
0  1e-07 41 0

0101000
+161 0 *
Ve
1e-07
-35.47462 -4.845375 -0.035
0 0

0101101
*
Ed
 1e-07 1 1 0
1  84 0 0 0.035
0

0101000
+159 0 -159 1 *
Ed
 1e-07 1 1 0
1  85 0 0 0.0548896441234591
0

0101000
+164 0 -159 0 *
Wi

0101100
+163 0 -158 0 -157 0 +157 1 *
Fa
0  1e-07 42 0

0101000
+156 0 *
Ve
1e-07
-35.48 -4.9 -0.035
0 0

0101101
*
Ed
 1e-07 1 1 0
1  86 0 0 0.035
0

0101000
+154 0 -154 1 *
Ed
 1e-07 1 1 0
1  87 0 0 0.0548892979095198
0

0101000
+159 0 -154 0 *
Wi

0101100
+158 0 -153 0 -152 0 +152 1 *
Fa
0  1e-07 43 0

0101000
+151 0 *
Ve
1e-07
-35.47462 -4.954625 -0.035
0 0

0101101
*
Ed
 1e-07 1 1 0
1  88 0 0 0.035
0

0101000
+149 0 -149 1 *
Ed
 1e-07 1 1 0
1  89 0 0 0.0548892979095189
0

0101000
+154 0 -149 0 *
Wi

0101100
+153 0 -148 0 -147 0 +147 1 *
Fa
0  1e-07 44 0

0101000
+146 0 *
Ve
1e-07
-35.458686 -5.007151 -0.035
0 0

0101101
*
Ed
 1e-07 1 1 0
1  90 0 0 0.035
0

0101000
+144 0 -144 1 *
Ed
 1e-07 1 1 0
1  91 0 0 0.0548896441234599
0

0101000
+149 0 -144 0 *
Wi

0101100
+148 0 -143 0 -142 0 +142 1 *
Fa
0  1e-07 45 0

0101000
+141 0 *
Ve
1e-07
-35.45 -5.023401 -0.035
0 0

0101101
*
Ed
 1e-07 1 1 0
1  92 0 0 0.035
0

0101000
+139 0 -139 1 *
Ed
 1e-07 1 1 0
1  93 0 0 0.0184257726025243
0

0101000
+144 0 -139 0 *
Wi

0101100
+143 0 -138 0 -137 0 +137 1 *
Fa
0  1e-07 46 0

0101000
+136 0 *
Ve
1e-07
-35.45 -5.15 -0.035
0 0

0101101
*
Ed
 1e-07 1 1 0
1  94 0 0 0.035
0

0101000
+134 0 -134 1 *
Ed
 1e-07 1 1 0
1  95 0 0 0.126599000000001
0

0101000
+139 0 -134 0 *
Wi

0101100
+138 0 -133 0 -132 0 +132 1 *
Fa
0  1e-07 47 0

0101000
+131 0 *
Ve
1e-07
-35.323401 -5.15 -0.035
0 0

0101101
*
Ed
 1e-07 1 1 0
1  96 0 0 0.035
0

0101000
+129 0 -129 1 *
Ed
 1e-07 1 1 0
1  97 0 0 0.126599000000006
0

0101000
+134 0 -129 0 *
Wi

0101100
+133 0 -128 0 -127 0 +127 1 *
Fa
0  1e-07 48 0

0101000
+126 0 *
Ve
1e-07
-35.307151 -5.158686 -0.035
0 0

0101101
*
Ed
 1e-07 1 1 0
1  98 0 0 0.035
0

0101000
+124 0 -124 1 *
Ed
 1e-07 1 1 0
1  99 0 0 0.0184257726025255
0

0101000
+129 0 -124 0 *
Wi

0101100
+128 0 -123 0 -122 0 +122 1 *
Fa
0  1e-07 49 0

0101000
+121 0 *
Ve
1e-07
-35.254625 -5.17462 -0.035
0 0

0101101
*
Ed
 1e-07 1 1 0
1  100 0 0 0.035
0

0101000
+119 0 -119 1 *
Ed
 1e-07 1 1 0
1  101 0 0 0.0548896441234594
0

0101000
+124 0 -119 0 *
Wi

0101100
+123 0 -118 0 -117 0 +117 1 *
Fa
0  1e-07 50 0

0101000
+116 0 *
Ve
1e-07
-35.2 -5.18 -0.035
0 0

0101101
*
Ed
 1e-07 1 1 0
1  102 0 0 0.035
0

0101000
+114 0 -114 1 *
Ed
 1e-07 1 1 0
1  103 0 0 0.054889297909514
0

0101000
+119 0 -114 0 *
Wi

0101100
+118 0 -113 0 -112 0 +112 1 *
Fa
0  1e-07 51 0

0101000
+111 0 *
Ve
1e-07
-35.145375 -5.17462 -0.035
0 0

0101101
*
Ed
 1e-07 1 1 0
1  104 0 0 0.035
0

0101000
+109 0 -109 1 *
Ed
 1e-07 1 1 0
1  105 0 0 0.0548892979095211
0

0101000
+114 0 -109 0 *
Wi

0101100
+113 0 -108 0 -107 0 +107 1 *
Fa
0  1e-07 52 0

0101000
+106 0 *
Ve
1e-07
-35.092849 -5.158686 -0.035
0 0

0101101
*
Ed
 1e-07 1 1 0
1  106 0 0 0.035
0

0101000
+104 0 -104 1 *
Ed
 1e-07 1 1 0
1  107 0 0 0.0548896441234594
0

0101000
+109 0 -104 0 *
Wi

0101100
+108 0 -103 0 -102 0 +102 1 *
Fa
0  1e-07 53 0

0101000
+101 0 *
Ve
1e-07
-35.076599 -5.15 -0.035
0 0

0101101
*
Ed
 1e-07 1 1 0
1  108 0 0 0.035
0

0101000
+99 0 -99 1 *
Ed
 1e-07 1 1 0
1  109 0 0 0.0184257726025255
0

0101000
+104 0 -99 0 *
Wi

0101100
+103 0 -98 0 -97 0 +97 1 *
Fa
0  1e-07 54 0

0101000
+96 0 *
Ve
1e-07
-34.95 -5.15 -0.035
0 0

0101101
*
Ed
 1e-07 1 1 0
1  110 0 0 0.035
0

0101000
+94 0 -94 1 *
Ed
 1e-07 1 1 0
1  111 0 0 0.126598999999999
0

0101000
+99 0 -94 0 *
Wi

0101100
+98 0 -93 0 -92 0 +92 1 *
Fa
0  1e-07 55 0

0101000
+91 0 *
Ve
1e-07
-34.95 -5.023401 -0.035
0 0

0101101
*
Ed
 1e-07 1 1 0
1  112 0 0 0.035
0

0101000
+89 0 -89 1 *
Ed
 1e-07 1 1 0
1  113 0 0 0.126599000000001
0

0101000
+94 0 -89 0 *
Wi

0101100
+93 0 -88 0 -87 0 +87 1 *
Fa
0  1e-07 56 0

0101000
+86 0 *
Ve
1e-07
-34.941314 -5.007151 -0.035
0 0

0101101
*
Ed
 1e-07 1 1 0
1  114 0 0 0.035
0

0101000
+84 0 -84 1 *
Ed
 1e-07 1 1 0
1  115 0 0 0.0184257726025276
0

0101000
+89 0 -84 0 *
Wi

0101100
+88 0 -83 0 -82 0 +82 1 *
Fa
0  1e-07 57 0

0101000
+81 0 *
Ve
1e-07
-34.92538 -4.954625 -0.035
0 0

0101101
*
Ed
 1e-07 1 1 0
1  116 0 0 0.035
0

0101000
+79 0 -79 1 *
Ed
 1e-07 1 1 0
1  117 0 0 0.0548896441234599
0

0101000
+84 0 -79 0 *
Wi

0101100
+83 0 -78 0 -77 0 +77 1 *
Fa
0  1e-07 58 0

0101000
+76 0 *
Ve
1e-07
-34.92 -4.9 -0.035
0 0

0101101
*
Ed
 1e-07 1 1 0
1  118 0 0 0.035
0

0101000
+74 0 -74 1 *
Ed
 1e-07 1 1 0
1  119 0 0 0.0548892979095189
0

0101000
+79 0 -74 0 *
Wi

0101100
+78 0 -73 0 -72 0 +72 1 *
Fa
0  1e-07 59 0

0101000
+71 0 *
Ve
1e-07
-34.92538 -4.845375 -0.035
0 0

0101101
*
Ed
 1e-07 1 1 0
1  120 0 0 0.035
0

0101000
+69 0 -69 1 *
Ed
 1e-07 1 1 0
1  121 0 0 0.0548892979095198
0

0101000
+74 0 -69 0 *
Wi

0101100
+73 0 -68 0 -67 0 +67 1 *
Fa
0  1e-07 60 0

0101000
+66 0 *
Ve
1e-07
-34.941314 -4.792849 -0.035
0 0

0101101
*
Ed
 1e-07 1 1 0
1  122 0 0 0.035
0

0101000
+64 0 -64 1 *
Ed
 1e-07 1 1 0
1  123 0 0 0.0548896441234591
0

0101000
+69 0 -64 0 *
Wi

0101100
+68 0 -63 0 -62 0 +62 1 *
Fa
0  1e-07 61 0

0101000
+61 0 *
Ve
1e-07
-34.95 -4.776599 -0.035
0 0

0101101
*
Ed
 1e-07 1 1 0
1  124 0 0 0.035
0

0101000
+59 0 -59 1 *
Ed
 1e-07 1 1 0
1  125 0 0 0.0184257726025284
0

0101000
+64 0 -59 0 *
Wi

0101100
+63 0 -58 0 -57 0 +57 1 *
Fa
0  1e-07 62 0

0101000
+56 0 *
Ve
1e-07
-34.95 -4.6501 -0.035
0 0

0101101
*
Ed
 1e-07 1 1 0
1  126 0 0 0.035
0

0101000
+54 0 -54 1 *
Ed
 1e-07 1 1 0
1  127 0 0 0.126499
0

0101000
+59 0 -54 0 *
Wi

0101100
+58 0 -53 0 -52 0 +52 1 *
Fa
0  1e-07 63 0

0101000
+51 0 *
Ve
1e-07
-34.9499 -4.6501 -0.035
0 0

0101101
*
Ed
 1e-07 1 1 0
1  128 0 0 0.035
0

0101000
+49 0 -49 1 *
Ed
 1e-07 1 1 0
1  129 0 0 0.00010000000000332
0

0101000
+54 0 -49 0 *
Wi

0101100
+53 0 -48 0 -47 0 +47 1 *
Fa
0  1e-07 64 0

0101000
+46 0 *
Ve
1e-07
-34.9499 -4.65 -0.035
0 0

0101101
*
Ed
 1e-07 1 1 0
1  130 0 0 0.035
0

0101000
+44 0 -44 1 *
Ed
 1e-07 1 1 0
1  131 0 0 9.99999999997669e-05
0

0101000
+49 0 -44 0 *
Wi

0101100
+48 0 -43 0 -42 0 +42 1 *
Fa
0  1e-07 65 0

0101000
+41 0 *
Ve
1e-07
-34.823401 -4.65 -0.035
0 0

0101101
*
Ed
 1e-07 1 1 0
1  132 0 0 0.035
0

0101000
+39 0 -39 1 *
Ed
 1e-07 1 1 0
1  133 0 0 0.126499000000003
0

0101000
+44 0 -39 0 *
Wi

0101100
+43 0 -38 0 -37 0 +37 1 *
Fa
0  1e-07 66 0

0101000
+36 0 *
Ve
1e-07
-34.807151 -4.658686 -0.035
0 0

0101101
*
Ed
 1e-07 1 1 0
1  134 0 0 0.035
0

0101000
+34 0 -34 1 *
Ed
 1e-07 1 1 0
1  135 0 0 0.0184257726025255
0

0101000
+39 0 -34 0 *
Wi

0101100
+38 0 -33 0 -32 0 +32 1 *
Fa
0  1e-07 67 0

0101000
+31 0 *
Ve
1e-07
-34.754625 -4.67462 -0.035
0 0

0101101
*
Ed
 1e-07 1 1 0
1  136 0 0 0.035
0

0101000
+29 0 -29 1 *
Ed
 1e-07 1 1 0
1  137 0 0 0.0548896441234594
0

0101000
+34 0 -29 0 *
Wi

0101100
+33 0 -28 0 -27 0 +27 1 *
Fa
0  1e-07 68 0

0101000
+26 0 *
Ve
1e-07
-34.7 -4.68 -0.035
0 0

0101101
*
Ed
 1e-07 1 1 0
1  138 0 0 0.035
0

0101000
+24 0 -24 1 *
Ed
 1e-07 1 1 0
1  139 0 0 0.054889297909514
0

0101000
+29 0 -24 0 *
Wi

0101100
+28 0 -23 0 -22 0 +22 1 *
Fa
0  1e-07 69 0

0101000
+21 0 *
Ve
1e-07
-34.645375 -4.67462 -0.035
0 0

0101101
*
Ed
 1e-07 1 1 0
1  140 0 0 0.035
0

0101000
+19 0 -19 1 *
Ed
 1e-07 1 1 0
1  141 0 0 0.0548892979095211
0

0101000
+24 0 -19 0 *
Wi

0101100
+23 0 -18 0 -17 0 +17 1 *
Fa
0  1e-07 70 0

0101000
+16 0 *
Ve
1e-07
-34.592849 -4.658686 -0.035
0 0

0101101
*
Ed
 1e-07 1 1 0
1  142 0 0 0.035
0

0101000
+14 0 -14 1 *
Ed
 1e-07 1 1 0
1  143 0 0 0.0548896441234594
0

0101000
+19 0 -14 0 *
Wi

0101100
+18 0 -13 0 -12 0 +12 1 *
Fa
0  1e-07 71 0

0101000
+11 0 *
Ed
 1e-07 1 1 0
1  144 0 0 0.0184257726025255
0

0101000
+14 0 -346 0 *
Wi

0101100
+13 0 -345 0 -9 0 +9 1 *
Fa
0  1e-07 72 0

0101000
+8 0 *
Wi

0101100
+362 0 +357 0 +352 0 +349 0 *
Wi

0101100
+342 0 +337 0 +332 0 +327 0 +322 0 +317 0 +312 0 +307 0 +302 0 +297 0 
+292 0 +287 0 +282 0 +277 0 +272 0 +267 0 +262 0 +257 0 +252 0 +247 0 
+242 0 +237 0 +232 0 +227 0 +222 0 +217 0 +212 0 +207 0 +202 0 +197 0 
+192 0 +187 0 +182 0 +177 0 +172 0 +167 0 +162 0 +157 0 +152 0 +147 0 
+142 0 +137 0 +132 0 +127 0 +122 0 +117 0 +112 0 +107 0 +102 0 +97 0 
+92 0 +87 0 +82 0 +77 0 +72 0 +67 0 +62 0 +57 0 +52 0 +47 0 
+42 0 +37 0 +32 0 +27 0 +22 0 +17 0 +12 0 +9 0 *
Fa
0  1e-07 73 0

0111000
+6 0 -5 0 *
Sh

0101100
+360 0 +355 0 +350 0 +347 0 -340 0 -335 0 -330 0 -325 0 -320 0 -315 0 
-310 0 -305 0 -300 0 -295 0 -290 0 -285 0 -280 0 -275 0 -270 0 -265 0 
-260 0 -255 0 -250 0 -245 0 -240 0 -235 0 -230 0 -225 0 -220 0 -215 0 
-210 0 -205 0 -200 0 -195 0 -190 0 -185 0 -180 0 -175 0 -170 0 -165 0 
-160 0 -155 0 -150 0 -145 0 -140 0 -135 0 -130 0 -125 0 -120 0 -115 0 
-110 0 -105 0 -100 0 -95 0 -90 0 -85 0 -80 0 -75 0 -70 0 -65 0 
-60 0 -55 0 -50 0 -45 0 -40 0 -35 0 -30 0 -25 0 -20 0 -15 0 
-10 0 -7 0 +4 0 -4 1 *
So

0100000
-3 0 *
Co

1100000
+2 0 *

+1 0 