DBRep_DrawableShape

CASCADE Topology V1, (c) Matra-Datavision
Locations 1
1
              1               0               0               0 
              0               1               0               0 
              0               0               1 0.0349999999999999 
Curve2ds 0
Curves 300
1 7.4252799999999999 1.0833360000000001 1.4942 0 0 1 
1 7.4114180000000003 1.0574030000000001 1.4942 0 0 1 
1 7.4252799999999999 1.0833360000000001 1.4942 -0.47141056271879955 -0.88191387411534961 0 
1 7.402882 1.029264 1.4942 0 0 1 
1 7.4114180000000003 1.0574030000000001 1.4942 -0.29028865313996705 -0.95693912965150707 0 
1 7.4000000000000004 1 1.4942 0 0 1 
1 7.402882 1.029264 1.4942 -0.098008638444579382 -0.99518556399811164 0 
1 7.402882 0.97073600000000004 1.4942 0 0 1 
1 7.4000000000000004 1 1.4942 0.098008638444579382 -0.99518556399811164 0 
1 7.4114180000000003 0.94259700000000002 1.4942 0 0 1 
1 7.402882 0.97073600000000004 1.4942 0.29028865313996804 -0.95693912965150674 0 
1 7.4252799999999999 0.91666400000000003 1.4942 0 0 1 
1 7.4114180000000003 0.94259700000000002 1.4942 0.47141056271879955 -0.88191387411534961 0 
1 7.4439339999999996 0.89393400000000001 1.4942 0 0 1 
1 7.4252799999999999 0.91666400000000003 1.4942 0.63439269655481367 -0.77301093560046874 0 
1 7.4666639999999997 0.87527999999999995 1.4942 0 0 1 
1 7.4439339999999996 0.89393400000000001 1.4942 0.77301093560046474 -0.63439269655481867 0 
1 7.492597 0.86141800000000002 1.4942 0 0 1 
1 7.4666639999999997 0.87527999999999995 1.4942 0.88191387411534672 -0.47141056271880527 0 
1 7.5207360000000003 0.85288200000000003 1.4942 0 0 1 
1 7.492597 0.86141800000000002 1.4942 0.95693912965151096 -0.29028865313995456 0 
1 7.5499999999999998 0.84999999999999998 1.4942 0 0 1 
1 7.5207360000000003 0.85288200000000003 1.4942 0.99518556399811009 -0.098008638444595814 0 
1 7.5792640000000002 0.85288200000000003 1.4942 0 0 1 
1 7.5499999999999998 0.84999999999999998 1.4942 0.99518556399811031 0.098008638444592872 0 
1 7.6074029999999997 0.86141800000000002 1.4942 0 0 1 
1 7.5792640000000002 0.85288200000000003 1.4942 0.95693912965150829 0.29028865313996294 0 
1 7.6333359999999999 0.87527999999999995 1.4942 0 0 1 
1 7.6074029999999997 0.86141800000000002 1.4942 0.88191387411534672 0.47141056271880527 0 
1 7.656066 0.89393400000000001 1.4942 0 0 1 
1 7.6333359999999999 0.87527999999999995 1.4942 0.77301093560046474 0.63439269655481867 0 
1 7.6747199999999998 0.91666400000000003 1.4942 0 0 1 
1 7.656066 0.89393400000000001 1.4942 0.63439269655481367 0.77301093560046874 0 
1 7.6885820000000002 0.94259700000000002 1.4942 0 0 1 
1 7.6747199999999998 0.91666400000000003 1.4942 0.47141056271882309 0.88191387411533717 0 
1 7.6971179999999997 0.97073600000000004 1.4942 0 0 1 
1 7.6885820000000002 0.94259700000000002 1.4942 0.29028865313994046 0.95693912965151517 0 
1 7.7000000000000002 1 1.4942 0 0 1 
1 7.6971179999999997 0.97073600000000004 1.4942 0.098008638444609303 0.99518556399810876 0 
1 7.6973770000000004 1.0266280000000001 1.4942 0 0 1 
1 7.7000000000000002 1 1.4942 -0.098030869423000669 0.99518337437889837 0 
1 7.9248070000000004 1.1565879999999999 1.4942 0 0 1 
1 7.6973770000000004 1.0266280000000001 1.4942 0.86824314212445952 0.49613893835683343 0 
1 7.9262350000000001 1.1576010000000001 1.4942 0 0 1 
1 7.9248070000000004 1.1565879999999999 1.4942 0.81562017589071278 0.57858770180500962 0 
1 7.9277790000000001 1.1584270000000001 1.4942 0 0 1 
1 7.9262350000000001 1.1576010000000001 1.4942 0.88175149871683212 0.47171420851042895 0 
1 7.9302219999999997 1.1604319999999999 1.4942 0 0 1 
1 7.9277790000000001 1.1584270000000001 1.4942 0.77299777390999902 0.63440873380667295 0 
1 7.9328000000000003 1.1622619999999999 1.4942 0 0 1 
1 7.9302219999999997 1.1604319999999999 1.4942 0.81543971872520615 0.57884200359455318 0 
1 7.9340020000000004 1.1635340000000001 1.4942 0 0 1 
1 7.9328000000000003 1.1622619999999999 1.4942 0.68682484883163375 0.72682296814795522 0 
1 7.9353550000000004 1.1646449999999999 1.4942 0 0 1 
1 7.9340020000000004 1.1635340000000001 1.4942 0.77283630696470806 0.63460542279210919 0 
1 7.9373610000000001 1.1670879999999999 1.4942 0 0 1 
1 7.9353550000000004 1.1646449999999999 1.4942 0.63459774194194996 0.77284261394036646 0 
1 7.9395319999999998 1.169386 1.4942 0 0 1 
1 7.9373610000000001 1.1670879999999999 1.4942 0.68673498581484427 0.72690787535827783 0 
1 7.9404630000000003 1.170868 1.4942 0 0 1 
1 7.9395319999999998 1.169386 1.4942 0.53194919584997735 0.84677627094443464 0 
1 7.941573 1.172221 1.4942 0 0 1 
1 7.9404630000000003 1.170868 1.4942 0.63426407201143753 0.77311647696545049 0 
1 7.9430639999999997 1.175009 1.4942 0 0 1 
1 7.941573 1.172221 1.4942 0.47158933682783077 0.88181829046027771 0 
1 7.9447450000000002 1.177686 1.4942 0 0 1 
1 7.9430639999999997 1.175009 1.4942 0.53178923892616503 0.84687673563649757 0 
1 7.9453690000000003 1.179322 1.4942 0 0 1 
1 7.9447450000000002 1.177686 1.4942 0.35637528704266369 0.9343429000025949 0 
1 7.9461940000000002 1.180866 1.4942 0 0 1 
1 7.9453690000000003 1.179322 1.4942 0.47127002054636319 0.88198898390752611 0 
1 7.9471119999999997 1.183891 1.4942 0 0 1 
1 7.9461940000000002 1.180866 1.4942 0.29039367568275276 0.95690726464138631 0 
1 7.9482379999999999 1.186844 1.4942 0 0 1 
1 7.9471119999999997 1.183891 1.4942 0.35628478445900075 0.93437741430484256 0 
1 7.948531 1.1885699999999999 1.4942 0 0 1 
1 7.9482379999999999 1.186844 1.4942 0.16736232272301291 0.98589545740547868 0 
1 7.949039 1.190245 1.4942 0 0 1 
1 7.948531 1.1885699999999999 1.4942 0.29022937971509055 0.95695710831269443 0 
1 7.9493489999999998 1.1933910000000001 1.4942 0 0 1 
1 7.949039 1.190245 1.4942 0.098062895085637106 0.99518021916003907 0 
1 7.949878 1.1965079999999999 1.4942 0 0 1 
1 7.9493489999999998 1.1933910000000001 1.4942 0.1673218888451293 0.98590232047262083 0 
1 7.9498280000000001 1.198258 1.4942 0 0 1 
1 7.949878 1.1965079999999999 1.4942 -0.028559773898808198 0.99959208646069675 0 
1 7.9500000000000002 1.2 1.4942 0 0 1 
1 7.9498280000000001 1.198258 1.4942 0.098259280079269887 0.9951608482442944 0 
1 7.9496900000000004 1.203146 1.4942 0 0 1 
1 7.9500000000000002 1.2 1.4942 -0.098062895085637106 0.99518021916003907 0 
1 7.9496010000000004 1.2063060000000001 1.4942 0 0 1 
1 7.9496900000000004 1.203146 1.4942 -0.028153392944882415 0.9996036146721814 0 
1 7.949211 1.2080120000000001 1.4942 0 0 1 
1 7.9496010000000004 1.2063060000000001 1.4942 -0.22285583301464693 0.97485141313502122 0 
1 7.949039 1.2097549999999999 1.4942 0 0 1 
1 7.949211 1.2080120000000001 1.4942 -0.098203450242033002 0.99516635913829032 0 
1 7.9481219999999997 1.2127790000000001 1.4942 0 0 1 
1 7.949039 1.2097549999999999 1.4942 -0.29019183504403906 0.95696849419078223 0 
1 7.9474179999999999 1.2158610000000001 1.4942 0 0 1 
1 7.9481219999999997 1.2127790000000001 1.4942 -0.22268737672333846 0.97488990775783402 0 
1 7.9467020000000002 1.2174590000000001 1.4942 0 0 1 
1 7.9474179999999999 1.2158610000000001 1.4942 -0.40889192456675122 0.91258281488536608 0 
1 7.9461940000000002 1.2191339999999999 1.4942 0 0 1 
1 7.9467020000000002 1.2174590000000001 1.4942 -0.29022937971512575 0.95695710831268366 0 
1 7.9447039999999998 1.221922 1.4942 0 0 1 
1 7.9461940000000002 1.2191339999999999 1.4942 -0.471343333094349 0.88194980715883697 0 
1 7.9434120000000004 1.224807 1.4942 0 0 1 
1 7.9447039999999998 1.221922 1.4942 -0.40871979724675112 0.91265991877510144 0 
1 7.942399 1.226235 1.4942 0 0 1 
1 7.9434120000000004 1.224807 1.4942 -0.57858770180503416 0.81562017589069546 0 
1 7.941573 1.227779 1.4942 0 0 1 
1 7.942399 1.226235 1.4942 -0.47171420851042895 0.88175149871683212 0 
1 7.9395680000000004 1.2302219999999999 1.4942 0 0 1 
1 7.941573 1.227779 1.4942 -0.63440873380656204 0.77299777391009006 0 
1 7.9377380000000004 1.2327999999999999 1.4942 0 0 1 
1 7.9395680000000004 1.2302219999999999 1.4942 -0.57884200359465254 0.81543971872513543 0 
1 7.9364660000000002 1.234002 1.4942 0 0 1 
1 7.9377380000000004 1.2327999999999999 1.4942 -0.72682296814795522 0.68682484883163375 0 
1 7.9353550000000004 1.235355 1.4942 0 0 1 
1 7.9364660000000002 1.234002 1.4942 -0.63460542279210919 0.77283630696470806 0 
1 7.932912 1.2373609999999999 1.4942 0 0 1 
1 7.9353550000000004 1.235355 1.4942 -0.77284261394038856 0.63459774194192298 0 
1 7.9306140000000003 1.2395320000000001 1.4942 0 0 1 
1 7.932912 1.2373609999999999 1.4942 -0.7269078753581415 0.68673498581498871 0 
1 7.9291320000000001 1.2404630000000001 1.4942 0 0 1 
1 7.9306140000000003 1.2395320000000001 1.4942 -0.84677627094458474 0.53194919584973821 0 
1 7.9277790000000001 1.241573 1.4942 0 0 1 
1 7.9291320000000001 1.2404630000000001 1.4942 -0.77311647696538821 0.63426407201151336 0 
1 7.9249910000000003 1.2430639999999999 1.4942 0 0 1 
1 7.9277790000000001 1.241573 1.4942 -0.88181829046023297 0.47158933682791454 0 
1 7.9223140000000001 1.244745 1.4942 0 0 1 
1 7.9249910000000003 1.2430639999999999 1.4942 -0.84687673563658072 0.53178923892603269 0 
1 7.9206779999999997 1.2453689999999999 1.4942 0 0 1 
1 7.9223140000000001 1.244745 1.4942 -0.93434290000266929 0.35637528704246851 0 
1 7.9191339999999997 1.246194 1.4942 0 0 1 
1 7.9206779999999997 1.2453689999999999 1.4942 -0.88198898390747349 0.47127002054646189 0 
1 7.9161089999999996 1.247112 1.4942 0 0 1 
1 7.9191339999999997 1.246194 1.4942 -0.95690726464134734 0.29039367568288138 0 
1 7.9131559999999999 1.248238 1.4942 0 0 1 
1 7.9161089999999996 1.247112 1.4942 -0.93437741430485699 0.35628478445896272 0 
1 7.9114300000000002 1.2485310000000001 1.4942 0 0 1 
1 7.9131559999999999 1.248238 1.4942 -0.98589545740547524 0.16736232272303386 0 
1 7.9097549999999996 1.249039 1.4942 0 0 1 
1 7.9114300000000002 1.2485310000000001 1.4942 -0.95695710831271574 0.29022937971502011 0 
1 7.9066090000000004 1.249349 1.4942 0 0 1 
1 7.9097549999999996 1.249039 1.4942 -0.99518021916002941 0.09806289508573407 0 
1 7.903492 1.249878 1.4942 0 0 1 
1 7.9066090000000004 1.249349 1.4942 -0.98590232047263826 0.16732188884502627 0 
1 7.9017419999999996 1.2498279999999999 1.4942 0 0 1 
1 7.903492 1.249878 1.4942 -0.9995920864606932 -0.028559773898931304 0 
1 7.9000000000000004 1.25 1.4942 0 0 1 
1 7.9017419999999996 1.2498279999999999 1.4942 -0.99516084824429074 0.098259280079307107 0 
1 6.992826 1.25 1.4942 0 0 1 
1 7.9000000000000004 1.25 1.4942 -1 0 0 
1 6.9847760000000001 1.276537 1.4942 0 0 1 
1 6.992826 1.25 1.4942 -0.29028761809013176 0.95693944363452688 0 
1 6.9662940000000004 1.3111139999999999 1.4942 0 0 1 
1 6.9847760000000001 1.276537 1.4942 -0.4714008721262104 0.88191905397187564 0 
1 6.9414210000000001 1.341421 1.4942 0 0 1 
1 6.9662940000000004 1.3111139999999999 1.4942 -0.63440376805704268 0.7730018493348032 0 
1 6.9111140000000004 1.3662939999999999 1.4942 0 0 1 
1 6.9414210000000001 1.341421 1.4942 -0.77300184933480443 0.63440376805704157 0 
1 6.8765369999999999 1.384776 1.4942 0 0 1 
1 6.9111140000000004 1.3662939999999999 1.4942 -0.88191905397187464 0.47140087212621212 0 
1 6.8390180000000003 1.3961570000000001 1.4942 0 0 1 
1 6.8765369999999999 1.384776 1.4942 -0.95694220774245431 0.2902785059920856 0 
1 6.7999999999999998 1.3999999999999999 1.4942 0 0 1 
1 6.8390180000000003 1.3961570000000001 1.4942 -0.99518457136266003 0.098018717200945168 0 
1 6.7609820000000003 1.3961570000000001 1.4942 0 0 1 
1 6.7999999999999998 1.3999999999999999 1.4942 -0.9951845713626597 -0.098018717200947375 0 
1 6.7234629999999997 1.384776 1.4942 0 0 1 
1 6.7609820000000003 1.3961570000000001 1.4942 -0.95694220774245631 -0.29027850599207933 0 
1 6.6888860000000001 1.3662939999999999 1.4942 0 0 1 
1 6.7234629999999997 1.384776 1.4942 -0.88191905397186965 -0.47140087212622156 0 
1 6.6585789999999996 1.341421 1.4942 0 0 1 
1 6.6888860000000001 1.3662939999999999 1.4942 -0.77300184933481353 -0.63440376805703047 0 
1 6.6337060000000001 1.3111139999999999 1.4942 0 0 1 
1 6.6585789999999996 1.341421 1.4942 -0.63440376805702925 -0.77300184933481442 0 
1 6.6152240000000004 1.276537 1.4942 0 0 1 
1 6.6337060000000001 1.3111139999999999 1.4942 -0.4714008721262104 -0.88191905397187564 0 
1 6.6038430000000004 1.239018 1.4942 0 0 1 
1 6.6152240000000004 1.276537 1.4942 -0.29027850599208249 -0.95694220774245531 0 
1 6.5999999999999996 1.2 1.4942 0 0 1 
1 6.6038430000000004 1.239018 1.4942 -0.098018717200968705 -0.99518457136265759 0 
1 6.6038430000000004 1.160982 1.4942 0 0 1 
1 6.5999999999999996 1.2 1.4942 0.098018717200968705 -0.99518457136265759 0 
1 6.6152240000000004 1.1234630000000001 1.4942 0 0 1 
1 6.6038430000000004 1.160982 1.4942 0.2902785059920841 -0.95694220774245498 0 
1 6.6337060000000001 1.088886 1.4942 0 0 1 
1 6.6152240000000004 1.1234630000000001 1.4942 0.47140087212620807 -0.88191905397187687 0 
1 6.6585789999999996 1.0585789999999999 1.4942 0 0 1 
1 6.6337060000000001 1.088886 1.4942 0.63440376805702925 -0.77300184933481442 0 
1 6.6888860000000001 1.033706 1.4942 0 0 1 
1 6.6585789999999996 1.0585789999999999 1.4942 0.77300184933481353 -0.63440376805703047 0 
1 6.7234629999999997 1.0152239999999999 1.4942 0 0 1 
1 6.6888860000000001 1.033706 1.4942 0.88191905397186965 -0.47140087212622156 0 
1 6.7609820000000003 1.003843 1.4942 0 0 1 
1 6.7234629999999997 1.0152239999999999 1.4942 0.95694220774245786 -0.29027850599207417 0 
1 6.7999999999999998 1 1.4942 0 0 1 
1 6.7609820000000003 1.003843 1.4942 0.99518457136265914 -0.098018717200952982 0 
1 6.8390180000000003 1.003843 1.4942 0 0 1 
1 6.7999999999999998 1 1.4942 0.99518457136265925 0.098018717200950761 0 
1 6.8765369999999999 1.0152239999999999 1.4942 0 0 1 
1 6.8390180000000003 1.003843 1.4942 0.95694220774245586 0.29027850599208044 0 
1 6.9111140000000004 1.033706 1.4942 0 0 1 
1 6.8765369999999999 1.0152239999999999 1.4942 0.88191905397187464 0.47140087212621212 0 
1 6.9414210000000001 1.0585789999999999 1.4942 0 0 1 
1 6.9111140000000004 1.033706 1.4942 0.77300184933480443 0.63440376805704157 0 
1 6.9662940000000004 1.088886 1.4942 0 0 1 
1 6.9414210000000001 1.0585789999999999 1.4942 0.63440376805704268 0.7730018493348032 0 
1 6.9847760000000001 1.1234630000000001 1.4942 0 0 1 
1 6.9662940000000004 1.088886 1.4942 0.47140087212620807 0.88191905397187687 0 
1 6.992826 1.1499999999999999 1.4942 0 0 1 
1 6.9847760000000001 1.1234630000000001 1.4942 0.29028761809013404 0.95693944363452632 0 
1 7.5499999999999998 1.1499999999999999 1.4942 0 0 1 
1 6.992826 1.1499999999999999 1.4942 1 0 0 
1 7.5207360000000003 1.1471180000000001 1.4942 0 0 1 
1 7.5499999999999998 1.1499999999999999 1.4942 -0.99518556399811076 -0.098008638444588334 0 
1 7.492597 1.138582 1.4942 0 0 1 
1 7.5207360000000003 1.1471180000000001 1.4942 -0.95693912965150985 -0.290288653139958 0 
1 7.4666639999999997 1.1247199999999999 1.4942 0 0 1 
1 7.492597 1.138582 1.4942 -0.88191387411534505 -0.47141056271880816 0 
1 7.4439339999999996 1.106066 1.4942 0 0 1 
1 7.4666639999999997 1.1247199999999999 1.4942 -0.77301093560046652 -0.63439269655481634 0 
1 7.4439339999999996 1.106066 1.4942 -0.63439269655481556 -0.77301093560046719 0 
1 7.5792640000000002 1.1471180000000001 1.4942 0 0 1 
1 7.6074029999999997 1.138582 1.4942 0 0 1 
1 7.5792640000000002 1.1471180000000001 1.4942 0.95693912965150729 -0.29028865313996638 0 
1 7.6333359999999999 1.1247199999999999 1.4942 0 0 1 
1 7.6074029999999997 1.138582 1.4942 0.88191387411534505 -0.47141056271880816 0 
1 7.6473519999999997 1.1132169999999999 1.4942 0 0 1 
1 7.6333359999999999 1.1247199999999999 1.4942 0.77300055267750445 -0.63440534799154458 0 
1 7.711722 1.1499999999999999 1.4942 0 0 1 
1 7.6473519999999997 1.1132169999999999 1.4942 0.86824231207359237 0.49614039094302981 0 
1 7.5499999999999998 1.1499999999999999 1.4942 0 0 1 
1 7.711722 1.1499999999999999 1.4942 -1 0 0 
1 7.5499999999999998 1.1499999999999999 1.4942 0.99518556399811109 -0.098008638444585391 0 
1 7.5646319999999996 0.92644099999999996 1.4942 0 0 1 
1 7.5787009999999997 0.93070900000000001 1.4942 0 0 1 
1 7.5646319999999996 0.92644099999999996 1.4942 0.95693626377828389 0.29029810034869086 0 
1 7.5916680000000003 0.93764000000000003 1.4942 0 0 1 
1 7.5787009999999997 0.93070900000000001 1.4942 0.88192143116884059 0.4713964247266878 0 
1 7.6030329999999999 0.946967 1.4942 0 0 1 
1 7.5916680000000003 0.93764000000000003 1.4942 0.77301093560045442 0.63439269655483121 0 
1 7.6123599999999998 0.95833199999999996 1.4942 0 0 1 
1 7.6030329999999999 0.946967 1.4942 0.63439269655481556 0.77301093560046719 0 
1 7.6192909999999996 0.97129900000000002 1.4942 0 0 1 
1 7.6123599999999998 0.95833199999999996 1.4942 0.4713964247266918 0.88192143116883848 0 
1 7.6235590000000002 0.98536800000000002 1.4942 0 0 1 
1 7.6192909999999996 0.97129900000000002 1.4942 0.29029810034872755 0.9569362637782729 0 
1 7.625 1 1.4942 0 0 1 
1 7.6235590000000002 0.98536800000000002 1.4942 0.098008638444579382 0.99518556399811164 0 
1 7.6235590000000002 1.014632 1.4942 0 0 1 
1 7.625 1 1.4942 -0.098008638444579382 0.99518556399811164 0 
1 7.6192909999999996 1.0287010000000001 1.4942 0 0 1 
1 7.6235590000000002 1.014632 1.4942 -0.29029810034872539 0.95693626377827334 0 
1 7.6123599999999998 1.041668 1.4942 0 0 1 
1 7.6192909999999996 1.0287010000000001 1.4942 -0.47139642472669496 0.88192143116883681 0 
1 7.6030329999999999 1.0530330000000001 1.4942 0 0 1 
1 7.6123599999999998 1.041668 1.4942 -0.6343926965548119 0.77301093560047029 0 
1 7.5916680000000003 1.06236 1.4942 0 0 1 
1 7.6030329999999999 1.0530330000000001 1.4942 -0.77301093560045819 0.63439269655482666 0 
1 7.5787009999999997 1.069291 1.4942 0 0 1 
1 7.5916680000000003 1.06236 1.4942 -0.88192143116884059 0.4713964247266878 0 
1 7.5646319999999996 1.0735589999999999 1.4942 0 0 1 
1 7.5787009999999997 1.069291 1.4942 -0.956936263778286 0.29029810034868392 0 
1 7.5499999999999998 1.075 1.4942 0 0 1 
1 7.5646319999999996 1.0735589999999999 1.4942 -0.99518556399811009 0.098008638444595814 0 
1 7.5353680000000001 1.0735589999999999 1.4942 0 0 1 
1 7.5499999999999998 1.075 1.4942 -0.99518556399811009 -0.098008638444595814 0 
1 7.521299 1.069291 1.4942 0 0 1 
1 7.5353680000000001 1.0735589999999999 1.4942 -0.956936263778286 -0.29029810034868392 0 
1 7.5083320000000002 1.06236 1.4942 0 0 1 
1 7.521299 1.069291 1.4942 -0.88192143116882715 -0.47139642472671295 0 
1 7.4969669999999997 1.0530330000000001 1.4942 0 0 1 
1 7.5083320000000002 1.06236 1.4942 -0.77301093560048251 -0.63439269655479702 0 
1 7.4876399999999999 1.041668 1.4942 0 0 1 
1 7.4969669999999997 1.0530330000000001 1.4942 -0.6343926965548119 -0.77301093560047029 0 
1 7.4807090000000001 1.0287010000000001 1.4942 0 0 1 
1 7.4876399999999999 1.041668 1.4942 -0.47139642472669496 -0.88192143116883681 0 
1 7.4764410000000003 1.014632 1.4942 0 0 1 
1 7.4807090000000001 1.0287010000000001 1.4942 -0.2902981003486701 -0.95693626377829022 0 
1 7.4749999999999996 1 1.4942 0 0 1 
1 7.4764410000000003 1.014632 1.4942 -0.098008638444639209 -0.99518556399810587 0 
1 7.4764410000000003 0.98536800000000002 1.4942 0 0 1 
1 7.4749999999999996 1 1.4942 0.098008638444639209 -0.99518556399810587 0 
1 7.4807090000000001 0.97129900000000002 1.4942 0 0 1 
1 7.4764410000000003 0.98536800000000002 1.4942 0.29029810034867221 -0.95693626377828955 0 
1 7.4876399999999999 0.95833199999999996 1.4942 0 0 1 
1 7.4807090000000001 0.97129900000000002 1.4942 0.4713964247266918 -0.88192143116883848 0 
1 7.4969669999999997 0.946967 1.4942 0 0 1 
1 7.4876399999999999 0.95833199999999996 1.4942 0.63439269655481556 -0.77301093560046719 0 
1 7.5083320000000002 0.93764000000000003 1.4942 0 0 1 
1 7.4969669999999997 0.946967 1.4942 0.77301093560047873 -0.63439269655480157 0 
1 7.521299 0.93070900000000001 1.4942 0 0 1 
1 7.5083320000000002 0.93764000000000003 1.4942 0.88192143116882715 -0.47139642472671295 0 
1 7.5353680000000001 0.92644099999999996 1.4942 0 0 1 
1 7.521299 0.93070900000000001 1.4942 0.95693626377828389 -0.29029810034869086 0 
1 7.5499999999999998 0.92500000000000004 1.4942 0 0 1 
1 7.5353680000000001 0.92644099999999996 1.4942 0.99518556399811076 -0.098008638444588334 0 
1 7.5499999999999998 0.92500000000000004 1.4942 0.99518556399811076 0.098008638444588334 0 
Polygon3D 0
PolygonOnTriangulations 0
Surfaces 151
1 7.4252799999999999 1.0833360000000001 1.4942 0.88191387411534961 -0.47141056271879955 0 -0.47141056271879955 -0.88191387411534961 0 0 -0 -1 
1 7.4114180000000003 1.0574030000000001 1.4942 0.95693912965150707 -0.29028865313996705 0 -0.29028865313996705 -0.95693912965150707 0 0 -0 -1 
1 7.402882 1.029264 1.4942 0.99518556399811176 -0.098008638444579396 0 -0.098008638444579396 -0.99518556399811176 0 0 -0 -1 
1 7.4000000000000004 1 1.4942 0.99518556399811176 0.098008638444579396 -0 0.098008638444579396 -0.99518556399811176 0 0 -0 -1 
1 7.402882 0.97073600000000004 1.4942 0.95693912965150685 0.2902886531399681 -0 0.2902886531399681 -0.95693912965150685 0 0 -0 -1 
1 7.4114180000000003 0.94259700000000002 1.4942 0.88191387411534961 0.47141056271879955 -0 0.47141056271879955 -0.88191387411534961 0 0 -0 -1 
1 7.4252799999999999 0.91666400000000003 1.4942 0.77301093560046874 0.63439269655481367 -0 0.63439269655481367 -0.77301093560046874 0 0 -0 -1 
1 7.4439339999999996 0.89393400000000001 1.4942 0.63439269655481867 0.77301093560046474 -0 0.77301093560046474 -0.63439269655481867 0 0 -0 -1 
1 7.4666639999999997 0.87527999999999995 1.4942 0.47141056271880527 0.88191387411534672 -0 0.8819138741153465 -0.47141056271880516 0 0 -0 -1 
1 7.492597 0.86141800000000002 1.4942 0.29028865313995456 0.95693912965151096 -0 0.95693912965151096 -0.29028865313995456 0 0 -0 -1 
1 7.5207360000000003 0.85288200000000003 1.4942 0.098008638444595828 0.9951855639981102 -0 0.9951855639981102 -0.098008638444595828 0 0 -0 -1 
1 7.5499999999999998 0.84999999999999998 1.4942 -0.098008638444592885 0.99518556399811042 0 0.99518556399811042 0.098008638444592885 0 0 0 -1 
1 7.5792640000000002 0.85288200000000003 1.4942 -0.29028865313996299 0.9569391296515084 0 0.9569391296515084 0.29028865313996299 0 0 0 -1 
1 7.6074029999999997 0.86141800000000002 1.4942 -0.47141056271880527 0.88191387411534672 0 0.8819138741153465 0.47141056271880516 0 0 0 -1 
1 7.6333359999999999 0.87527999999999995 1.4942 -0.63439269655481867 0.77301093560046474 0 0.77301093560046474 0.63439269655481867 0 0 0 -1 
1 7.656066 0.89393400000000001 1.4942 -0.77301093560046874 0.63439269655481367 0 0.63439269655481367 0.77301093560046874 0 0 0 -1 
1 7.6747199999999998 0.91666400000000003 1.4942 -0.88191387411533717 0.47141056271882309 0 0.47141056271882309 0.88191387411533717 0 0 0 -1 
1 7.6885820000000002 0.94259700000000002 1.4942 -0.95693912965151517 0.29028865313994046 0 0.29028865313994046 0.95693912965151517 0 0 0 -1 
1 7.6971179999999997 0.97073600000000004 1.4942 -0.99518556399810887 0.098008638444609317 0 0.098008638444609317 0.99518556399810887 0 0 0 -1 
1 7.7000000000000002 1 1.4942 -0.99518337437889837 -0.098030869423000669 0 -0.098030869423000669 0.99518337437889837 0 -0 0 -1 
1 7.6973770000000004 1.0266280000000001 1.4942 -0.49613893835683343 0.86824314212445952 0 0.86824314212445952 0.49613893835683343 0 0 0 -1 
1 7.9248070000000004 1.1565879999999999 1.4942 -0.57858770180500962 0.81562017589071278 0 0.81562017589071278 0.57858770180500962 0 0 0 -1 
1 7.9262350000000001 1.1576010000000001 1.4942 -0.47171420851042895 0.88175149871683212 0 0.88175149871683212 0.47171420851042895 0 0 0 -1 
1 7.9277790000000001 1.1584270000000001 1.4942 -0.63440873380667295 0.77299777390999902 0 0.77299777390999902 0.63440873380667295 0 0 0 -1 
1 7.9302219999999997 1.1604319999999999 1.4942 -0.57884200359455318 0.81543971872520615 0 0.81543971872520615 0.57884200359455318 0 0 0 -1 
1 7.9328000000000003 1.1622619999999999 1.4942 -0.72682296814795522 0.68682484883163375 0 0.68682484883163375 0.72682296814795522 0 0 0 -1 
1 7.9340020000000004 1.1635340000000001 1.4942 -0.63460542279210919 0.77283630696470806 0 0.77283630696470806 0.63460542279210919 0 0 0 -1 
1 7.9353550000000004 1.1646449999999999 1.4942 -0.77284261394036646 0.63459774194194996 0 0.63459774194194996 0.77284261394036646 0 0 0 -1 
1 7.9373610000000001 1.1670879999999999 1.4942 -0.72690787535827794 0.68673498581484438 0 0.68673498581484438 0.72690787535827794 0 0 0 -1 
1 7.9395319999999998 1.169386 1.4942 -0.84677627094443464 0.53194919584997735 0 0.53194919584997735 0.84677627094443464 0 0 0 -1 
1 7.9404630000000003 1.170868 1.4942 -0.77311647696545049 0.63426407201143753 0 0.63426407201143753 0.77311647696545049 0 0 0 -1 
1 7.941573 1.172221 1.4942 -0.88181829046027782 0.47158933682783083 0 0.47158933682783083 0.88181829046027782 0 0 0 -1 
1 7.9430639999999997 1.175009 1.4942 -0.84687673563649757 0.53178923892616503 0 0.53178923892616503 0.84687673563649757 0 0 0 -1 
1 7.9447450000000002 1.177686 1.4942 -0.9343429000025949 0.35637528704266369 0 0.35637528704266369 0.9343429000025949 0 0 0 -1 
1 7.9453690000000003 1.179322 1.4942 -0.88198898390752623 0.47127002054636324 0 0.47127002054636324 0.88198898390752623 0 0 0 -1 
1 7.9461940000000002 1.180866 1.4942 -0.95690726464138631 0.29039367568275276 0 0.29039367568275276 0.95690726464138631 0 0 0 -1 
1 7.9471119999999997 1.183891 1.4942 -0.93437741430484256 0.35628478445900075 0 0.35628478445900075 0.93437741430484256 0 0 0 -1 
1 7.9482379999999999 1.186844 1.4942 -0.98589545740547868 0.16736232272301291 0 0.16736232272301291 0.98589545740547868 0 0 0 -1 
1 7.948531 1.1885699999999999 1.4942 -0.95695710831269443 0.29022937971509055 0 0.29022937971509055 0.95695710831269443 0 0 0 -1 
1 7.949039 1.190245 1.4942 -0.99518021916003907 0.098062895085637106 0 0.098062895085637106 0.99518021916003907 0 0 0 -1 
1 7.9493489999999998 1.1933910000000001 1.4942 -0.98590232047262083 0.1673218888451293 0 0.1673218888451293 0.98590232047262083 0 0 0 -1 
1 7.949878 1.1965079999999999 1.4942 -0.99959208646069675 -0.028559773898808198 0 -0.028559773898808198 0.99959208646069675 0 -0 0 -1 
1 7.9498280000000001 1.198258 1.4942 -0.9951608482442944 0.098259280079269887 0 0.098259280079269887 0.9951608482442944 0 0 0 -1 
1 7.9500000000000002 1.2 1.4942 -0.99518021916003907 -0.098062895085637106 0 -0.098062895085637106 0.99518021916003907 0 -0 0 -1 
1 7.9496900000000004 1.203146 1.4942 -0.99960361467218151 -0.028153392944882418 0 -0.028153392944882418 0.99960361467218151 0 -0 0 -1 
1 7.9496010000000004 1.2063060000000001 1.4942 -0.97485141313502122 -0.22285583301464693 0 -0.22285583301464693 0.97485141313502122 0 -0 0 -1 
1 7.949211 1.2080120000000001 1.4942 -0.99516635913829032 -0.098203450242033002 0 -0.098203450242033002 0.99516635913829032 0 -0 0 -1 
1 7.949039 1.2097549999999999 1.4942 -0.95696849419078223 -0.29019183504403906 0 -0.29019183504403906 0.95696849419078223 0 -0 0 -1 
1 7.9481219999999997 1.2127790000000001 1.4942 -0.97488990775783402 -0.22268737672333846 0 -0.22268737672333846 0.97488990775783402 0 -0 0 -1 
1 7.9474179999999999 1.2158610000000001 1.4942 -0.91258281488536608 -0.40889192456675122 0 -0.40889192456675122 0.91258281488536608 0 -0 0 -1 
1 7.9467020000000002 1.2174590000000001 1.4942 -0.95695710831268366 -0.29022937971512575 0 -0.29022937971512575 0.95695710831268366 0 -0 0 -1 
1 7.9461940000000002 1.2191339999999999 1.4942 -0.88194980715883697 -0.471343333094349 0 -0.471343333094349 0.88194980715883697 0 -0 0 -1 
1 7.9447039999999998 1.221922 1.4942 -0.91265991877510144 -0.40871979724675112 0 -0.40871979724675112 0.91265991877510144 0 -0 0 -1 
1 7.9434120000000004 1.224807 1.4942 -0.81562017589069546 -0.57858770180503416 0 -0.57858770180503416 0.81562017589069546 0 -0 0 -1 
1 7.942399 1.226235 1.4942 -0.88175149871683212 -0.47171420851042895 0 -0.47171420851042895 0.88175149871683212 0 -0 0 -1 
1 7.941573 1.227779 1.4942 -0.77299777391009006 -0.63440873380656204 0 -0.63440873380656204 0.77299777391009006 0 -0 0 -1 
1 7.9395680000000004 1.2302219999999999 1.4942 -0.81543971872513554 -0.57884200359465265 0 -0.57884200359465265 0.81543971872513554 0 -0 0 -1 
1 7.9377380000000004 1.2327999999999999 1.4942 -0.68682484883163375 -0.72682296814795522 0 -0.72682296814795522 0.68682484883163375 0 -0 0 -1 
1 7.9364660000000002 1.234002 1.4942 -0.77283630696470806 -0.63460542279210919 0 -0.63460542279210919 0.77283630696470806 0 -0 0 -1 
1 7.9353550000000004 1.235355 1.4942 -0.63459774194192309 -0.77284261394038867 0 -0.77284261394038867 0.63459774194192309 0 -0 0 -1 
1 7.932912 1.2373609999999999 1.4942 -0.68673498581498871 -0.7269078753581415 0 -0.7269078753581415 0.68673498581498871 0 -0 0 -1 
1 7.9306140000000003 1.2395320000000001 1.4942 -0.53194919584973821 -0.84677627094458474 0 -0.84677627094458474 0.53194919584973821 0 -0 0 -1 
1 7.9291320000000001 1.2404630000000001 1.4942 -0.63426407201151347 -0.77311647696538832 0 -0.77311647696538832 0.63426407201151347 0 -0 0 -1 
1 7.9277790000000001 1.241573 1.4942 -0.47158933682791454 -0.88181829046023297 0 -0.88181829046023297 0.47158933682791454 0 -0 0 -1 
1 7.9249910000000003 1.2430639999999999 1.4942 -0.53178923892603269 -0.84687673563658072 0 -0.84687673563658072 0.53178923892603269 0 -0 0 -1 
1 7.9223140000000001 1.244745 1.4942 -0.35637528704246857 -0.9343429000026694 0 -0.9343429000026694 0.35637528704246857 0 -0 0 -1 
1 7.9206779999999997 1.2453689999999999 1.4942 -0.47127002054646189 -0.88198898390747349 0 -0.88198898390747349 0.47127002054646189 0 -0 0 -1 
1 7.9191339999999997 1.246194 1.4942 -0.29039367568288138 -0.95690726464134734 0 -0.95690726464134734 0.29039367568288138 0 -0 0 -1 
1 7.9161089999999996 1.247112 1.4942 -0.35628478445896278 -0.9343774143048571 0 -0.9343774143048571 0.35628478445896278 0 -0 0 -1 
1 7.9131559999999999 1.248238 1.4942 -0.16736232272303386 -0.98589545740547524 0 -0.98589545740547524 0.16736232272303386 0 -0 0 -1 
1 7.9114300000000002 1.2485310000000001 1.4942 -0.29022937971502011 -0.95695710831271574 0 -0.95695710831271574 0.29022937971502011 0 -0 0 -1 
1 7.9097549999999996 1.249039 1.4942 -0.098062895085734084 -0.99518021916002952 0 -0.99518021916002952 0.098062895085734084 0 -0 0 -1 
1 7.9066090000000004 1.249349 1.4942 -0.16732188884502627 -0.98590232047263826 0 -0.98590232047263826 0.16732188884502627 0 -0 0 -1 
1 7.903492 1.249878 1.4942 0.028559773898931304 -0.9995920864606932 0 -0.9995920864606932 -0.028559773898931304 0 0 -0 -1 
1 7.9017419999999996 1.2498279999999999 1.4942 -0.098259280079307107 -0.99516084824429074 0 -0.99516084824429074 0.098259280079307107 0 -0 0 -1 
1 7.9000000000000004 1.25 1.4942 0 -1 0 -1 0 0 -0 -0 -1 
1 6.992826 1.25 1.4942 -0.95693944363452688 -0.29028761809013176 0 -0.29028761809013176 0.95693944363452688 0 -0 0 -1 
1 6.9847760000000001 1.276537 1.4942 -0.88191905397187575 -0.47140087212621046 0 -0.47140087212621046 0.88191905397187575 0 -0 0 -1 
1 6.9662940000000004 1.3111139999999999 1.4942 -0.77300184933480331 -0.63440376805704279 0 -0.63440376805704279 0.77300184933480331 0 -0 0 -1 
1 6.9414210000000001 1.341421 1.4942 -0.63440376805704157 -0.77300184933480431 0 -0.77300184933480431 0.63440376805704157 0 -0 0 -1 
1 6.9111140000000004 1.3662939999999999 1.4942 -0.47140087212621218 -0.88191905397187476 0 -0.88191905397187476 0.47140087212621218 0 -0 0 -1 
1 6.8765369999999999 1.384776 1.4942 -0.29027850599208566 -0.95694220774245442 0 -0.95694220774245442 0.29027850599208566 0 -0 0 -1 
1 6.8390180000000003 1.3961570000000001 1.4942 -0.098018717200945168 -0.99518457136266003 0 -0.99518457136266003 0.098018717200945168 0 -0 0 -1 
1 6.7999999999999998 1.3999999999999999 1.4942 0.098018717200947375 -0.9951845713626597 0 -0.9951845713626597 -0.098018717200947375 0 0 -0 -1 
1 6.7609820000000003 1.3961570000000001 1.4942 0.29027850599207933 -0.95694220774245631 0 -0.95694220774245631 -0.29027850599207933 0 0 -0 -1 
1 6.7234629999999997 1.384776 1.4942 0.47140087212622162 -0.88191905397186976 0 -0.88191905397186976 -0.47140087212622162 0 0 -0 -1 
1 6.6888860000000001 1.3662939999999999 1.4942 0.63440376805703047 -0.77300184933481342 0 -0.77300184933481342 -0.63440376805703047 0 0 -0 -1 
1 6.6585789999999996 1.341421 1.4942 0.77300184933481442 -0.63440376805702925 0 -0.63440376805702925 -0.77300184933481442 0 0 -0 -1 
1 6.6337060000000001 1.3111139999999999 1.4942 0.88191905397187575 -0.47140087212621046 0 -0.47140087212621046 -0.88191905397187575 0 0 -0 -1 
1 6.6152240000000004 1.276537 1.4942 0.95694220774245531 -0.29027850599208249 0 -0.29027850599208249 -0.95694220774245531 0 0 -0 -1 
1 6.6038430000000004 1.239018 1.4942 0.99518457136265759 -0.098018717200968705 0 -0.098018717200968705 -0.99518457136265759 0 0 -0 -1 
1 6.5999999999999996 1.2 1.4942 0.99518457136265759 0.098018717200968705 -0 0.098018717200968705 -0.99518457136265759 0 0 -0 -1 
1 6.6038430000000004 1.160982 1.4942 0.95694220774245498 0.2902785059920841 -0 0.2902785059920841 -0.95694220774245498 0 0 -0 -1 
1 6.6152240000000004 1.1234630000000001 1.4942 0.88191905397187698 0.47140087212620813 -0 0.47140087212620813 -0.88191905397187698 0 0 -0 -1 
1 6.6337060000000001 1.088886 1.4942 0.77300184933481442 0.63440376805702925 -0 0.63440376805702925 -0.77300184933481442 0 0 -0 -1 
1 6.6585789999999996 1.0585789999999999 1.4942 0.63440376805703047 0.77300184933481342 -0 0.77300184933481342 -0.63440376805703047 0 0 -0 -1 
1 6.6888860000000001 1.033706 1.4942 0.47140087212622162 0.88191905397186976 -0 0.88191905397186976 -0.47140087212622162 0 0 -0 -1 
1 6.7234629999999997 1.0152239999999999 1.4942 0.29027850599207417 0.95694220774245786 -0 0.95694220774245786 -0.29027850599207417 0 0 -0 -1 
1 6.7609820000000003 1.003843 1.4942 0.098018717200952982 0.99518457136265914 -0 0.99518457136265914 -0.098018717200952982 0 0 -0 -1 
1 6.7999999999999998 1 1.4942 -0.098018717200950775 0.99518457136265936 0 0.99518457136265936 0.098018717200950775 0 0 0 -1 
1 6.8390180000000003 1.003843 1.4942 -0.29027850599208049 0.95694220774245597 0 0.95694220774245597 0.29027850599208049 0 0 0 -1 
1 6.8765369999999999 1.0152239999999999 1.4942 -0.47140087212621218 0.88191905397187476 0 0.88191905397187476 0.47140087212621218 0 0 0 -1 
1 6.9111140000000004 1.033706 1.4942 -0.63440376805704157 0.77300184933480431 0 0.77300184933480431 0.63440376805704157 0 0 0 -1 
1 6.9414210000000001 1.0585789999999999 1.4942 -0.77300184933480331 0.63440376805704279 0 0.63440376805704279 0.77300184933480331 0 0 0 -1 
1 6.9662940000000004 1.088886 1.4942 -0.88191905397187698 0.47140087212620813 0 0.47140087212620813 0.88191905397187698 0 0 0 -1 
1 6.9847760000000001 1.1234630000000001 1.4942 -0.95693944363452632 0.29028761809013404 0 0.29028761809013398 0.9569394436345261 0 0 0 -1 
1 6.992826 1.1499999999999999 1.4942 0 1 0 1 0 0 0 0 -1 
1 7.5499999999999998 1.1499999999999999 1.4942 0.098008638444588347 -0.99518556399811087 0 -0.99518556399811087 -0.098008638444588347 0 0 -0 -1 
1 7.5207360000000003 1.1471180000000001 1.4942 0.290288653139958 -0.95693912965150985 0 -0.95693912965150985 -0.290288653139958 0 0 -0 -1 
1 7.492597 1.138582 1.4942 0.47141056271880816 -0.88191387411534505 0 -0.88191387411534505 -0.47141056271880816 0 0 -0 -1 
1 7.4666639999999997 1.1247199999999999 1.4942 0.63439269655481645 -0.77301093560046663 0 -0.77301093560046663 -0.63439269655481645 0 0 -0 -1 
1 7.4439339999999996 1.106066 1.4942 0.77301093560046719 -0.63439269655481556 0 -0.63439269655481556 -0.77301093560046719 0 0 -0 -1 
1 7.5792640000000002 1.1471180000000001 1.4942 0.29028865313996638 0.95693912965150729 -0 0.95693912965150729 -0.29028865313996638 0 0 -0 -1 
1 7.6074029999999997 1.138582 1.4942 0.47141056271880816 0.88191387411534505 -0 0.88191387411534505 -0.47141056271880816 0 0 -0 -1 
1 7.6333359999999999 1.1247199999999999 1.4942 0.63440534799154458 0.77300055267750445 -0 0.77300055267750445 -0.63440534799154458 0 0 -0 -1 
1 7.6473519999999997 1.1132169999999999 1.4942 -0.49614039094302986 0.86824231207359248 0 0.86824231207359248 0.49614039094302986 0 0 0 -1 
1 7.711722 1.1499999999999999 1.4942 0 -1 0 -1 0 0 -0 -0 -1 
1 7.5499999999999998 1.1499999999999999 1.4942 0.098008638444585405 0.9951855639981112 -0 0.9951855639981112 -0.098008638444585405 0 0 -0 -1 
1 7.5646319999999996 0.92644099999999996 1.4942 -0.29029810034869091 0.956936263778284 0 0.956936263778284 0.29029810034869091 0 0 0 -1 
1 7.5787009999999997 0.93070900000000001 1.4942 -0.47139642472668786 0.8819214311688407 0 0.8819214311688407 0.47139642472668786 0 0 0 -1 
1 7.5916680000000003 0.93764000000000003 1.4942 -0.63439269655483121 0.77301093560045442 0 0.77301093560045442 0.63439269655483121 0 0 0 -1 
1 7.6030329999999999 0.946967 1.4942 -0.77301093560046719 0.63439269655481556 0 0.63439269655481556 0.77301093560046719 0 0 0 -1 
1 7.6123599999999998 0.95833199999999996 1.4942 -0.88192143116883859 0.47139642472669185 0 0.47139642472669185 0.88192143116883859 0 0 0 -1 
1 7.6192909999999996 0.97129900000000002 1.4942 -0.9569362637782729 0.29029810034872755 0 0.29029810034872755 0.9569362637782729 0 0 0 -1 
1 7.6235590000000002 0.98536800000000002 1.4942 -0.99518556399811176 0.098008638444579396 0 0.098008638444579396 0.99518556399811176 0 0 0 -1 
1 7.625 1 1.4942 -0.99518556399811176 -0.098008638444579396 0 -0.098008638444579396 0.99518556399811176 0 -0 0 -1 
1 7.6235590000000002 1.014632 1.4942 -0.95693626377827345 -0.29029810034872544 0 -0.29029810034872544 0.95693626377827345 0 -0 0 -1 
1 7.6192909999999996 1.0287010000000001 1.4942 -0.88192143116883681 -0.47139642472669496 0 -0.47139642472669496 0.88192143116883681 0 -0 0 -1 
1 7.6123599999999998 1.041668 1.4942 -0.77301093560047029 -0.6343926965548119 0 -0.6343926965548119 0.77301093560047029 0 -0 0 -1 
1 7.6030329999999999 1.0530330000000001 1.4942 -0.63439269655482666 -0.77301093560045819 0 -0.77301093560045819 0.63439269655482666 0 -0 0 -1 
1 7.5916680000000003 1.06236 1.4942 -0.47139642472668786 -0.8819214311688407 0 -0.8819214311688407 0.47139642472668786 0 -0 0 -1 
1 7.5787009999999997 1.069291 1.4942 -0.29029810034868397 -0.95693626377828611 0 -0.95693626377828611 0.29029810034868397 0 -0 0 -1 
1 7.5646319999999996 1.0735589999999999 1.4942 -0.098008638444595828 -0.9951855639981102 0 -0.9951855639981102 0.098008638444595828 0 -0 0 -1 
1 7.5499999999999998 1.075 1.4942 0.098008638444595828 -0.9951855639981102 0 -0.9951855639981102 -0.098008638444595828 0 0 -0 -1 
1 7.5353680000000001 1.0735589999999999 1.4942 0.29029810034868397 -0.95693626377828611 0 -0.95693626377828611 -0.29029810034868397 0 0 -0 -1 
1 7.521299 1.069291 1.4942 0.471396424726713 -0.88192143116882726 0 -0.88192143116882726 -0.471396424726713 0 0 -0 -1 
1 7.5083320000000002 1.06236 1.4942 0.63439269655479702 -0.77301093560048251 0 -0.77301093560048251 -0.63439269655479702 0 0 -0 -1 
1 7.4969669999999997 1.0530330000000001 1.4942 0.77301093560047029 -0.6343926965548119 0 -0.6343926965548119 -0.77301093560047029 0 0 -0 -1 
1 7.4876399999999999 1.041668 1.4942 0.88192143116883681 -0.47139642472669496 0 -0.47139642472669496 -0.88192143116883681 0 0 -0 -1 
1 7.4807090000000001 1.0287010000000001 1.4942 0.95693626377829022 -0.2902981003486701 0 -0.2902981003486701 -0.95693626377829022 0 0 -0 -1 
1 7.4764410000000003 1.014632 1.4942 0.99518556399810587 -0.098008638444639209 0 -0.098008638444639209 -0.99518556399810587 0 0 -0 -1 
1 7.4749999999999996 1 1.4942 0.99518556399810587 0.098008638444639209 -0 0.098008638444639209 -0.99518556399810587 0 0 -0 -1 
1 7.4764410000000003 0.98536800000000002 1.4942 0.95693626377828955 0.29029810034867221 -0 0.29029810034867221 -0.95693626377828955 0 0 -0 -1 
1 7.4807090000000001 0.97129900000000002 1.4942 0.88192143116883859 0.47139642472669185 -0 0.47139642472669185 -0.88192143116883859 0 0 -0 -1 
1 7.4876399999999999 0.95833199999999996 1.4942 0.77301093560046719 0.63439269655481556 -0 0.63439269655481556 -0.77301093560046719 0 0 -0 -1 
1 7.4969669999999997 0.946967 1.4942 0.63439269655480157 0.77301093560047873 -0 0.77301093560047873 -0.63439269655480157 0 0 -0 -1 
1 7.5083320000000002 0.93764000000000003 1.4942 0.471396424726713 0.88192143116882726 -0 0.88192143116882726 -0.471396424726713 0 0 -0 -1 
1 7.521299 0.93070900000000001 1.4942 0.29029810034869091 0.956936263778284 -0 0.956936263778284 -0.29029810034869091 0 0 -0 -1 
1 7.5353680000000001 0.92644099999999996 1.4942 0.098008638444588347 0.99518556399811087 -0 0.99518556399811087 -0.098008638444588347 0 0 -0 -1 
1 7.5499999999999998 0.92500000000000004 1.4942 -0.098008638444588347 0.99518556399811087 0 0.99518556399811087 0.098008638444588347 0 0 0 -1 
1 7.2738840046602338 1.1523979069645212 1.4941999999999998 0 0 1 1 0 -0 -0 1 0 
Triangulations 0

TShapes 757
Ve
1e-07
7.42528 1.083336 1.4942
0 0

0101101
*
Ed
 1e-07 1 1 0
1  1 0 0 0.0349999999999999
0

0101000
+757 0 -757 1 *
Ve
1e-07
7.411418 1.057403 1.4942
0 0

0101101
*
Ed
 1e-07 1 1 0
1  2 0 0 0.0349999999999999
0

0101000
+755 0 -755 1 *
Ed
 1e-07 1 1 0
1  3 0 0 0.0294053657178412
0

0101000
+757 0 -755 0 *
Wi

0101100
+756 0 -754 0 -753 0 +753 1 *
Fa
0  1e-07 1 0

0101000
+752 0 *
Ve
1e-07
7.402882 1.029264 1.4942
0 0

0101101
*
Ed
 1e-07 1 1 0
1  4 0 0 0.0349999999999999
0

0101000
+750 0 -750 1 *
Ed
 1e-07 1 1 0
1  5 0 0 0.0294052141124667
0

0101000
+755 0 -750 0 *
Wi

0101100
+754 0 -749 0 -748 0 +748 1 *
Fa
0  1e-07 2 0

0101000
+747 0 *
Ve
1e-07
7.4 1 1.4942
0 0

0101101
*
Ed
 1e-07 1 1 0
1  6 0 0 0.0349999999999999
0

0101000
+745 0 -745 1 *
Ed
 1e-07 1 1 0
1  7 0 0 0.0294055712408379
0

0101000
+750 0 -745 0 *
Wi

0101100
+749 0 -744 0 -743 0 +743 1 *
Fa
0  1e-07 3 0

0101000
+742 0 *
Ve
1e-07
7.402882 0.970736 1.4942
0 0

0101101
*
Ed
 1e-07 1 1 0
1  8 0 0 0.0349999999999999
0

0101000
+740 0 -740 1 *
Ed
 1e-07 1 1 0
1  9 0 0 0.0294055712408379
0

0101000
+745 0 -740 0 *
Wi

0101100
+744 0 -739 0 -738 0 +738 1 *
Fa
0  1e-07 4 0

0101000
+737 0 *
Ve
1e-07
7.411418 0.942597 1.4942
0 0

0101101
*
Ed
 1e-07 1 1 0
1  10 0 0 0.0349999999999999
0

0101000
+735 0 -735 1 *
Ed
 1e-07 1 1 0
1  11 0 0 0.0294052141124666
0

0101000
+740 0 -735 0 *
Wi

0101100
+739 0 -734 0 -733 0 +733 1 *
Fa
0  1e-07 5 0

0101000
+732 0 *
Ve
1e-07
7.42528 0.916664 1.4942
0 0

0101101
*
Ed
 1e-07 1 1 0
1  12 0 0 0.0349999999999999
0

0101000
+730 0 -730 1 *
Ed
 1e-07 1 1 0
1  13 0 0 0.0294053657178412
0

0101000
+735 0 -730 0 *
Wi

0101100
+734 0 -729 0 -728 0 +728 1 *
Fa
0  1e-07 6 0

0101000
+727 0 *
Ve
1e-07
7.443934 0.893934 1.4942
0 0

0101101
*
Ed
 1e-07 1 1 0
1  14 0 0 0.0349999999999999
0

0101000
+725 0 -725 1 *
Ed
 1e-07 1 1 0
1  15 0 0 0.029404499927732
0

0101000
+730 0 -725 0 *
Wi

0101100
+729 0 -724 0 -723 0 +723 1 *
Fa
0  1e-07 7 0

0101000
+722 0 *
Ve
1e-07
7.466664 0.87528 1.4942
0 0

0101101
*
Ed
 1e-07 1 1 0
1  16 0 0 0.0349999999999999
0

0101000
+720 0 -720 1 *
Ed
 1e-07 1 1 0
1  17 0 0 0.0294044999277323
0

0101000
+725 0 -720 0 *
Wi

0101100
+724 0 -719 0 -718 0 +718 1 *
Fa
0  1e-07 8 0

0101000
+717 0 *
Ve
1e-07
7.492597 0.861418 1.4942
0 0

0101101
*
Ed
 1e-07 1 1 0
1  18 0 0 0.0349999999999999
0

0101000
+715 0 -715 1 *
Ed
 1e-07 1 1 0
1  19 0 0 0.0294053657178415
0

0101000
+720 0 -715 0 *
Wi

0101100
+719 0 -714 0 -713 0 +713 1 *
Fa
0  1e-07 9 0

0101000
+712 0 *
Ve
1e-07
7.520736 0.852882 1.4942
0 0

0101101
*
Ed
 1e-07 1 1 0
1  20 0 0 0.0349999999999999
0

0101000
+710 0 -710 1 *
Ed
 1e-07 1 1 0
1  21 0 0 0.0294052141124669
0

0101000
+715 0 -710 0 *
Wi

0101100
+714 0 -709 0 -708 0 +708 1 *
Fa
0  1e-07 10 0

0101000
+707 0 *
Ve
1e-07
7.55 0.85 1.4942
0 0

0101101
*
Ed
 1e-07 1 1 0
1  22 0 0 0.0349999999999999
0

0101000
+705 0 -705 1 *
Ed
 1e-07 1 1 0
1  23 0 0 0.0294055712408375
0

0101000
+710 0 -705 0 *
Wi

0101100
+709 0 -704 0 -703 0 +703 1 *
Fa
0  1e-07 11 0

0101000
+702 0 *
Ve
1e-07
7.579264 0.852882 1.4942
0 0

0101101
*
Ed
 1e-07 1 1 0
1  24 0 0 0.0349999999999999
0

0101000
+700 0 -700 1 *
Ed
 1e-07 1 1 0
1  25 0 0 0.0294055712408384
0

0101000
+705 0 -700 0 *
Wi

0101100
+704 0 -699 0 -698 0 +698 1 *
Fa
0  1e-07 12 0

0101000
+697 0 *
Ve
1e-07
7.607403 0.861418 1.4942
0 0

0101101
*
Ed
 1e-07 1 1 0
1  26 0 0 0.0349999999999999
0

0101000
+695 0 -695 1 *
Ed
 1e-07 1 1 0
1  27 0 0 0.029405214112466
0

0101000
+700 0 -695 0 *
Wi

0101100
+699 0 -694 0 -693 0 +693 1 *
Fa
0  1e-07 13 0

0101000
+692 0 *
Ve
1e-07
7.633336 0.87528 1.4942
0 0

0101101
*
Ed
 1e-07 1 1 0
1  28 0 0 0.0349999999999999
0

0101000
+690 0 -690 1 *
Ed
 1e-07 1 1 0
1  29 0 0 0.0294053657178415
0

0101000
+695 0 -690 0 *
Wi

0101100
+694 0 -689 0 -688 0 +688 1 *
Fa
0  1e-07 14 0

0101000
+687 0 *
Ve
1e-07
7.656066 0.893934 1.4942
0 0

0101101
*
Ed
 1e-07 1 1 0
1  30 0 0 0.0349999999999999
0

0101000
+685 0 -685 1 *
Ed
 1e-07 1 1 0
1  31 0 0 0.0294044999277323
0

0101000
+690 0 -685 0 *
Wi

0101100
+689 0 -684 0 -683 0 +683 1 *
Fa
0  1e-07 15 0

0101000
+682 0 *
Ve
1e-07
7.67472 0.916664 1.4942
0 0

0101101
*
Ed
 1e-07 1 1 0
1  32 0 0 0.0349999999999999
0

0101000
+680 0 -680 1 *
Ed
 1e-07 1 1 0
1  33 0 0 0.029404499927732
0

0101000
+685 0 -680 0 *
Wi

0101100
+684 0 -679 0 -678 0 +678 1 *
Fa
0  1e-07 16 0

0101000
+677 0 *
Ve
1e-07
7.688582 0.942597 1.4942
0 0

0101101
*
Ed
 1e-07 1 1 0
1  34 0 0 0.0349999999999999
0

0101000
+675 0 -675 1 *
Ed
 1e-07 1 1 0
1  35 0 0 0.0294053657178416
0

0101000
+680 0 -675 0 *
Wi

0101100
+679 0 -674 0 -673 0 +673 1 *
Fa
0  1e-07 17 0

0101000
+672 0 *
Ve
1e-07
7.697118 0.970736 1.4942
0 0

0101101
*
Ed
 1e-07 1 1 0
1  36 0 0 0.0349999999999999
0

0101000
+670 0 -670 1 *
Ed
 1e-07 1 1 0
1  37 0 0 0.0294052141124664
0

0101000
+675 0 -670 0 *
Wi

0101100
+674 0 -669 0 -668 0 +668 1 *
Fa
0  1e-07 18 0

0101000
+667 0 *
Ve
1e-07
7.7 1 1.4942
0 0

0101101
*
Ed
 1e-07 1 1 0
1  38 0 0 0.0349999999999999
0

0101000
+665 0 -665 1 *
Ed
 1e-07 1 1 0
1  39 0 0 0.029405571240838
0

0101000
+670 0 -665 0 *
Wi

0101100
+669 0 -664 0 -663 0 +663 1 *
Fa
0  1e-07 19 0

0101000
+662 0 *
Ve
1e-07
7.697377 1.026628 1.4942
0 0

0101101
*
Ed
 1e-07 1 1 0
1  40 0 0 0.0349999999999999
0

0101000
+660 0 -660 1 *
Ed
 1e-07 1 1 0
1  41 0 0 0.0267568778634579
0

0101000
+665 0 -660 0 *
Wi

0101100
+664 0 -659 0 -658 0 +658 1 *
Fa
0  1e-07 20 0

0101000
+657 0 *
Ve
1e-07
7.924807 1.156588 1.4942
0 0

0101101
*
Ed
 1e-07 1 1 0
1  42 0 0 0.0349999999999999
0

0101000
+655 0 -655 1 *
Ed
 1e-07 1 1 0
1  43 0 0 0.26194275424222
0

0101000
+660 0 -655 0 *
Wi

0101100
+659 0 -654 0 -653 0 +653 1 *
Fa
0  1e-07 21 0

0101000
+652 0 *
Ve
1e-07
7.926235 1.157601 1.4942
0 0

0101101
*
Ed
 1e-07 1 1 0
1  44 0 0 0.0349999999999999
0

0101000
+650 0 -650 1 *
Ed
 1e-07 1 1 0
1  45 0 0 0.00175081495310031
0

0101000
+655 0 -650 0 *
Wi

0101100
+654 0 -649 0 -648 0 +648 1 *
Fa
0  1e-07 22 0

0101000
+647 0 *
Ve
1e-07
7.927779 1.158427 1.4942
0 0

0101101
*
Ed
 1e-07 1 1 0
1  46 0 0 0.0349999999999999
0

0101000
+645 0 -645 1 *
Ed
 1e-07 1 1 0
1  47 0 0 0.00175106025024839
0

0101000
+650 0 -645 0 *
Wi

0101100
+649 0 -644 0 -643 0 +643 1 *
Fa
0  1e-07 23 0

0101000
+642 0 *
Ve
1e-07
7.930222 1.160432 1.4942
0 0

0101101
*
Ed
 1e-07 1 1 0
1  48 0 0 0.0349999999999999
0

0101000
+640 0 -640 1 *
Ed
 1e-07 1 1 0
1  49 0 0 0.00316042307294402
0

0101000
+645 0 -640 0 *
Wi

0101100
+644 0 -639 0 -638 0 +638 1 *
Fa
0  1e-07 24 0

0101000
+637 0 *
Ve
1e-07
7.9328 1.162262 1.4942
0 0

0101101
*
Ed
 1e-07 1 1 0
1  50 0 0 0.0349999999999999
0

0101000
+635 0 -635 1 *
Ed
 1e-07 1 1 0
1  51 0 0 0.00316148446145213
0

0101000
+640 0 -635 0 *
Wi

0101100
+639 0 -634 0 -633 0 +633 1 *
Fa
0  1e-07 25 0

0101000
+632 0 *
Ve
1e-07
7.934002 1.163534 1.4942
0 0

0101101
*
Ed
 1e-07 1 1 0
1  52 0 0 0.0349999999999999
0

0101000
+630 0 -630 1 *
Ed
 1e-07 1 1 0
1  53 0 0 0.00175008228378004
0

0101000
+635 0 -630 0 *
Wi

0101100
+634 0 -629 0 -628 0 +628 1 *
Fa
0  1e-07 26 0

0101000
+627 0 *
Ve
1e-07
7.935355 1.164645 1.4942
0 0

0101101
*
Ed
 1e-07 1 1 0
1  54 0 0 0.0349999999999999
0

0101000
+625 0 -625 1 *
Ed
 1e-07 1 1 0
1  55 0 0 0.00175069414804515
0

0101000
+630 0 -625 0 *
Wi

0101100
+629 0 -624 0 -623 0 +623 1 *
Fa
0  1e-07 27 0

0101000
+622 0 *
Ve
1e-07
7.937361 1.167088 1.4942
0 0

0101101
*
Ed
 1e-07 1 1 0
1  56 0 0 0.0349999999999999
0

0101000
+620 0 -620 1 *
Ed
 1e-07 1 1 0
1  57 0 0 0.00316105757619167
0

0101000
+625 0 -620 0 *
Wi

0101100
+624 0 -619 0 -618 0 +618 1 *
Fa
0  1e-07 28 0

0101000
+617 0 *
Ve
1e-07
7.939532 1.169386 1.4942
0 0

0101101
*
Ed
 1e-07 1 1 0
1  58 0 0 0.0349999999999999
0

0101000
+615 0 -615 1 *
Ed
 1e-07 1 1 0
1  59 0 0 0.00316133595177724
0

0101000
+620 0 -615 0 *
Wi

0101100
+619 0 -614 0 -613 0 +613 1 *
Fa
0  1e-07 29 0

0101000
+612 0 *
Ve
1e-07
7.940463 1.170868 1.4942
0 0

0101101
*
Ed
 1e-07 1 1 0
1  60 0 0 0.0349999999999999
0

0101000
+610 0 -610 1 *
Ed
 1e-07 1 1 0
1  61 0 0 0.00175016713487621
0

0101000
+615 0 -610 0 *
Wi

0101100
+614 0 -609 0 -608 0 +608 1 *
Fa
0  1e-07 30 0

0101000
+607 0 *
Ve
1e-07
7.941573 1.172221 1.4942
0 0

0101101
*
Ed
 1e-07 1 1 0
1  62 0 0 0.0349999999999999
0

0101000
+605 0 -605 1 *
Ed
 1e-07 1 1 0
1  63 0 0 0.00175005971326673
0

0101000
+610 0 -605 0 *
Wi

0101100
+609 0 -604 0 -603 0 +603 1 *
Fa
0  1e-07 31 0

0101000
+602 0 *
Ve
1e-07
7.943064 1.175009 1.4942
0 0

0101101
*
Ed
 1e-07 1 1 0
1  64 0 0 0.0349999999999999
0

0101000
+600 0 -600 1 *
Ed
 1e-07 1 1 0
1  65 0 0 0.00316164909501341
0

0101000
+605 0 -600 0 *
Wi

0101100
+604 0 -599 0 -598 0 +598 1 *
Fa
0  1e-07 32 0

0101000
+597 0 *
Ve
1e-07
7.944745 1.177686 1.4942
0 0

0101101
*
Ed
 1e-07 1 1 0
1  66 0 0 0.0349999999999999
0

0101000
+595 0 -595 1 *
Ed
 1e-07 1 1 0
1  67 0 0 0.00316102673193408
0

0101000
+600 0 -595 0 *
Wi

0101100
+599 0 -594 0 -593 0 +593 1 *
Fa
0  1e-07 33 0

0101000
+592 0 *
Ve
1e-07
7.945369 1.179322 1.4942
0 0

0101101
*
Ed
 1e-07 1 1 0
1  68 0 0 0.0349999999999999
0

0101000
+590 0 -590 1 *
Ed
 1e-07 1 1 0
1  69 0 0 0.0017509631635189
0

0101000
+595 0 -590 0 *
Wi

0101100
+594 0 -589 0 -588 0 +588 1 *
Fa
0  1e-07 34 0

0101000
+587 0 *
Ve
1e-07
7.946194 1.180866 1.4942
0 0

0101101
*
Ed
 1e-07 1 1 0
1  70 0 0 0.0349999999999999
0

0101000
+585 0 -585 1 *
Ed
 1e-07 1 1 0
1  71 0 0 0.00175058875810389
0

0101000
+590 0 -585 0 *
Wi

0101100
+589 0 -584 0 -583 0 +583 1 *
Fa
0  1e-07 35 0

0101000
+582 0 *
Ve
1e-07
7.947112 1.183891 1.4942
0 0

0101101
*
Ed
 1e-07 1 1 0
1  72 0 0 0.0349999999999999
0

0101000
+580 0 -580 1 *
Ed
 1e-07 1 1 0
1  73 0 0 0.00316122586981688
0

0101000
+585 0 -580 0 *
Wi

0101100
+584 0 -579 0 -578 0 +578 1 *
Fa
0  1e-07 36 0

0101000
+577 0 *
Ve
1e-07
7.948238 1.186844 1.4942
0 0

0101101
*
Ed
 1e-07 1 1 0
1  74 0 0 0.0349999999999999
0

0101000
+575 0 -575 1 *
Ed
 1e-07 1 1 0
1  75 0 0 0.00316039317174308
0

0101000
+580 0 -575 0 *
Wi

0101100
+579 0 -574 0 -573 0 +573 1 *
Fa
0  1e-07 37 0

0101000
+572 0 *
Ve
1e-07
7.948531 1.18857 1.4942
0 0

0101101
*
Ed
 1e-07 1 1 0
1  76 0 0 0.0349999999999999
0

0101000
+570 0 -570 1 *
Ed
 1e-07 1 1 0
1  77 0 0 0.00175069272003961
0

0101000
+575 0 -570 0 *
Wi

0101100
+574 0 -569 0 -568 0 +568 1 *
Fa
0  1e-07 38 0

0101000
+567 0 *
Ve
1e-07
7.949039 1.190245 1.4942
0 0

0101101
*
Ed
 1e-07 1 1 0
1  78 0 0 0.0349999999999999
0

0101000
+565 0 -565 1 *
Ed
 1e-07 1 1 0
1  79 0 0 0.0017503396813191
0

0101000
+570 0 -565 0 *
Wi

0101100
+569 0 -564 0 -563 0 +563 1 *
Fa
0  1e-07 39 0

0101000
+562 0 *
Ve
1e-07
7.949349 1.193391 1.4942
0 0

0101101
*
Ed
 1e-07 1 1 0
1  80 0 0 0.0349999999999999
0

0101000
+560 0 -560 1 *
Ed
 1e-07 1 1 0
1  81 0 0 0.0031612364669541
0

0101000
+565 0 -560 0 *
Wi

0101100
+564 0 -559 0 -558 0 +558 1 *
Fa
0  1e-07 40 0

0101000
+557 0 *
Ve
1e-07
7.949878 1.196508 1.4942
0 0

0101101
*
Ed
 1e-07 1 1 0
1  82 0 0 0.0349999999999999
0

0101000
+555 0 -555 1 *
Ed
 1e-07 1 1 0
1  83 0 0 0.00316157081211209
0

0101000
+560 0 -555 0 *
Wi

0101100
+559 0 -554 0 -553 0 +553 1 *
Fa
0  1e-07 41 0

0101000
+552 0 *
Ve
1e-07
7.949828 1.198258 1.4942
0 0

0101101
*
Ed
 1e-07 1 1 0
1  84 0 0 0.0349999999999999
0

0101000
+550 0 -550 1 *
Ed
 1e-07 1 1 0
1  85 0 0 0.0017507141400013
0

0101000
+555 0 -550 0 *
Wi

0101100
+554 0 -549 0 -548 0 +548 1 *
Fa
0  1e-07 42 0

0101000
+547 0 *
Ve
1e-07
7.95 1.2 1.4942
0 0

0101101
*
Ed
 1e-07 1 1 0
1  86 0 0 0.0349999999999999
0

0101000
+545 0 -545 1 *
Ed
 1e-07 1 1 0
1  87 0 0 0.00175047079381511
0

0101000
+550 0 -545 0 *
Wi

0101100
+549 0 -544 0 -543 0 +543 1 *
Fa
0  1e-07 43 0

0101000
+542 0 *
Ve
1e-07
7.94969 1.203146 1.4942
0 0

0101101
*
Ed
 1e-07 1 1 0
1  88 0 0 0.0349999999999999
0

0101000
+540 0 -540 1 *
Ed
 1e-07 1 1 0
1  89 0 0 0.0031612364669541
0

0101000
+545 0 -540 0 *
Wi

0101100
+544 0 -539 0 -538 0 +538 1 *
Fa
0  1e-07 44 0

0101000
+537 0 *
Ve
1e-07
7.949601 1.206306 1.4942
0 0

0101101
*
Ed
 1e-07 1 1 0
1  90 0 0 0.0349999999999999
0

0101000
+535 0 -535 1 *
Ed
 1e-07 1 1 0
1  91 0 0 0.00316125307433624
0

0101000
+540 0 -535 0 *
Wi

0101100
+539 0 -534 0 -533 0 +533 1 *
Fa
0  1e-07 45 0

0101000
+532 0 *
Ve
1e-07
7.949211 1.208012 1.4942
0 0

0101101
*
Ed
 1e-07 1 1 0
1  92 0 0 0.0349999999999999
0

0101000
+530 0 -530 1 *
Ed
 1e-07 1 1 0
1  93 0 0 0.00175001028568412
0

0101000
+535 0 -530 0 *
Wi

0101100
+534 0 -529 0 -528 0 +528 1 *
Fa
0  1e-07 46 0

0101000
+527 0 *
Ve
1e-07
7.949039 1.209755 1.4942
0 0

0101101
*
Ed
 1e-07 1 1 0
1  94 0 0 0.0349999999999999
0

0101000
+525 0 -525 1 *
Ed
 1e-07 1 1 0
1  95 0 0 0.0017514659574195
0

0101000
+530 0 -525 0 *
Wi

0101100
+529 0 -524 0 -523 0 +523 1 *
Fa
0  1e-07 47 0

0101000
+522 0 *
Ve
1e-07
7.948122 1.212779 1.4942
0 0

0101101
*
Ed
 1e-07 1 1 0
1  96 0 0 0.0349999999999999
0

0101000
+520 0 -520 1 *
Ed
 1e-07 1 1 0
1  97 0 0 0.00315997863916852
0

0101000
+525 0 -520 0 *
Wi

0101100
+524 0 -519 0 -518 0 +518 1 *
Fa
0  1e-07 48 0

0101000
+517 0 *
Ve
1e-07
7.947418 1.215861 1.4942
0 0

0101101
*
Ed
 1e-07 1 1 0
1  98 0 0 0.0349999999999999
0

0101000
+515 0 -515 1 *
Ed
 1e-07 1 1 0
1  99 0 0 0.00316138260892286
0

0101000
+520 0 -515 0 *
Wi

0101100
+519 0 -514 0 -513 0 +513 1 *
Fa
0  1e-07 49 0

0101000
+512 0 *
Ve
1e-07
7.946702 1.217459 1.4942
0 0

0101101
*
Ed
 1e-07 1 1 0
1  100 0 0 0.0349999999999999
0

0101000
+510 0 -510 1 *
Ed
 1e-07 1 1 0
1  101 0 0 0.00175107395617648
0

0101000
+515 0 -510 0 *
Wi

0101100
+514 0 -509 0 -508 0 +508 1 *
Fa
0  1e-07 50 0

0101000
+507 0 *
Ve
1e-07
7.946194 1.219134 1.4942
0 0

0101101
*
Ed
 1e-07 1 1 0
1  102 0 0 0.0349999999999999
0

0101000
+505 0 -505 1 *
Ed
 1e-07 1 1 0
1  103 0 0 0.00175033968131889
0

0101000
+510 0 -505 0 *
Wi

0101100
+509 0 -504 0 -503 0 +503 1 *
Fa
0  1e-07 51 0

0101000
+502 0 *
Ve
1e-07
7.944704 1.221922 1.4942
0 0

0101101
*
Ed
 1e-07 1 1 0
1  104 0 0 0.0349999999999999
0

0101000
+500 0 -500 1 *
Ed
 1e-07 1 1 0
1  105 0 0 0.00316117762866963
0

0101000
+505 0 -500 0 *
Wi

0101100
+504 0 -499 0 -498 0 +498 1 *
Fa
0  1e-07 52 0

0101000
+497 0 *
Ve
1e-07
7.943412 1.224807 1.4942
0 0

0101101
*
Ed
 1e-07 1 1 0
1  106 0 0 0.0349999999999999
0

0101000
+495 0 -495 1 *
Ed
 1e-07 1 1 0
1  107 0 0 0.00316108984370875
0

0101000
+500 0 -495 0 *
Wi

0101100
+499 0 -494 0 -493 0 +493 1 *
Fa
0  1e-07 53 0

0101000
+492 0 *
Ve
1e-07
7.942399 1.226235 1.4942
0 0

0101101
*
Ed
 1e-07 1 1 0
1  108 0 0 0.0349999999999999
0

0101000
+490 0 -490 1 *
Ed
 1e-07 1 1 0
1  109 0 0 0.00175081495310062
0

0101000
+495 0 -490 0 *
Wi

0101100
+494 0 -489 0 -488 0 +488 1 *
Fa
0  1e-07 54 0

0101000
+487 0 *
Ve
1e-07
7.941573 1.227779 1.4942
0 0

0101101
*
Ed
 1e-07 1 1 0
1  110 0 0 0.0349999999999999
0

0101000
+485 0 -485 1 *
Ed
 1e-07 1 1 0
1  111 0 0 0.00175106025024839
0

0101000
+490 0 -485 0 *
Wi

0101100
+489 0 -484 0 -483 0 +483 1 *
Fa
0  1e-07 55 0

0101000
+482 0 *
Ve
1e-07
7.939568 1.230222 1.4942
0 0

0101101
*
Ed
 1e-07 1 1 0
1  112 0 0 0.0349999999999999
0

0101000
+480 0 -480 1 *
Ed
 1e-07 1 1 0
1  113 0 0 0.00316042307294423
0

0101000
+485 0 -480 0 *
Wi

0101100
+484 0 -479 0 -478 0 +478 1 *
Fa
0  1e-07 56 0

0101000
+477 0 *
Ve
1e-07
7.937738 1.2328 1.4942
0 0

0101101
*
Ed
 1e-07 1 1 0
1  114 0 0 0.0349999999999999
0

0101000
+475 0 -475 1 *
Ed
 1e-07 1 1 0
1  115 0 0 0.00316148446145159
0

0101000
+480 0 -475 0 *
Wi

0101100
+479 0 -474 0 -473 0 +473 1 *
Fa
0  1e-07 57 0

0101000
+472 0 *
Ve
1e-07
7.936466 1.234002 1.4942
0 0

0101101
*
Ed
 1e-07 1 1 0
1  116 0 0 0.0349999999999999
0

0101000
+470 0 -470 1 *
Ed
 1e-07 1 1 0
1  117 0 0 0.00175008228378004
0

0101000
+475 0 -470 0 *
Wi

0101100
+474 0 -469 0 -468 0 +468 1 *
Fa
0  1e-07 58 0

0101000
+467 0 *
Ve
1e-07
7.935355 1.235355 1.4942
0 0

0101101
*
Ed
 1e-07 1 1 0
1  118 0 0 0.0349999999999999
0

0101000
+465 0 -465 1 *
Ed
 1e-07 1 1 0
1  119 0 0 0.00175069414804515
0

0101000
+470 0 -465 0 *
Wi

0101100
+469 0 -464 0 -463 0 +463 1 *
Fa
0  1e-07 59 0

0101000
+462 0 *
Ve
1e-07
7.932912 1.237361 1.4942
0 0

0101101
*
Ed
 1e-07 1 1 0
1  120 0 0 0.0349999999999999
0

0101000
+460 0 -460 1 *
Ed
 1e-07 1 1 0
1  121 0 0 0.00316105757619216
0

0101000
+465 0 -460 0 *
Wi

0101100
+464 0 -459 0 -458 0 +458 1 *
Fa
0  1e-07 60 0

0101000
+457 0 *
Ve
1e-07
7.930614 1.239532 1.4942
0 0

0101101
*
Ed
 1e-07 1 1 0
1  122 0 0 0.0349999999999999
0

0101000
+455 0 -455 1 *
Ed
 1e-07 1 1 0
1  123 0 0 0.00316133595177722
0

0101000
+460 0 -455 0 *
Wi

0101100
+459 0 -454 0 -453 0 +453 1 *
Fa
0  1e-07 61 0

0101000
+452 0 *
Ve
1e-07
7.929132 1.240463 1.4942
0 0

0101101
*
Ed
 1e-07 1 1 0
1  124 0 0 0.0349999999999999
0

0101000
+450 0 -450 1 *
Ed
 1e-07 1 1 0
1  125 0 0 0.00175016713487616
0

0101000
+455 0 -450 0 *
Wi

0101100
+454 0 -449 0 -448 0 +448 1 *
Fa
0  1e-07 62 0

0101000
+447 0 *
Ve
1e-07
7.927779 1.241573 1.4942
0 0

0101101
*
Ed
 1e-07 1 1 0
1  126 0 0 0.0349999999999999
0

0101000
+445 0 -445 1 *
Ed
 1e-07 1 1 0
1  127 0 0 0.00175005971326687
0

0101000
+450 0 -445 0 *
Wi

0101100
+449 0 -444 0 -443 0 +443 1 *
Fa
0  1e-07 63 0

0101000
+442 0 *
Ve
1e-07
7.924991 1.243064 1.4942
0 0

0101101
*
Ed
 1e-07 1 1 0
1  128 0 0 0.0349999999999999
0

0101000
+440 0 -440 1 *
Ed
 1e-07 1 1 0
1  129 0 0 0.00316164909501332
0

0101000
+445 0 -440 0 *
Wi

0101100
+444 0 -439 0 -438 0 +438 1 *
Fa
0  1e-07 64 0

0101000
+437 0 *
Ve
1e-07
7.922314 1.244745 1.4942
0 0

0101101
*
Ed
 1e-07 1 1 0
1  130 0 0 0.0349999999999999
0

0101000
+435 0 -435 1 *
Ed
 1e-07 1 1 0
1  131 0 0 0.00316102673193403
0

0101000
+440 0 -435 0 *
Wi

0101100
+439 0 -434 0 -433 0 +433 1 *
Fa
0  1e-07 65 0

0101000
+432 0 *
Ve
1e-07
7.920678 1.245369 1.4942
0 0

0101101
*
Ed
 1e-07 1 1 0
1  132 0 0 0.0349999999999999
0

0101000
+430 0 -430 1 *
Ed
 1e-07 1 1 0
1  133 0 0 0.00175096316351924
0

0101000
+435 0 -430 0 *
Wi

0101100
+434 0 -429 0 -428 0 +428 1 *
Fa
0  1e-07 66 0

0101000
+427 0 *
Ve
1e-07
7.919134 1.246194 1.4942
0 0

0101101
*
Ed
 1e-07 1 1 0
1  134 0 0 0.0349999999999999
0

0101000
+425 0 -425 1 *
Ed
 1e-07 1 1 0
1  135 0 0 0.001750588758104
0

0101000
+430 0 -425 0 *
Wi

0101100
+429 0 -424 0 -423 0 +423 1 *
Fa
0  1e-07 67 0

0101000
+422 0 *
Ve
1e-07
7.916109 1.247112 1.4942
0 0

0101101
*
Ed
 1e-07 1 1 0
1  136 0 0 0.0349999999999999
0

0101000
+420 0 -420 1 *
Ed
 1e-07 1 1 0
1  137 0 0 0.00316122586981701
0

0101000
+425 0 -420 0 *
Wi

0101100
+424 0 -419 0 -418 0 +418 1 *
Fa
0  1e-07 68 0

0101000
+417 0 *
Ve
1e-07
7.913156 1.248238 1.4942
0 0

0101101
*
Ed
 1e-07 1 1 0
1  138 0 0 0.0349999999999999
0

0101000
+415 0 -415 1 *
Ed
 1e-07 1 1 0
1  139 0 0 0.0031603931717428
0

0101000
+420 0 -415 0 *
Wi

0101100
+419 0 -414 0 -413 0 +413 1 *
Fa
0  1e-07 69 0

0101000
+412 0 *
Ve
1e-07
7.91143 1.248531 1.4942
0 0

0101101
*
Ed
 1e-07 1 1 0
1  140 0 0 0.0349999999999999
0

0101000
+410 0 -410 1 *
Ed
 1e-07 1 1 0
1  141 0 0 0.00175069272003939
0

0101000
+415 0 -410 0 *
Wi

0101100
+414 0 -409 0 -408 0 +408 1 *
Fa
0  1e-07 70 0

0101000
+407 0 *
Ve
1e-07
7.909755 1.249039 1.4942
0 0

0101101
*
Ed
 1e-07 1 1 0
1  142 0 0 0.0349999999999999
0

0101000
+405 0 -405 1 *
Ed
 1e-07 1 1 0
1  143 0 0 0.00175033968131953
0

0101000
+410 0 -405 0 *
Wi

0101100
+409 0 -404 0 -403 0 +403 1 *
Fa
0  1e-07 71 0

0101000
+402 0 *
Ve
1e-07
7.906609 1.249349 1.4942
0 0

0101101
*
Ed
 1e-07 1 1 0
1  144 0 0 0.0349999999999999
0

0101000
+400 0 -400 1 *
Ed
 1e-07 1 1 0
1  145 0 0 0.00316123646695324
0

0101000
+405 0 -400 0 *
Wi

0101100
+404 0 -399 0 -398 0 +398 1 *
Fa
0  1e-07 72 0

0101000
+397 0 *
Ve
1e-07
7.903492 1.249878 1.4942
0 0

0101101
*
Ed
 1e-07 1 1 0
1  146 0 0 0.0349999999999999
0

0101000
+395 0 -395 1 *
Ed
 1e-07 1 1 0
1  147 0 0 0.00316157081211271
0

0101000
+400 0 -395 0 *
Wi

0101100
+399 0 -394 0 -393 0 +393 1 *
Fa
0  1e-07 73 0

0101000
+392 0 *
Ve
1e-07
7.901742 1.249828 1.4942
0 0

0101101
*
Ed
 1e-07 1 1 0
1  148 0 0 0.0349999999999999
0

0101000
+390 0 -390 1 *
Ed
 1e-07 1 1 0
1  149 0 0 0.00175071414000152
0

0101000
+395 0 -390 0 *
Wi

0101100
+394 0 -389 0 -388 0 +388 1 *
Fa
0  1e-07 74 0

0101000
+387 0 *
Ve
1e-07
7.9 1.25 1.4942
0 0

0101101
*
Ed
 1e-07 1 1 0
1  150 0 0 0.0349999999999999
0

0101000
+385 0 -385 1 *
Ed
 1e-07 1 1 0
1  151 0 0 0.00175047079381445
0

0101000
+390 0 -385 0 *
Wi

0101100
+389 0 -384 0 -383 0 +383 1 *
Fa
0  1e-07 75 0

0101000
+382 0 *
Ve
1e-07
6.992826 1.25 1.4942
0 0

0101101
*
Ed
 1e-07 1 1 0
1  152 0 0 0.0349999999999999
0

0101000
+380 0 -380 1 *
Ed
 1e-07 1 1 0
1  153 0 0 0.907174
0

0101000
+385 0 -380 0 *
Wi

0101100
+384 0 -379 0 -378 0 +378 1 *
Fa
0  1e-07 76 0

0101000
+377 0 *
Ve
1e-07
6.984776 1.276537 1.4942
0 0

0101101
*
Ed
 1e-07 1 1 0
1  154 0 0 0.0349999999999999
0

0101000
+375 0 -375 1 *
Ed
 1e-07 1 1 0
1  155 0 0 0.027731117341355
0

0101000
+380 0 -375 0 *
Wi

0101100
+379 0 -374 0 -373 0 +373 1 *
Fa
0  1e-07 77 0

0101000
+372 0 *
Ve
1e-07
6.966294 1.311114 1.4942
0 0

0101101
*
Ed
 1e-07 1 1 0
1  156 0 0 0.0349999999999999
0

0101000
+370 0 -370 1 *
Ed
 1e-07 1 1 0
1  157 0 0 0.0392065460478219
0

0101000
+375 0 -370 0 *
Wi

0101100
+374 0 -369 0 -368 0 +368 1 *
Fa
0  1e-07 78 0

0101000
+367 0 *
Ve
1e-07
6.941421 1.341421 1.4942
0 0

0101101
*
Ed
 1e-07 1 1 0
1  158 0 0 0.0349999999999999
0

0101000
+365 0 -365 1 *
Ed
 1e-07 1 1 0
1  159 0 0 0.039206891970673
0

0101000
+370 0 -365 0 *
Wi

0101100
+369 0 -364 0 -363 0 +363 1 *
Fa
0  1e-07 79 0

0101000
+362 0 *
Ve
1e-07
6.911114 1.366294 1.4942
0 0

0101101
*
Ed
 1e-07 1 1 0
1  160 0 0 0.0349999999999999
0

0101000
+360 0 -360 1 *
Ed
 1e-07 1 1 0
1  161 0 0 0.0392068919706724
0

0101000
+365 0 -360 0 *
Wi

0101100
+364 0 -359 0 -358 0 +358 1 *
Fa
0  1e-07 80 0

0101000
+357 0 *
Ve
1e-07
6.876537 1.384776 1.4942
0 0

0101101
*
Ed
 1e-07 1 1 0
1  162 0 0 0.0349999999999999
0

0101000
+355 0 -355 1 *
Ed
 1e-07 1 1 0
1  163 0 0 0.0392065460478227
0

0101000
+360 0 -355 0 *
Wi

0101100
+359 0 -354 0 -353 0 +353 1 *
Fa
0  1e-07 81 0

0101000
+352 0 *
Ve
1e-07
6.839018 1.396157 1.4942
0 0

0101101
*
Ed
 1e-07 1 1 0
1  164 0 0 0.0349999999999999
0

0101000
+350 0 -350 1 *
Ed
 1e-07 1 1 0
1  165 0 0 0.0392071743689847
0

0101000
+355 0 -350 0 *
Wi

0101100
+354 0 -349 0 -348 0 +348 1 *
Fa
0  1e-07 82 0

0101000
+347 0 *
Ve
1e-07
6.8 1.4 1.4942
0 0

0101101
*
Ed
 1e-07 1 1 0
1  166 0 0 0.0349999999999999
0

0101000
+345 0 -345 1 *
Ed
 1e-07 1 1 0
1  167 0 0 0.0392067975356319
0

0101000
+350 0 -345 0 *
Wi

0101100
+349 0 -344 0 -343 0 +343 1 *
Fa
0  1e-07 83 0

0101000
+342 0 *
Ve
1e-07
6.760982 1.396157 1.4942
0 0

0101101
*
Ed
 1e-07 1 1 0
1  168 0 0 0.0349999999999999
0

0101000
+340 0 -340 1 *
Ed
 1e-07 1 1 0
1  169 0 0 0.039206797535631
0

0101000
+345 0 -340 0 *
Wi

0101100
+344 0 -339 0 -338 0 +338 1 *
Fa
0  1e-07 84 0

0101000
+337 0 *
Ve
1e-07
6.723463 1.384776 1.4942
0 0

0101101
*
Ed
 1e-07 1 1 0
1  170 0 0 0.0349999999999999
0

0101000
+335 0 -335 1 *
Ed
 1e-07 1 1 0
1  171 0 0 0.0392071743689856
0

0101000
+340 0 -335 0 *
Wi

0101100
+339 0 -334 0 -333 0 +333 1 *
Fa
0  1e-07 85 0

0101000
+332 0 *
Ve
1e-07
6.688886 1.366294 1.4942
0 0

0101101
*
Ed
 1e-07 1 1 0
1  172 0 0 0.0349999999999999
0

0101000
+330 0 -330 1 *
Ed
 1e-07 1 1 0
1  173 0 0 0.0392065460478219
0

0101000
+335 0 -330 0 *
Wi

0101100
+334 0 -329 0 -328 0 +328 1 *
Fa
0  1e-07 86 0

0101000
+327 0 *
Ve
1e-07
6.658579 1.341421 1.4942
0 0

0101101
*
Ed
 1e-07 1 1 0
1  174 0 0 0.0349999999999999
0

0101000
+325 0 -325 1 *
Ed
 1e-07 1 1 0
1  175 0 0 0.0392068919706731
0

0101000
+330 0 -325 0 *
Wi

0101100
+329 0 -324 0 -323 0 +323 1 *
Fa
0  1e-07 87 0

0101000
+322 0 *
Ve
1e-07
6.633706 1.311114 1.4942
0 0

0101101
*
Ed
 1e-07 1 1 0
1  176 0 0 0.0349999999999999
0

0101000
+320 0 -320 1 *
Ed
 1e-07 1 1 0
1  177 0 0 0.0392068919706724
0

0101000
+325 0 -320 0 *
Wi

0101100
+324 0 -319 0 -318 0 +318 1 *
Fa
0  1e-07 88 0

0101000
+317 0 *
Ve
1e-07
6.615224 1.276537 1.4942
0 0

0101101
*
Ed
 1e-07 1 1 0
1  178 0 0 0.0349999999999999
0

0101000
+315 0 -315 1 *
Ed
 1e-07 1 1 0
1  179 0 0 0.0392065460478219
0

0101000
+320 0 -315 0 *
Wi

0101100
+319 0 -314 0 -313 0 +313 1 *
Fa
0  1e-07 89 0

0101000
+312 0 *
Ve
1e-07
6.603843 1.239018 1.4942
0 0

0101101
*
Ed
 1e-07 1 1 0
1  180 0 0 0.0349999999999999
0

0101000
+310 0 -310 1 *
Ed
 1e-07 1 1 0
1  181 0 0 0.0392071743689852
0

0101000
+315 0 -310 0 *
Wi

0101100
+314 0 -309 0 -308 0 +308 1 *
Fa
0  1e-07 90 0

0101000
+307 0 *
Ve
1e-07
6.6 1.2 1.4942
0 0

0101101
*
Ed
 1e-07 1 1 0
1  182 0 0 0.0349999999999999
0

0101000
+305 0 -305 1 *
Ed
 1e-07 1 1 0
1  183 0 0 0.0392067975356316
0

0101000
+310 0 -305 0 *
Wi

0101100
+309 0 -304 0 -303 0 +303 1 *
Fa
0  1e-07 91 0

0101000
+302 0 *
Ve
1e-07
6.603843 1.160982 1.4942
0 0

0101101
*
Ed
 1e-07 1 1 0
1  184 0 0 0.0349999999999999
0

0101000
+300 0 -300 1 *
Ed
 1e-07 1 1 0
1  185 0 0 0.0392067975356316
0

0101000
+305 0 -300 0 *
Wi

0101100
+304 0 -299 0 -298 0 +298 1 *
Fa
0  1e-07 92 0

0101000
+297 0 *
Ve
1e-07
6.615224 1.123463 1.4942
0 0

0101101
*
Ed
 1e-07 1 1 0
1  186 0 0 0.0349999999999999
0

0101000
+295 0 -295 1 *
Ed
 1e-07 1 1 0
1  187 0 0 0.039207174368985
0

0101000
+300 0 -295 0 *
Wi

0101100
+299 0 -294 0 -293 0 +293 1 *
Fa
0  1e-07 93 0

0101000
+292 0 *
Ve
1e-07
6.633706 1.088886 1.4942
0 0

0101101
*
Ed
 1e-07 1 1 0
1  188 0 0 0.0349999999999999
0

0101000
+290 0 -290 1 *
Ed
 1e-07 1 1 0
1  189 0 0 0.0392065460478221
0

0101000
+295 0 -290 0 *
Wi

0101100
+294 0 -289 0 -288 0 +288 1 *
Fa
0  1e-07 94 0

0101000
+287 0 *
Ve
1e-07
6.658579 1.058579 1.4942
0 0

0101101
*
Ed
 1e-07 1 1 0
1  190 0 0 0.0349999999999999
0

0101000
+285 0 -285 1 *
Ed
 1e-07 1 1 0
1  191 0 0 0.0392068919706724
0

0101000
+290 0 -285 0 *
Wi

0101100
+289 0 -284 0 -283 0 +283 1 *
Fa
0  1e-07 95 0

0101000
+282 0 *
Ve
1e-07
6.688886 1.033706 1.4942
0 0

0101101
*
Ed
 1e-07 1 1 0
1  192 0 0 0.0349999999999999
0

0101000
+280 0 -280 1 *
Ed
 1e-07 1 1 0
1  193 0 0 0.0392068919706731
0

0101000
+285 0 -280 0 *
Wi

0101100
+284 0 -279 0 -278 0 +278 1 *
Fa
0  1e-07 96 0

0101000
+277 0 *
Ve
1e-07
6.723463 1.015224 1.4942
0 0

0101101
*
Ed
 1e-07 1 1 0
1  194 0 0 0.0349999999999999
0

0101000
+275 0 -275 1 *
Ed
 1e-07 1 1 0
1  195 0 0 0.0392065460478219
0

0101000
+280 0 -275 0 *
Wi

0101100
+279 0 -274 0 -273 0 +273 1 *
Fa
0  1e-07 97 0

0101000
+272 0 *
Ve
1e-07
6.760982 1.003843 1.4942
0 0

0101101
*
Ed
 1e-07 1 1 0
1  196 0 0 0.0349999999999999
0

0101000
+270 0 -270 1 *
Ed
 1e-07 1 1 0
1  197 0 0 0.0392071743689855
0

0101000
+275 0 -270 0 *
Wi

0101100
+274 0 -269 0 -268 0 +268 1 *
Fa
0  1e-07 98 0

0101000
+267 0 *
Ve
1e-07
6.8 1 1.4942
0 0

0101101
*
Ed
 1e-07 1 1 0
1  198 0 0 0.0349999999999999
0

0101000
+265 0 -265 1 *
Ed
 1e-07 1 1 0
1  199 0 0 0.0392067975356311
0

0101000
+270 0 -265 0 *
Wi

0101100
+269 0 -264 0 -263 0 +263 1 *
Fa
0  1e-07 99 0

0101000
+262 0 *
Ve
1e-07
6.839018 1.003843 1.4942
0 0

0101101
*
Ed
 1e-07 1 1 0
1  200 0 0 0.0349999999999999
0

0101000
+260 0 -260 1 *
Ed
 1e-07 1 1 0
1  201 0 0 0.0392067975356319
0

0101000
+265 0 -260 0 *
Wi

0101100
+264 0 -259 0 -258 0 +258 1 *
Fa
0  1e-07 100 0

0101000
+257 0 *
Ve
1e-07
6.876537 1.015224 1.4942
0 0

0101101
*
Ed
 1e-07 1 1 0
1  202 0 0 0.0349999999999999
0

0101000
+255 0 -255 1 *
Ed
 1e-07 1 1 0
1  203 0 0 0.0392071743689847
0

0101000
+260 0 -255 0 *
Wi

0101100
+259 0 -254 0 -253 0 +253 1 *
Fa
0  1e-07 101 0

0101000
+252 0 *
Ve
1e-07
6.911114 1.033706 1.4942
0 0

0101101
*
Ed
 1e-07 1 1 0
1  204 0 0 0.0349999999999999
0

0101000
+250 0 -250 1 *
Ed
 1e-07 1 1 0
1  205 0 0 0.0392065460478227
0

0101000
+255 0 -250 0 *
Wi

0101100
+254 0 -249 0 -248 0 +248 1 *
Fa
0  1e-07 102 0

0101000
+247 0 *
Ve
1e-07
6.941421 1.058579 1.4942
0 0

0101101
*
Ed
 1e-07 1 1 0
1  206 0 0 0.0349999999999999
0

0101000
+245 0 -245 1 *
Ed
 1e-07 1 1 0
1  207 0 0 0.0392068919706724
0

0101000
+250 0 -245 0 *
Wi

0101100
+249 0 -244 0 -243 0 +243 1 *
Fa
0  1e-07 103 0

0101000
+242 0 *
Ve
1e-07
6.966294 1.088886 1.4942
0 0

0101101
*
Ed
 1e-07 1 1 0
1  208 0 0 0.0349999999999999
0

0101000
+240 0 -240 1 *
Ed
 1e-07 1 1 0
1  209 0 0 0.039206891970673
0

0101000
+245 0 -240 0 *
Wi

0101100
+244 0 -239 0 -238 0 +238 1 *
Fa
0  1e-07 104 0

0101000
+237 0 *
Ve
1e-07
6.984776 1.123463 1.4942
0 0

0101101
*
Ed
 1e-07 1 1 0
1  210 0 0 0.0349999999999999
0

0101000
+235 0 -235 1 *
Ed
 1e-07 1 1 0
1  211 0 0 0.0392065460478221
0

0101000
+240 0 -235 0 *
Wi

0101100
+239 0 -234 0 -233 0 +233 1 *
Fa
0  1e-07 105 0

0101000
+232 0 *
Ve
1e-07
6.992826 1.15 1.4942
0 0

0101101
*
Ed
 1e-07 1 1 0
1  212 0 0 0.0349999999999999
0

0101000
+230 0 -230 1 *
Ed
 1e-07 1 1 0
1  213 0 0 0.0277311173413548
0

0101000
+235 0 -230 0 *
Wi

0101100
+234 0 -229 0 -228 0 +228 1 *
Fa
0  1e-07 106 0

0101000
+227 0 *
Ve
1e-07
7.55 1.15 1.4942
0 0

0101101
*
Ed
 1e-07 1 1 0
1  214 0 0 0.0349999999999999
0

0101000
+225 0 -225 1 *
Ed
 1e-07 1 1 0
1  215 0 0 0.557174
0

0101000
+230 0 -225 0 *
Wi

0101100
+229 0 -224 0 -223 0 +223 1 *
Fa
0  1e-07 107 0

0101000
+222 0 *
Ve
1e-07
7.520736 1.147118 1.4942
0 0

0101101
*
Ed
 1e-07 1 1 0
1  216 0 0 0.0349999999999999
0

0101000
+220 0 -220 1 *
Ed
 1e-07 1 1 0
1  217 0 0 0.0294055712408375
0

0101000
+225 0 -220 0 *
Wi

0101100
+224 0 -219 0 -218 0 +218 1 *
Fa
0  1e-07 108 0

0101000
+217 0 *
Ve
1e-07
7.492597 1.138582 1.4942
0 0

0101101
*
Ed
 1e-07 1 1 0
1  218 0 0 0.0349999999999999
0

0101000
+215 0 -215 1 *
Ed
 1e-07 1 1 0
1  219 0 0 0.0294052141124669
0

0101000
+220 0 -215 0 *
Wi

0101100
+219 0 -214 0 -213 0 +213 1 *
Fa
0  1e-07 109 0

0101000
+212 0 *
Ve
1e-07
7.466664 1.12472 1.4942
0 0

0101101
*
Ed
 1e-07 1 1 0
1  220 0 0 0.0349999999999999
0

0101000
+210 0 -210 1 *
Ed
 1e-07 1 1 0
1  221 0 0 0.0294053657178416
0

0101000
+215 0 -210 0 *
Wi

0101100
+214 0 -209 0 -208 0 +208 1 *
Fa
0  1e-07 110 0

0101000
+207 0 *
Ve
1e-07
7.443934 1.106066 1.4942
0 0

0101101
*
Ed
 1e-07 1 1 0
1  222 0 0 0.0349999999999999
0

0101000
+205 0 -205 1 *
Ed
 1e-07 1 1 0
1  223 0 0 0.0294044999277322
0

0101000
+210 0 -205 0 *
Wi

0101100
+209 0 -204 0 -203 0 +203 1 *
Fa
0  1e-07 111 0

0101000
+202 0 *
Ed
 1e-07 1 1 0
1  224 0 0 0.0294044999277319
0

0101000
+205 0 -757 0 *
Wi

0101100
+204 0 -756 0 -200 0 +200 1 *
Fa
0  1e-07 112 0

0101000
+199 0 *
Ve
1e-07
7.579264 1.147118 1.4942
0 0

0101101
*
Ed
 1e-07 1 1 0
1  225 0 0 0.0349999999999999
0

0101000
+197 0 -197 1 *
Ve
1e-07
7.607403 1.138582 1.4942
0 0

0101101
*
Ed
 1e-07 1 1 0
1  226 0 0 0.0349999999999999
0

0101000
+195 0 -195 1 *
Ed
 1e-07 1 1 0
1  227 0 0 0.029405214112466
0

0101000
+197 0 -195 0 *
Wi

0101100
+196 0 -194 0 -193 0 +193 1 *
Fa
0  1e-07 113 0

0101000
+192 0 *
Ve
1e-07
7.633336 1.12472 1.4942
0 0

0101101
*
Ed
 1e-07 1 1 0
1  228 0 0 0.0349999999999999
0

0101000
+190 0 -190 1 *
Ed
 1e-07 1 1 0
1  229 0 0 0.0294053657178416
0

0101000
+195 0 -190 0 *
Wi

0101100
+194 0 -189 0 -188 0 +188 1 *
Fa
0  1e-07 114 0

0101000
+187 0 *
Ve
1e-07
7.647352 1.113217 1.4942
0 0

0101101
*
Ed
 1e-07 1 1 0
1  230 0 0 0.0349999999999999
0

0101000
+185 0 -185 1 *
Ed
 1e-07 1 1 0
1  231 0 0 0.0181319404642745
0

0101000
+190 0 -185 0 *
Wi

0101100
+189 0 -184 0 -183 0 +183 1 *
Fa
0  1e-07 115 0

0101000
+182 0 *
Ve
1e-07
7.711722 1.15 1.4942
0 0

0101101
*
Ed
 1e-07 1 1 0
1  232 0 0 0.0349999999999999
0

0101000
+180 0 -180 1 *
Ed
 1e-07 1 1 0
1  233 0 0 0.0741382896282348
0

0101000
+185 0 -180 0 *
Wi

0101100
+184 0 -179 0 -178 0 +178 1 *
Fa
0  1e-07 116 0

0101000
+177 0 *
Ve
1e-07
7.55 1.15 1.4942
0 0

0101101
*
Ed
 1e-07 1 1 0
1  234 0 0 0.0349999999999999
0

0101000
+175 0 -175 1 *
Ed
 1e-07 1 1 0
1  235 0 0 0.161722
0

0101000
+180 0 -175 0 *
Wi

0101100
+179 0 -174 0 -173 0 +173 1 *
Fa
0  1e-07 117 0

0101000
+172 0 *
Ed
 1e-07 1 1 0
1  236 0 0 0.0294055712408384
0

0101000
+175 0 -197 0 *
Wi

0101100
+174 0 -196 0 -170 0 +170 1 *
Fa
0  1e-07 118 0

0101000
+169 0 *
Ve
1e-07
7.564632 0.926441 1.4942
0 0

0101101
*
Ed
 1e-07 1 1 0
1  237 0 0 0.0349999999999999
0

0101000
+167 0 -167 1 *
Ve
1e-07
7.578701 0.930709 1.4942
0 0

0101101
*
Ed
 1e-07 1 1 0
1  238 0 0 0.0349999999999999
0

0101000
+165 0 -165 1 *
Ed
 1e-07 1 1 0
1  239 0 0 0.014702128587385
0

0101000
+167 0 -165 0 *
Wi

0101100
+166 0 -164 0 -163 0 +163 1 *
Fa
0  1e-07 119 0

0101000
+162 0 *
Ve
1e-07
7.591668 0.93764 1.4942
0 0

0101101
*
Ed
 1e-07 1 1 0
1  240 0 0 0.0349999999999999
0

0101000
+160 0 -160 1 *
Ed
 1e-07 1 1 0
1  241 0 0 0.0147031238177476
0

0101000
+165 0 -160 0 *
Wi

0101100
+164 0 -159 0 -158 0 +158 1 *
Fa
0  1e-07 120 0

0101000
+157 0 *
Ve
1e-07
7.603033 0.946967 1.4942
0 0

0101101
*
Ed
 1e-07 1 1 0
1  242 0 0 0.0349999999999999
0

0101000
+155 0 -155 1 *
Ed
 1e-07 1 1 0
1  243 0 0 0.0147022499638658
0

0101000
+160 0 -155 0 *
Wi

0101100
+159 0 -154 0 -153 0 +153 1 *
Fa
0  1e-07 121 0

0101000
+152 0 *
Ve
1e-07
7.61236 0.958332 1.4942
0 0

0101101
*
Ed
 1e-07 1 1 0
1  244 0 0 0.0349999999999999
0

0101000
+150 0 -150 1 *
Ed
 1e-07 1 1 0
1  245 0 0 0.014702249963866
0

0101000
+155 0 -150 0 *
Wi

0101100
+154 0 -149 0 -148 0 +148 1 *
Fa
0  1e-07 122 0

0101000
+147 0 *
Ve
1e-07
7.619291 0.971299 1.4942
0 0

0101101
*
Ed
 1e-07 1 1 0
1  246 0 0 0.0349999999999999
0

0101000
+145 0 -145 1 *
Ed
 1e-07 1 1 0
1  247 0 0 0.014703123817747
0

0101000
+150 0 -145 0 *
Wi

0101100
+149 0 -144 0 -143 0 +143 1 *
Fa
0  1e-07 123 0

0101000
+142 0 *
Ve
1e-07
7.623559 0.985368 1.4942
0 0

0101101
*
Ed
 1e-07 1 1 0
1  248 0 0 0.0349999999999999
0

0101000
+140 0 -140 1 *
Ed
 1e-07 1 1 0
1  249 0 0 0.0147021285873851
0

0101000
+145 0 -140 0 *
Wi

0101100
+144 0 -139 0 -138 0 +138 1 *
Fa
0  1e-07 124 0

0101000
+137 0 *
Ve
1e-07
7.625 1 1.4942
0 0

0101101
*
Ed
 1e-07 1 1 0
1  250 0 0 0.0349999999999999
0

0101000
+135 0 -135 1 *
Ed
 1e-07 1 1 0
1  251 0 0 0.014702785620419
0

0101000
+140 0 -135 0 *
Wi

0101100
+139 0 -134 0 -133 0 +133 1 *
Fa
0  1e-07 125 0

0101000
+132 0 *
Ve
1e-07
7.623559 1.014632 1.4942
0 0

0101101
*
Ed
 1e-07 1 1 0
1  252 0 0 0.0349999999999999
0

0101000
+130 0 -130 1 *
Ed
 1e-07 1 1 0
1  253 0 0 0.014702785620419
0

0101000
+135 0 -130 0 *
Wi

0101100
+134 0 -129 0 -128 0 +128 1 *
Fa
0  1e-07 126 0

0101000
+127 0 *
Ve
1e-07
7.619291 1.028701 1.4942
0 0

0101101
*
Ed
 1e-07 1 1 0
1  254 0 0 0.0349999999999999
0

0101000
+125 0 -125 1 *
Ed
 1e-07 1 1 0
1  255 0 0 0.0147021285873852
0

0101000
+130 0 -125 0 *
Wi

0101100
+129 0 -124 0 -123 0 +123 1 *
Fa
0  1e-07 127 0

0101000
+122 0 *
Ve
1e-07
7.61236 1.041668 1.4942
0 0

0101101
*
Ed
 1e-07 1 1 0
1  256 0 0 0.0349999999999999
0

0101000
+120 0 -120 1 *
Ed
 1e-07 1 1 0
1  257 0 0 0.0147031238177469
0

0101000
+125 0 -120 0 *
Wi

0101100
+124 0 -119 0 -118 0 +118 1 *
Fa
0  1e-07 128 0

0101000
+117 0 *
Ve
1e-07
7.603033 1.053033 1.4942
0 0

0101101
*
Ed
 1e-07 1 1 0
1  258 0 0 0.0349999999999999
0

0101000
+115 0 -115 1 *
Ed
 1e-07 1 1 0
1  259 0 0 0.014702249963866
0

0101000
+120 0 -115 0 *
Wi

0101100
+119 0 -114 0 -113 0 +113 1 *
Fa
0  1e-07 129 0

0101000
+112 0 *
Ve
1e-07
7.591668 1.06236 1.4942
0 0

0101101
*
Ed
 1e-07 1 1 0
1  260 0 0 0.0349999999999999
0

0101000
+110 0 -110 1 *
Ed
 1e-07 1 1 0
1  261 0 0 0.0147022499638657
0

0101000
+115 0 -110 0 *
Wi

0101100
+114 0 -109 0 -108 0 +108 1 *
Fa
0  1e-07 130 0

0101000
+107 0 *
Ve
1e-07
7.578701 1.069291 1.4942
0 0

0101101
*
Ed
 1e-07 1 1 0
1  262 0 0 0.0349999999999999
0

0101000
+105 0 -105 1 *
Ed
 1e-07 1 1 0
1  263 0 0 0.0147031238177476
0

0101000
+110 0 -105 0 *
Wi

0101100
+109 0 -104 0 -103 0 +103 1 *
Fa
0  1e-07 131 0

0101000
+102 0 *
Ve
1e-07
7.564632 1.073559 1.4942
0 0

0101101
*
Ed
 1e-07 1 1 0
1  264 0 0 0.0349999999999999
0

0101000
+100 0 -100 1 *
Ed
 1e-07 1 1 0
1  265 0 0 0.014702128587385
0

0101000
+105 0 -100 0 *
Wi

0101100
+104 0 -99 0 -98 0 +98 1 *
Fa
0  1e-07 132 0

0101000
+97 0 *
Ve
1e-07
7.55 1.075 1.4942
0 0

0101101
*
Ed
 1e-07 1 1 0
1  266 0 0 0.0349999999999999
0

0101000
+95 0 -95 1 *
Ed
 1e-07 1 1 0
1  267 0 0 0.0147027856204188
0

0101000
+100 0 -95 0 *
Wi

0101100
+99 0 -94 0 -93 0 +93 1 *
Fa
0  1e-07 133 0

0101000
+92 0 *
Ve
1e-07
7.535368 1.073559 1.4942
0 0

0101101
*
Ed
 1e-07 1 1 0
1  268 0 0 0.0349999999999999
0

0101000
+90 0 -90 1 *
Ed
 1e-07 1 1 0
1  269 0 0 0.0147027856204188
0

0101000
+95 0 -90 0 *
Wi

0101100
+94 0 -89 0 -88 0 +88 1 *
Fa
0  1e-07 134 0

0101000
+87 0 *
Ve
1e-07
7.521299 1.069291 1.4942
0 0

0101101
*
Ed
 1e-07 1 1 0
1  270 0 0 0.0349999999999999
0

0101000
+85 0 -85 1 *
Ed
 1e-07 1 1 0
1  271 0 0 0.014702128587385
0

0101000
+90 0 -85 0 *
Wi

0101100
+89 0 -84 0 -83 0 +83 1 *
Fa
0  1e-07 135 0

0101000
+82 0 *
Ve
1e-07
7.508332 1.06236 1.4942
0 0

0101101
*
Ed
 1e-07 1 1 0
1  272 0 0 0.0349999999999999
0

0101000
+80 0 -80 1 *
Ed
 1e-07 1 1 0
1  273 0 0 0.0147031238177468
0

0101000
+85 0 -80 0 *
Wi

0101100
+84 0 -79 0 -78 0 +78 1 *
Fa
0  1e-07 136 0

0101000
+77 0 *
Ve
1e-07
7.496967 1.053033 1.4942
0 0

0101101
*
Ed
 1e-07 1 1 0
1  274 0 0 0.0349999999999999
0

0101000
+75 0 -75 1 *
Ed
 1e-07 1 1 0
1  275 0 0 0.0147022499638664
0

0101000
+80 0 -75 0 *
Wi

0101100
+79 0 -74 0 -73 0 +73 1 *
Fa
0  1e-07 137 0

0101000
+72 0 *
Ve
1e-07
7.48764 1.041668 1.4942
0 0

0101101
*
Ed
 1e-07 1 1 0
1  276 0 0 0.0349999999999999
0

0101000
+70 0 -70 1 *
Ed
 1e-07 1 1 0
1  277 0 0 0.014702249963866
0

0101000
+75 0 -70 0 *
Wi

0101100
+74 0 -69 0 -68 0 +68 1 *
Fa
0  1e-07 138 0

0101000
+67 0 *
Ve
1e-07
7.480709 1.028701 1.4942
0 0

0101101
*
Ed
 1e-07 1 1 0
1  278 0 0 0.0349999999999999
0

0101000
+65 0 -65 1 *
Ed
 1e-07 1 1 0
1  279 0 0 0.0147031238177469
0

0101000
+70 0 -65 0 *
Wi

0101100
+69 0 -64 0 -63 0 +63 1 *
Fa
0  1e-07 139 0

0101000
+62 0 *
Ve
1e-07
7.476441 1.014632 1.4942
0 0

0101101
*
Ed
 1e-07 1 1 0
1  280 0 0 0.0349999999999999
0

0101000
+60 0 -60 1 *
Ed
 1e-07 1 1 0
1  281 0 0 0.0147021285873849
0

0101000
+65 0 -60 0 *
Wi

0101100
+64 0 -59 0 -58 0 +58 1 *
Fa
0  1e-07 140 0

0101000
+57 0 *
Ve
1e-07
7.475 1 1.4942
0 0

0101101
*
Ed
 1e-07 1 1 0
1  282 0 0 0.0349999999999999
0

0101000
+55 0 -55 1 *
Ed
 1e-07 1 1 0
1  283 0 0 0.0147027856204191
0

0101000
+60 0 -55 0 *
Wi

0101100
+59 0 -54 0 -53 0 +53 1 *
Fa
0  1e-07 141 0

0101000
+52 0 *
Ve
1e-07
7.476441 0.985368 1.4942
0 0

0101101
*
Ed
 1e-07 1 1 0
1  284 0 0 0.0349999999999999
0

0101000
+50 0 -50 1 *
Ed
 1e-07 1 1 0
1  285 0 0 0.0147027856204191
0

0101000
+55 0 -50 0 *
Wi

0101100
+54 0 -49 0 -48 0 +48 1 *
Fa
0  1e-07 142 0

0101000
+47 0 *
Ve
1e-07
7.480709 0.971299 1.4942
0 0

0101101
*
Ed
 1e-07 1 1 0
1  286 0 0 0.0349999999999999
0

0101000
+45 0 -45 1 *
Ed
 1e-07 1 1 0
1  287 0 0 0.0147021285873848
0

0101000
+50 0 -45 0 *
Wi

0101100
+49 0 -44 0 -43 0 +43 1 *
Fa
0  1e-07 143 0

0101000
+42 0 *
Ve
1e-07
7.48764 0.958332 1.4942
0 0

0101101
*
Ed
 1e-07 1 1 0
1  288 0 0 0.0349999999999999
0

0101000
+40 0 -40 1 *
Ed
 1e-07 1 1 0
1  289 0 0 0.014703123817747
0

0101000
+45 0 -40 0 *
Wi

0101100
+44 0 -39 0 -38 0 +38 1 *
Fa
0  1e-07 144 0

0101000
+37 0 *
Ve
1e-07
7.496967 0.946967 1.4942
0 0

0101101
*
Ed
 1e-07 1 1 0
1  290 0 0 0.0349999999999999
0

0101000
+35 0 -35 1 *
Ed
 1e-07 1 1 0
1  291 0 0 0.014702249963866
0

0101000
+40 0 -35 0 *
Wi

0101100
+39 0 -34 0 -33 0 +33 1 *
Fa
0  1e-07 145 0

0101000
+32 0 *
Ve
1e-07
7.508332 0.93764 1.4942
0 0

0101101
*
Ed
 1e-07 1 1 0
1  292 0 0 0.0349999999999999
0

0101000
+30 0 -30 1 *
Ed
 1e-07 1 1 0
1  293 0 0 0.0147022499638665
0

0101000
+35 0 -30 0 *
Wi

0101100
+34 0 -29 0 -28 0 +28 1 *
Fa
0  1e-07 146 0

0101000
+27 0 *
Ve
1e-07
7.521299 0.930709 1.4942
0 0

0101101
*
Ed
 1e-07 1 1 0
1  294 0 0 0.0349999999999999
0

0101000
+25 0 -25 1 *
Ed
 1e-07 1 1 0
1  295 0 0 0.0147031238177468
0

0101000
+30 0 -25 0 *
Wi

0101100
+29 0 -24 0 -23 0 +23 1 *
Fa
0  1e-07 147 0

0101000
+22 0 *
Ve
1e-07
7.535368 0.926441 1.4942
0 0

0101101
*
Ed
 1e-07 1 1 0
1  296 0 0 0.0349999999999999
0

0101000
+20 0 -20 1 *
Ed
 1e-07 1 1 0
1  297 0 0 0.014702128587385
0

0101000
+25 0 -20 0 *
Wi

0101100
+24 0 -19 0 -18 0 +18 1 *
Fa
0  1e-07 148 0

0101000
+17 0 *
Ve
1e-07
7.55 0.925 1.4942
0 0

0101101
*
Ed
 1e-07 1 1 0
1  298 0 0 0.0349999999999999
0

0101000
+15 0 -15 1 *
Ed
 1e-07 1 1 0
1  299 0 0 0.0147027856204188
0

0101000
+20 0 -15 0 *
Wi

0101100
+19 0 -14 0 -13 0 +13 1 *
Fa
0  1e-07 149 0

0101000
+12 0 *
Ed
 1e-07 1 1 0
1  300 0 0 0.0147027856204188
0

0101000
+15 0 -167 0 *
Wi

0101100
+14 0 -166 0 -10 0 +10 1 *
Fa
0  1e-07 150 0

0101000
+9 0 *
Wi

0101100
+753 0 +748 0 +743 0 +738 0 +733 0 +728 0 +723 0 +718 0 +713 0 +708 0 
+703 0 +698 0 +693 0 +688 0 +683 0 +678 0 +673 0 +668 0 +663 0 +658 0 
+653 0 +648 0 +643 0 +638 0 +633 0 +628 0 +623 0 +618 0 +613 0 +608 0 
+603 0 +598 0 +593 0 +588 0 +583 0 +578 0 +573 0 +568 0 +563 0 +558 0 
+553 0 +548 0 +543 0 +538 0 +533 0 +528 0 +523 0 +518 0 +513 0 +508 0 
+503 0 +498 0 +493 0 +488 0 +483 0 +478 0 +473 0 +468 0 +463 0 +458 0 
+453 0 +448 0 +443 0 +438 0 +433 0 +428 0 +423 0 +418 0 +413 0 +408 0 
+403 0 +398 0 +393 0 +388 0 +383 0 +378 0 +373 0 +368 0 +363 0 +358 0 
+353 0 +348 0 +343 0 +338 0 +333 0 +328 0 +323 0 +318 0 +313 0 +308 0 
+303 0 +298 0 +293 0 +288 0 +283 0 +278 0 +273 0 +268 0 +263 0 +258 0 
+253 0 +248 0 +243 0 +238 0 +233 0 +228 0 +223 0 +218 0 +213 0 +208 0 
+203 0 +200 0 *
Wi

0101100
+193 0 +188 0 +183 0 +178 0 +173 0 +170 0 *
Wi

0101100
+163 0 +158 0 +153 0 +148 0 +143 0 +138 0 +133 0 +128 0 +123 0 +118 0 
+113 0 +108 0 +103 0 +98 0 +93 0 +88 0 +83 0 +78 0 +73 0 +68 0 
+63 0 +58 0 +53 0 +48 0 +43 0 +38 0 +33 0 +28 0 +23 0 +18 0 
+13 0 +10 0 *
Fa
0  1e-07 151 0

0111000
+7 0 -6 0 -5 0 *
Sh

0101100
+751 0 +746 0 +741 0 +736 0 +731 0 +726 0 +721 0 +716 0 +711 0 +706 0 
+701 0 +696 0 +691 0 +686 0 +681 0 +676 0 +671 0 +666 0 +661 0 +656 0 
+651 0 +646 0 +641 0 +636 0 +631 0 +626 0 +621 0 +616 0 +611 0 +606 0 
+601 0 +596 0 +591 0 +586 0 +581 0 +576 0 +571 0 +566 0 +561 0 +556 0 
+551 0 +546 0 +541 0 +536 0 +531 0 +526 0 +521 0 +516 0 +511 0 +506 0 
+501 0 +496 0 +491 0 +486 0 +481 0 +476 0 +471 0 +466 0 +461 0 +456 0 
+451 0 +446 0 +441 0 +436 0 +431 0 +426 0 +421 0 +416 0 +411 0 +406 0 
+401 0 +396 0 +391 0 +386 0 +381 0 +376 0 +371 0 +366 0 +361 0 +356 0 
+351 0 +346 0 +341 0 +336 0 +331 0 +326 0 +321 0 +316 0 +311 0 +306 0 
+301 0 +296 0 +291 0 +286 0 +281 0 +276 0 +271 0 +266 0 +261 0 +256 0 
+251 0 +246 0 +241 0 +236 0 +231 0 +226 0 +221 0 +216 0 +211 0 +206 0 
+201 0 +198 0 -191 0 -186 0 -181 0 -176 0 -171 0 -168 0 -161 0 -156 0 
-151 0 -146 0 -141 0 -136 0 -131 0 -126 0 -121 0 -116 0 -111 0 -106 0 
-101 0 -96 0 -91 0 -86 0 -81 0 -76 0 -71 0 -66 0 -61 0 -56 0 
-51 0 -46 0 -41 0 -36 0 -31 0 -26 0 -21 0 -16 0 -11 0 -8 0 
+4 0 -4 1 *
So

0100000
-3 0 *
Co

1100000
+2 0 *

+1 0 