DBRep_DrawableShape

CASCADE Topology V1, (c) Matra-Datavision
Locations 1
1
              1               0               0               0 
              0               1               0               0 
              0               0               1 0.0349999999999999 
Curve2ds 0
Curves 312
1 7.4439339999999996 1.106066 1.4942 0 0 1 
1 7.4252799999999999 1.0833360000000001 1.4942 0 0 1 
1 7.4439339999999996 1.106066 1.4942 -0.63439269655481556 -0.77301093560046719 0 
1 7.4114180000000003 1.0574030000000001 1.4942 0 0 1 
1 7.4252799999999999 1.0833360000000001 1.4942 -0.47141056271879955 -0.88191387411534961 0 
1 7.402882 1.029264 1.4942 0 0 1 
1 7.4114180000000003 1.0574030000000001 1.4942 -0.29028865313996705 -0.95693912965150707 0 
1 7.4000000000000004 1 1.4942 0 0 1 
1 7.402882 1.029264 1.4942 -0.098008638444579382 -0.99518556399811164 0 
1 7.402882 0.97073600000000004 1.4942 0 0 1 
1 7.4000000000000004 1 1.4942 0.098008638444579382 -0.99518556399811164 0 
1 7.4114180000000003 0.94259700000000002 1.4942 0 0 1 
1 7.402882 0.97073600000000004 1.4942 0.29028865313996804 -0.95693912965150674 0 
1 7.4252799999999999 0.91666400000000003 1.4942 0 0 1 
1 7.4114180000000003 0.94259700000000002 1.4942 0.47141056271879955 -0.88191387411534961 0 
1 7.4439339999999996 0.89393400000000001 1.4942 0 0 1 
1 7.4252799999999999 0.91666400000000003 1.4942 0.63439269655481367 -0.77301093560046874 0 
1 7.4666639999999997 0.87527999999999995 1.4942 0 0 1 
1 7.4439339999999996 0.89393400000000001 1.4942 0.77301093560046474 -0.63439269655481867 0 
1 7.492597 0.86141800000000002 1.4942 0 0 1 
1 7.4666639999999997 0.87527999999999995 1.4942 0.88191387411534672 -0.47141056271880527 0 
1 7.5207360000000003 0.85288200000000003 1.4942 0 0 1 
1 7.492597 0.86141800000000002 1.4942 0.95693912965151096 -0.29028865313995456 0 
1 7.5499999999999998 0.84999999999999998 1.4942 0 0 1 
1 7.5207360000000003 0.85288200000000003 1.4942 0.99518556399811009 -0.098008638444595814 0 
1 7.5792640000000002 0.85288200000000003 1.4942 0 0 1 
1 7.5499999999999998 0.84999999999999998 1.4942 0.99518556399811031 0.098008638444592872 0 
1 7.6074029999999997 0.86141800000000002 1.4942 0 0 1 
1 7.5792640000000002 0.85288200000000003 1.4942 0.95693912965150829 0.29028865313996294 0 
1 7.6333359999999999 0.87527999999999995 1.4942 0 0 1 
1 7.6074029999999997 0.86141800000000002 1.4942 0.88191387411534672 0.47141056271880527 0 
1 7.656066 0.89393400000000001 1.4942 0 0 1 
1 7.6333359999999999 0.87527999999999995 1.4942 0.77301093560046474 0.63439269655481867 0 
1 7.6747199999999998 0.91666400000000003 1.4942 0 0 1 
1 7.656066 0.89393400000000001 1.4942 0.63439269655481367 0.77301093560046874 0 
1 7.6885820000000002 0.94259700000000002 1.4942 0 0 1 
1 7.6747199999999998 0.91666400000000003 1.4942 0.47141056271882309 0.88191387411533717 0 
1 7.6971179999999997 0.97073600000000004 1.4942 0 0 1 
1 7.6885820000000002 0.94259700000000002 1.4942 0.29028865313994046 0.95693912965151517 0 
1 7.7000000000000002 1 1.4942 0 0 1 
1 7.6971179999999997 0.97073600000000004 1.4942 0.098008638444609303 0.99518556399810876 0 
1 7.6973770000000004 1.0266280000000001 1.4942 0 0 1 
1 7.7000000000000002 1 1.4942 -0.098030869423000669 0.99518337437889837 0 
1 7.9248070000000004 1.1565879999999999 1.4942 0 0 1 
1 7.6973770000000004 1.0266280000000001 1.4942 0.86824314212445952 0.49613893835683343 0 
1 7.9262350000000001 1.1576010000000001 1.4942 0 0 1 
1 7.9248070000000004 1.1565879999999999 1.4942 0.81562017589071278 0.57858770180500962 0 
1 7.9277790000000001 1.1584270000000001 1.4942 0 0 1 
1 7.9262350000000001 1.1576010000000001 1.4942 0.88175149871683212 0.47171420851042895 0 
1 7.9302219999999997 1.1604319999999999 1.4942 0 0 1 
1 7.9277790000000001 1.1584270000000001 1.4942 0.77299777390999902 0.63440873380667295 0 
1 7.9328000000000003 1.1622619999999999 1.4942 0 0 1 
1 7.9302219999999997 1.1604319999999999 1.4942 0.81543971872520615 0.57884200359455318 0 
1 7.9340020000000004 1.1635340000000001 1.4942 0 0 1 
1 7.9328000000000003 1.1622619999999999 1.4942 0.68682484883163375 0.72682296814795522 0 
1 7.9353550000000004 1.1646449999999999 1.4942 0 0 1 
1 7.9340020000000004 1.1635340000000001 1.4942 0.77283630696470806 0.63460542279210919 0 
1 7.9373610000000001 1.1670879999999999 1.4942 0 0 1 
1 7.9353550000000004 1.1646449999999999 1.4942 0.63459774194194996 0.77284261394036646 0 
1 7.9395319999999998 1.169386 1.4942 0 0 1 
1 7.9373610000000001 1.1670879999999999 1.4942 0.68673498581484427 0.72690787535827783 0 
1 7.9404630000000003 1.170868 1.4942 0 0 1 
1 7.9395319999999998 1.169386 1.4942 0.53194919584997735 0.84677627094443464 0 
1 7.941573 1.172221 1.4942 0 0 1 
1 7.9404630000000003 1.170868 1.4942 0.63426407201143753 0.77311647696545049 0 
1 7.9430639999999997 1.175009 1.4942 0 0 1 
1 7.941573 1.172221 1.4942 0.47158933682783077 0.88181829046027771 0 
1 7.9447450000000002 1.177686 1.4942 0 0 1 
1 7.9430639999999997 1.175009 1.4942 0.53178923892616503 0.84687673563649757 0 
1 7.9453690000000003 1.179322 1.4942 0 0 1 
1 7.9447450000000002 1.177686 1.4942 0.35637528704266369 0.9343429000025949 0 
1 7.9461940000000002 1.180866 1.4942 0 0 1 
1 7.9453690000000003 1.179322 1.4942 0.47127002054636319 0.88198898390752611 0 
1 7.9471119999999997 1.183891 1.4942 0 0 1 
1 7.9461940000000002 1.180866 1.4942 0.29039367568275276 0.95690726464138631 0 
1 7.9482379999999999 1.186844 1.4942 0 0 1 
1 7.9471119999999997 1.183891 1.4942 0.35628478445900075 0.93437741430484256 0 
1 7.948531 1.1885699999999999 1.4942 0 0 1 
1 7.9482379999999999 1.186844 1.4942 0.16736232272301291 0.98589545740547868 0 
1 7.949039 1.190245 1.4942 0 0 1 
1 7.948531 1.1885699999999999 1.4942 0.29022937971509055 0.95695710831269443 0 
1 7.9493489999999998 1.1933910000000001 1.4942 0 0 1 
1 7.949039 1.190245 1.4942 0.098062895085637106 0.99518021916003907 0 
1 7.949878 1.1965079999999999 1.4942 0 0 1 
1 7.9493489999999998 1.1933910000000001 1.4942 0.1673218888451293 0.98590232047262083 0 
1 7.9498280000000001 1.198258 1.4942 0 0 1 
1 7.949878 1.1965079999999999 1.4942 -0.028559773898808198 0.99959208646069675 0 
1 7.9500000000000002 1.2 1.4942 0 0 1 
1 7.9498280000000001 1.198258 1.4942 0.098259280079269887 0.9951608482442944 0 
1 7.9496900000000004 1.203146 1.4942 0 0 1 
1 7.9500000000000002 1.2 1.4942 -0.098062895085637106 0.99518021916003907 0 
1 7.9496010000000004 1.2063060000000001 1.4942 0 0 1 
1 7.9496900000000004 1.203146 1.4942 -0.028153392944882415 0.9996036146721814 0 
1 7.949211 1.2080120000000001 1.4942 0 0 1 
1 7.9496010000000004 1.2063060000000001 1.4942 -0.22285583301464693 0.97485141313502122 0 
1 7.949039 1.2097549999999999 1.4942 0 0 1 
1 7.949211 1.2080120000000001 1.4942 -0.098203450242033002 0.99516635913829032 0 
1 7.9481219999999997 1.2127790000000001 1.4942 0 0 1 
1 7.949039 1.2097549999999999 1.4942 -0.29019183504403906 0.95696849419078223 0 
1 7.9474179999999999 1.2158610000000001 1.4942 0 0 1 
1 7.9481219999999997 1.2127790000000001 1.4942 -0.22268737672333846 0.97488990775783402 0 
1 7.9467020000000002 1.2174590000000001 1.4942 0 0 1 
1 7.9474179999999999 1.2158610000000001 1.4942 -0.40889192456675122 0.91258281488536608 0 
1 7.9461940000000002 1.2191339999999999 1.4942 0 0 1 
1 7.9467020000000002 1.2174590000000001 1.4942 -0.29022937971512575 0.95695710831268366 0 
1 7.9447039999999998 1.221922 1.4942 0 0 1 
1 7.9461940000000002 1.2191339999999999 1.4942 -0.471343333094349 0.88194980715883697 0 
1 7.9434120000000004 1.224807 1.4942 0 0 1 
1 7.9447039999999998 1.221922 1.4942 -0.40871979724675112 0.91265991877510144 0 
1 7.942399 1.226235 1.4942 0 0 1 
1 7.9434120000000004 1.224807 1.4942 -0.57858770180503416 0.81562017589069546 0 
1 7.941573 1.227779 1.4942 0 0 1 
1 7.942399 1.226235 1.4942 -0.47171420851042895 0.88175149871683212 0 
1 7.9395680000000004 1.2302219999999999 1.4942 0 0 1 
1 7.941573 1.227779 1.4942 -0.63440873380656204 0.77299777391009006 0 
1 7.9377380000000004 1.2327999999999999 1.4942 0 0 1 
1 7.9395680000000004 1.2302219999999999 1.4942 -0.57884200359465254 0.81543971872513543 0 
1 7.9364660000000002 1.234002 1.4942 0 0 1 
1 7.9377380000000004 1.2327999999999999 1.4942 -0.72682296814795522 0.68682484883163375 0 
1 7.9353550000000004 1.235355 1.4942 0 0 1 
1 7.9364660000000002 1.234002 1.4942 -0.63460542279210919 0.77283630696470806 0 
1 7.932912 1.2373609999999999 1.4942 0 0 1 
1 7.9353550000000004 1.235355 1.4942 -0.77284261394038856 0.63459774194192298 0 
1 7.9306140000000003 1.2395320000000001 1.4942 0 0 1 
1 7.932912 1.2373609999999999 1.4942 -0.7269078753581415 0.68673498581498871 0 
1 7.9291320000000001 1.2404630000000001 1.4942 0 0 1 
1 7.9306140000000003 1.2395320000000001 1.4942 -0.84677627094458474 0.53194919584973821 0 
1 7.9277790000000001 1.241573 1.4942 0 0 1 
1 7.9291320000000001 1.2404630000000001 1.4942 -0.77311647696538821 0.63426407201151336 0 
1 7.9249910000000003 1.2430639999999999 1.4942 0 0 1 
1 7.9277790000000001 1.241573 1.4942 -0.88181829046023297 0.47158933682791454 0 
1 7.9223140000000001 1.244745 1.4942 0 0 1 
1 7.9249910000000003 1.2430639999999999 1.4942 -0.84687673563658072 0.53178923892603269 0 
1 7.9206779999999997 1.2453689999999999 1.4942 0 0 1 
1 7.9223140000000001 1.244745 1.4942 -0.93434290000266929 0.35637528704246851 0 
1 7.9191339999999997 1.246194 1.4942 0 0 1 
1 7.9206779999999997 1.2453689999999999 1.4942 -0.88198898390747349 0.47127002054646189 0 
1 7.9161089999999996 1.247112 1.4942 0 0 1 
1 7.9191339999999997 1.246194 1.4942 -0.95690726464134734 0.29039367568288138 0 
1 7.9131559999999999 1.248238 1.4942 0 0 1 
1 7.9161089999999996 1.247112 1.4942 -0.93437741430485699 0.35628478445896272 0 
1 7.9114300000000002 1.2485310000000001 1.4942 0 0 1 
1 7.9131559999999999 1.248238 1.4942 -0.98589545740547524 0.16736232272303386 0 
1 7.9097549999999996 1.249039 1.4942 0 0 1 
1 7.9114300000000002 1.2485310000000001 1.4942 -0.95695710831271574 0.29022937971502011 0 
1 7.9066090000000004 1.249349 1.4942 0 0 1 
1 7.9097549999999996 1.249039 1.4942 -0.99518021916002941 0.09806289508573407 0 
1 7.903492 1.249878 1.4942 0 0 1 
1 7.9066090000000004 1.249349 1.4942 -0.98590232047263826 0.16732188884502627 0 
1 7.9017419999999996 1.2498279999999999 1.4942 0 0 1 
1 7.903492 1.249878 1.4942 -0.9995920864606932 -0.028559773898931304 0 
1 7.9000000000000004 1.25 1.4942 0 0 1 
1 7.9017419999999996 1.2498279999999999 1.4942 -0.99516084824429074 0.098259280079307107 0 
1 6.992826 1.25 1.4942 0 0 1 
1 7.9000000000000004 1.25 1.4942 -1 0 0 
1 6.9847760000000001 1.276537 1.4942 0 0 1 
1 6.992826 1.25 1.4942 -0.29028761809013176 0.95693944363452688 0 
1 6.9662940000000004 1.3111139999999999 1.4942 0 0 1 
1 6.9847760000000001 1.276537 1.4942 -0.4714008721262104 0.88191905397187564 0 
1 6.9414210000000001 1.341421 1.4942 0 0 1 
1 6.9662940000000004 1.3111139999999999 1.4942 -0.63440376805704268 0.7730018493348032 0 
1 6.9111140000000004 1.3662939999999999 1.4942 0 0 1 
1 6.9414210000000001 1.341421 1.4942 -0.77300184933480443 0.63440376805704157 0 
1 6.8765369999999999 1.384776 1.4942 0 0 1 
1 6.9111140000000004 1.3662939999999999 1.4942 -0.88191905397187464 0.47140087212621212 0 
1 6.8390180000000003 1.3961570000000001 1.4942 0 0 1 
1 6.8765369999999999 1.384776 1.4942 -0.95694220774245431 0.2902785059920856 0 
1 6.7999999999999998 1.3999999999999999 1.4942 0 0 1 
1 6.8390180000000003 1.3961570000000001 1.4942 -0.99518457136266003 0.098018717200945168 0 
1 6.7609820000000003 1.3961570000000001 1.4942 0 0 1 
1 6.7999999999999998 1.3999999999999999 1.4942 -0.9951845713626597 -0.098018717200947375 0 
1 6.7234629999999997 1.384776 1.4942 0 0 1 
1 6.7609820000000003 1.3961570000000001 1.4942 -0.95694220774245631 -0.29027850599207933 0 
1 6.6888860000000001 1.3662939999999999 1.4942 0 0 1 
1 6.7234629999999997 1.384776 1.4942 -0.88191905397186965 -0.47140087212622156 0 
1 6.6585789999999996 1.341421 1.4942 0 0 1 
1 6.6888860000000001 1.3662939999999999 1.4942 -0.77300184933481353 -0.63440376805703047 0 
1 6.6337060000000001 1.3111139999999999 1.4942 0 0 1 
1 6.6585789999999996 1.341421 1.4942 -0.63440376805702925 -0.77300184933481442 0 
1 6.6152240000000004 1.276537 1.4942 0 0 1 
1 6.6337060000000001 1.3111139999999999 1.4942 -0.4714008721262104 -0.88191905397187564 0 
1 6.6038430000000004 1.239018 1.4942 0 0 1 
1 6.6152240000000004 1.276537 1.4942 -0.29027850599208249 -0.95694220774245531 0 
1 6.5999999999999996 1.2 1.4942 0 0 1 
1 6.6038430000000004 1.239018 1.4942 -0.098018717200968705 -0.99518457136265759 0 
1 6.6038430000000004 1.160982 1.4942 0 0 1 
1 6.5999999999999996 1.2 1.4942 0.098018717200968705 -0.99518457136265759 0 
1 6.6152240000000004 1.1234630000000001 1.4942 0 0 1 
1 6.6038430000000004 1.160982 1.4942 0.2902785059920841 -0.95694220774245498 0 
1 6.6337060000000001 1.088886 1.4942 0 0 1 
1 6.6152240000000004 1.1234630000000001 1.4942 0.47140087212620807 -0.88191905397187687 0 
1 6.6585789999999996 1.0585789999999999 1.4942 0 0 1 
1 6.6337060000000001 1.088886 1.4942 0.63440376805702925 -0.77300184933481442 0 
1 6.6888860000000001 1.033706 1.4942 0 0 1 
1 6.6585789999999996 1.0585789999999999 1.4942 0.77300184933481353 -0.63440376805703047 0 
1 6.7234629999999997 1.0152239999999999 1.4942 0 0 1 
1 6.6888860000000001 1.033706 1.4942 0.88191905397186965 -0.47140087212622156 0 
1 6.7609820000000003 1.003843 1.4942 0 0 1 
1 6.7234629999999997 1.0152239999999999 1.4942 0.95694220774245786 -0.29027850599207417 0 
1 6.7999999999999998 1 1.4942 0 0 1 
1 6.7609820000000003 1.003843 1.4942 0.99518457136265914 -0.098018717200952982 0 
1 6.8390180000000003 1.003843 1.4942 0 0 1 
1 6.7999999999999998 1 1.4942 0.99518457136265925 0.098018717200950761 0 
1 6.8765369999999999 1.0152239999999999 1.4942 0 0 1 
1 6.8390180000000003 1.003843 1.4942 0.95694220774245586 0.29027850599208044 0 
1 6.9111140000000004 1.033706 1.4942 0 0 1 
1 6.8765369999999999 1.0152239999999999 1.4942 0.88191905397187464 0.47140087212621212 0 
1 6.9414210000000001 1.0585789999999999 1.4942 0 0 1 
1 6.9111140000000004 1.033706 1.4942 0.77300184933480443 0.63440376805704157 0 
1 6.9662940000000004 1.088886 1.4942 0 0 1 
1 6.9414210000000001 1.0585789999999999 1.4942 0.63440376805704268 0.7730018493348032 0 
1 6.9847760000000001 1.1234630000000001 1.4942 0 0 1 
1 6.9662940000000004 1.088886 1.4942 0.47140087212620807 0.88191905397187687 0 
1 6.992826 1.1499999999999999 1.4942 0 0 1 
1 6.9847760000000001 1.1234630000000001 1.4942 0.29028761809013404 0.95693944363452632 0 
1 7.5499000000000001 1.1499999999999999 1.4942 0 0 1 
1 6.992826 1.1499999999999999 1.4942 1 0 0 
1 7.5499000000000001 1.1500999999999999 1.4942 0 0 1 
1 7.5499000000000001 1.1499999999999999 1.4942 0 1 0 
1 7.5500999999999996 1.1500999999999999 1.4942 0 0 1 
1 7.5499000000000001 1.1500999999999999 1.4942 1 0 0 
1 7.5500999999999996 1.1499999999999999 1.4942 0 0 1 
1 7.5500999999999996 1.1500999999999999 1.4942 0 -1 0 
1 7.711722 1.1499999999999999 1.4942 0 0 1 
1 7.5500999999999996 1.1499999999999999 1.4942 1 0 0 
1 7.6473519999999997 1.1132169999999999 1.4942 0 0 1 
1 7.711722 1.1499999999999999 1.4942 -0.86824231207359237 -0.49614039094302981 0 
1 7.6333359999999999 1.1247199999999999 1.4942 0 0 1 
1 7.6473519999999997 1.1132169999999999 1.4942 -0.77300055267750445 0.63440534799154458 0 
1 7.6074029999999997 1.138582 1.4942 0 0 1 
1 7.6333359999999999 1.1247199999999999 1.4942 -0.88191387411534505 0.47141056271880816 0 
1 7.5792640000000002 1.1471180000000001 1.4942 0 0 1 
1 7.6074029999999997 1.138582 1.4942 -0.95693912965150729 0.29028865313996638 0 
1 7.5500999999999996 1.1499901517222526 1.4942 0 0 1 
1 7.5792640000000002 1.1471180000000001 1.4942 -0.99518556399811098 0.098008638444587945 0 
1 7.5500999999999996 1.1498999999999999 1.4942 0 0 1 
1 7.5500999999999996 1.1499901517222526 1.4942 0 -1 0 
1 7.5499000000000001 1.1498999999999999 1.4942 0 0 1 
1 7.5500999999999996 1.1498999999999999 1.4942 -1 0 0 
1 7.5499000000000001 1.1499901517222526 1.4942 0 0 1 
1 7.5499000000000001 1.1498999999999999 1.4942 0 1 0 
1 7.5207360000000003 1.1471180000000001 1.4942 0 0 1 
1 7.5499000000000001 1.1499901517222526 1.4942 -0.99518556399811053 -0.098008638444590887 0 
1 7.492597 1.138582 1.4942 0 0 1 
1 7.5207360000000003 1.1471180000000001 1.4942 -0.95693912965150985 -0.290288653139958 0 
1 7.4666639999999997 1.1247199999999999 1.4942 0 0 1 
1 7.492597 1.138582 1.4942 -0.88191387411534505 -0.47141056271880816 0 
1 7.4666639999999997 1.1247199999999999 1.4942 -0.77301093560046652 -0.63439269655481634 0 
1 7.5787009999999997 0.93070900000000001 1.4942 0 0 1 
1 7.5916680000000003 0.93764000000000003 1.4942 0 0 1 
1 7.5787009999999997 0.93070900000000001 1.4942 0.88192143116884059 0.4713964247266878 0 
1 7.6030329999999999 0.946967 1.4942 0 0 1 
1 7.5916680000000003 0.93764000000000003 1.4942 0.77301093560045442 0.63439269655483121 0 
1 7.6123599999999998 0.95833199999999996 1.4942 0 0 1 
1 7.6030329999999999 0.946967 1.4942 0.63439269655481556 0.77301093560046719 0 
1 7.6192909999999996 0.97129900000000002 1.4942 0 0 1 
1 7.6123599999999998 0.95833199999999996 1.4942 0.4713964247266918 0.88192143116883848 0 
1 7.6235590000000002 0.98536800000000002 1.4942 0 0 1 
1 7.6192909999999996 0.97129900000000002 1.4942 0.29029810034872755 0.9569362637782729 0 
1 7.625 1 1.4942 0 0 1 
1 7.6235590000000002 0.98536800000000002 1.4942 0.098008638444579382 0.99518556399811164 0 
1 7.6235590000000002 1.014632 1.4942 0 0 1 
1 7.625 1 1.4942 -0.098008638444579382 0.99518556399811164 0 
1 7.6192909999999996 1.0287010000000001 1.4942 0 0 1 
1 7.6235590000000002 1.014632 1.4942 -0.29029810034872539 0.95693626377827334 0 
1 7.6123599999999998 1.041668 1.4942 0 0 1 
1 7.6192909999999996 1.0287010000000001 1.4942 -0.47139642472669496 0.88192143116883681 0 
1 7.6030329999999999 1.0530330000000001 1.4942 0 0 1 
1 7.6123599999999998 1.041668 1.4942 -0.6343926965548119 0.77301093560047029 0 
1 7.5916680000000003 1.06236 1.4942 0 0 1 
1 7.6030329999999999 1.0530330000000001 1.4942 -0.77301093560045819 0.63439269655482666 0 
1 7.5787009999999997 1.069291 1.4942 0 0 1 
1 7.5916680000000003 1.06236 1.4942 -0.88192143116884059 0.4713964247266878 0 
1 7.5646319999999996 1.0735589999999999 1.4942 0 0 1 
1 7.5787009999999997 1.069291 1.4942 -0.956936263778286 0.29029810034868392 0 
1 7.5499999999999998 1.075 1.4942 0 0 1 
1 7.5646319999999996 1.0735589999999999 1.4942 -0.99518556399811009 0.098008638444595814 0 
1 7.5353680000000001 1.0735589999999999 1.4942 0 0 1 
1 7.5499999999999998 1.075 1.4942 -0.99518556399811009 -0.098008638444595814 0 
1 7.521299 1.069291 1.4942 0 0 1 
1 7.5353680000000001 1.0735589999999999 1.4942 -0.956936263778286 -0.29029810034868392 0 
1 7.5083320000000002 1.06236 1.4942 0 0 1 
1 7.521299 1.069291 1.4942 -0.88192143116882715 -0.47139642472671295 0 
1 7.4969669999999997 1.0530330000000001 1.4942 0 0 1 
1 7.5083320000000002 1.06236 1.4942 -0.77301093560048251 -0.63439269655479702 0 
1 7.4876399999999999 1.041668 1.4942 0 0 1 
1 7.4969669999999997 1.0530330000000001 1.4942 -0.6343926965548119 -0.77301093560047029 0 
1 7.4807090000000001 1.0287010000000001 1.4942 0 0 1 
1 7.4876399999999999 1.041668 1.4942 -0.47139642472669496 -0.88192143116883681 0 
1 7.4764410000000003 1.014632 1.4942 0 0 1 
1 7.4807090000000001 1.0287010000000001 1.4942 -0.2902981003486701 -0.95693626377829022 0 
1 7.4749999999999996 1 1.4942 0 0 1 
1 7.4764410000000003 1.014632 1.4942 -0.098008638444639209 -0.99518556399810587 0 
1 7.4764410000000003 0.98536800000000002 1.4942 0 0 1 
1 7.4749999999999996 1 1.4942 0.098008638444639209 -0.99518556399810587 0 
1 7.4807090000000001 0.97129900000000002 1.4942 0 0 1 
1 7.4764410000000003 0.98536800000000002 1.4942 0.29029810034867221 -0.95693626377828955 0 
1 7.4876399999999999 0.95833199999999996 1.4942 0 0 1 
1 7.4807090000000001 0.97129900000000002 1.4942 0.4713964247266918 -0.88192143116883848 0 
1 7.4969669999999997 0.946967 1.4942 0 0 1 
1 7.4876399999999999 0.95833199999999996 1.4942 0.63439269655481556 -0.77301093560046719 0 
1 7.5083320000000002 0.93764000000000003 1.4942 0 0 1 
1 7.4969669999999997 0.946967 1.4942 0.77301093560047873 -0.63439269655480157 0 
1 7.521299 0.93070900000000001 1.4942 0 0 1 
1 7.5083320000000002 0.93764000000000003 1.4942 0.88192143116882715 -0.47139642472671295 0 
1 7.5353680000000001 0.92644099999999996 1.4942 0 0 1 
1 7.521299 0.93070900000000001 1.4942 0.95693626377828389 -0.29029810034869086 0 
1 7.5499999999999998 0.92500000000000004 1.4942 0 0 1 
1 7.5353680000000001 0.92644099999999996 1.4942 0.99518556399811076 -0.098008638444588334 0 
1 7.5646319999999996 0.92644099999999996 1.4942 0 0 1 
1 7.5499999999999998 0.92500000000000004 1.4942 0.99518556399811076 0.098008638444588334 0 
1 7.5646319999999996 0.92644099999999996 1.4942 0.95693626377828389 0.29029810034869086 0 
Polygon3D 0
PolygonOnTriangulations 0
Surfaces 157
1 7.4439339999999996 1.106066 1.4942 0.77301093560046719 -0.63439269655481556 0 -0.63439269655481556 -0.77301093560046719 0 0 -0 -1 
1 7.4252799999999999 1.0833360000000001 1.4942 0.88191387411534961 -0.47141056271879955 0 -0.47141056271879955 -0.88191387411534961 0 0 -0 -1 
1 7.4114180000000003 1.0574030000000001 1.4942 0.95693912965150707 -0.29028865313996705 0 -0.29028865313996705 -0.95693912965150707 0 0 -0 -1 
1 7.402882 1.029264 1.4942 0.99518556399811176 -0.098008638444579396 0 -0.098008638444579396 -0.99518556399811176 0 0 -0 -1 
1 7.4000000000000004 1 1.4942 0.99518556399811176 0.098008638444579396 -0 0.098008638444579396 -0.99518556399811176 0 0 -0 -1 
1 7.402882 0.97073600000000004 1.4942 0.95693912965150685 0.2902886531399681 -0 0.2902886531399681 -0.95693912965150685 0 0 -0 -1 
1 7.4114180000000003 0.94259700000000002 1.4942 0.88191387411534961 0.47141056271879955 -0 0.47141056271879955 -0.88191387411534961 0 0 -0 -1 
1 7.4252799999999999 0.91666400000000003 1.4942 0.77301093560046874 0.63439269655481367 -0 0.63439269655481367 -0.77301093560046874 0 0 -0 -1 
1 7.4439339999999996 0.89393400000000001 1.4942 0.63439269655481867 0.77301093560046474 -0 0.77301093560046474 -0.63439269655481867 0 0 -0 -1 
1 7.4666639999999997 0.87527999999999995 1.4942 0.47141056271880527 0.88191387411534672 -0 0.8819138741153465 -0.47141056271880516 0 0 -0 -1 
1 7.492597 0.86141800000000002 1.4942 0.29028865313995456 0.95693912965151096 -0 0.95693912965151096 -0.29028865313995456 0 0 -0 -1 
1 7.5207360000000003 0.85288200000000003 1.4942 0.098008638444595828 0.9951855639981102 -0 0.9951855639981102 -0.098008638444595828 0 0 -0 -1 
1 7.5499999999999998 0.84999999999999998 1.4942 -0.098008638444592885 0.99518556399811042 0 0.99518556399811042 0.098008638444592885 0 0 0 -1 
1 7.5792640000000002 0.85288200000000003 1.4942 -0.29028865313996299 0.9569391296515084 0 0.9569391296515084 0.29028865313996299 0 0 0 -1 
1 7.6074029999999997 0.86141800000000002 1.4942 -0.47141056271880527 0.88191387411534672 0 0.8819138741153465 0.47141056271880516 0 0 0 -1 
1 7.6333359999999999 0.87527999999999995 1.4942 -0.63439269655481867 0.77301093560046474 0 0.77301093560046474 0.63439269655481867 0 0 0 -1 
1 7.656066 0.89393400000000001 1.4942 -0.77301093560046874 0.63439269655481367 0 0.63439269655481367 0.77301093560046874 0 0 0 -1 
1 7.6747199999999998 0.91666400000000003 1.4942 -0.88191387411533717 0.47141056271882309 0 0.47141056271882309 0.88191387411533717 0 0 0 -1 
1 7.6885820000000002 0.94259700000000002 1.4942 -0.95693912965151517 0.29028865313994046 0 0.29028865313994046 0.95693912965151517 0 0 0 -1 
1 7.6971179999999997 0.97073600000000004 1.4942 -0.99518556399810887 0.098008638444609317 0 0.098008638444609317 0.99518556399810887 0 0 0 -1 
1 7.7000000000000002 1 1.4942 -0.99518337437889837 -0.098030869423000669 0 -0.098030869423000669 0.99518337437889837 0 -0 0 -1 
1 7.6973770000000004 1.0266280000000001 1.4942 -0.49613893835683343 0.86824314212445952 0 0.86824314212445952 0.49613893835683343 0 0 0 -1 
1 7.9248070000000004 1.1565879999999999 1.4942 -0.57858770180500962 0.81562017589071278 0 0.81562017589071278 0.57858770180500962 0 0 0 -1 
1 7.9262350000000001 1.1576010000000001 1.4942 -0.47171420851042895 0.88175149871683212 0 0.88175149871683212 0.47171420851042895 0 0 0 -1 
1 7.9277790000000001 1.1584270000000001 1.4942 -0.63440873380667295 0.77299777390999902 0 0.77299777390999902 0.63440873380667295 0 0 0 -1 
1 7.9302219999999997 1.1604319999999999 1.4942 -0.57884200359455318 0.81543971872520615 0 0.81543971872520615 0.57884200359455318 0 0 0 -1 
1 7.9328000000000003 1.1622619999999999 1.4942 -0.72682296814795522 0.68682484883163375 0 0.68682484883163375 0.72682296814795522 0 0 0 -1 
1 7.9340020000000004 1.1635340000000001 1.4942 -0.63460542279210919 0.77283630696470806 0 0.77283630696470806 0.63460542279210919 0 0 0 -1 
1 7.9353550000000004 1.1646449999999999 1.4942 -0.77284261394036646 0.63459774194194996 0 0.63459774194194996 0.77284261394036646 0 0 0 -1 
1 7.9373610000000001 1.1670879999999999 1.4942 -0.72690787535827794 0.68673498581484438 0 0.68673498581484438 0.72690787535827794 0 0 0 -1 
1 7.9395319999999998 1.169386 1.4942 -0.84677627094443464 0.53194919584997735 0 0.53194919584997735 0.84677627094443464 0 0 0 -1 
1 7.9404630000000003 1.170868 1.4942 -0.77311647696545049 0.63426407201143753 0 0.63426407201143753 0.77311647696545049 0 0 0 -1 
1 7.941573 1.172221 1.4942 -0.88181829046027782 0.47158933682783083 0 0.47158933682783083 0.88181829046027782 0 0 0 -1 
1 7.9430639999999997 1.175009 1.4942 -0.84687673563649757 0.53178923892616503 0 0.53178923892616503 0.84687673563649757 0 0 0 -1 
1 7.9447450000000002 1.177686 1.4942 -0.9343429000025949 0.35637528704266369 0 0.35637528704266369 0.9343429000025949 0 0 0 -1 
1 7.9453690000000003 1.179322 1.4942 -0.88198898390752623 0.47127002054636324 0 0.47127002054636324 0.88198898390752623 0 0 0 -1 
1 7.9461940000000002 1.180866 1.4942 -0.95690726464138631 0.29039367568275276 0 0.29039367568275276 0.95690726464138631 0 0 0 -1 
1 7.9471119999999997 1.183891 1.4942 -0.93437741430484256 0.35628478445900075 0 0.35628478445900075 0.93437741430484256 0 0 0 -1 
1 7.9482379999999999 1.186844 1.4942 -0.98589545740547868 0.16736232272301291 0 0.16736232272301291 0.98589545740547868 0 0 0 -1 
1 7.948531 1.1885699999999999 1.4942 -0.95695710831269443 0.29022937971509055 0 0.29022937971509055 0.95695710831269443 0 0 0 -1 
1 7.949039 1.190245 1.4942 -0.99518021916003907 0.098062895085637106 0 0.098062895085637106 0.99518021916003907 0 0 0 -1 
1 7.9493489999999998 1.1933910000000001 1.4942 -0.98590232047262083 0.1673218888451293 0 0.1673218888451293 0.98590232047262083 0 0 0 -1 
1 7.949878 1.1965079999999999 1.4942 -0.99959208646069675 -0.028559773898808198 0 -0.028559773898808198 0.99959208646069675 0 -0 0 -1 
1 7.9498280000000001 1.198258 1.4942 -0.9951608482442944 0.098259280079269887 0 0.098259280079269887 0.9951608482442944 0 0 0 -1 
1 7.9500000000000002 1.2 1.4942 -0.99518021916003907 -0.098062895085637106 0 -0.098062895085637106 0.99518021916003907 0 -0 0 -1 
1 7.9496900000000004 1.203146 1.4942 -0.99960361467218151 -0.028153392944882418 0 -0.028153392944882418 0.99960361467218151 0 -0 0 -1 
1 7.9496010000000004 1.2063060000000001 1.4942 -0.97485141313502122 -0.22285583301464693 0 -0.22285583301464693 0.97485141313502122 0 -0 0 -1 
1 7.949211 1.2080120000000001 1.4942 -0.99516635913829032 -0.098203450242033002 0 -0.098203450242033002 0.99516635913829032 0 -0 0 -1 
1 7.949039 1.2097549999999999 1.4942 -0.95696849419078223 -0.29019183504403906 0 -0.29019183504403906 0.95696849419078223 0 -0 0 -1 
1 7.9481219999999997 1.2127790000000001 1.4942 -0.97488990775783402 -0.22268737672333846 0 -0.22268737672333846 0.97488990775783402 0 -0 0 -1 
1 7.9474179999999999 1.2158610000000001 1.4942 -0.91258281488536608 -0.40889192456675122 0 -0.40889192456675122 0.91258281488536608 0 -0 0 -1 
1 7.9467020000000002 1.2174590000000001 1.4942 -0.95695710831268366 -0.29022937971512575 0 -0.29022937971512575 0.95695710831268366 0 -0 0 -1 
1 7.9461940000000002 1.2191339999999999 1.4942 -0.88194980715883697 -0.471343333094349 0 -0.471343333094349 0.88194980715883697 0 -0 0 -1 
1 7.9447039999999998 1.221922 1.4942 -0.91265991877510144 -0.40871979724675112 0 -0.40871979724675112 0.91265991877510144 0 -0 0 -1 
1 7.9434120000000004 1.224807 1.4942 -0.81562017589069546 -0.57858770180503416 0 -0.57858770180503416 0.81562017589069546 0 -0 0 -1 
1 7.942399 1.226235 1.4942 -0.88175149871683212 -0.47171420851042895 0 -0.47171420851042895 0.88175149871683212 0 -0 0 -1 
1 7.941573 1.227779 1.4942 -0.77299777391009006 -0.63440873380656204 0 -0.63440873380656204 0.77299777391009006 0 -0 0 -1 
1 7.9395680000000004 1.2302219999999999 1.4942 -0.81543971872513554 -0.57884200359465265 0 -0.57884200359465265 0.81543971872513554 0 -0 0 -1 
1 7.9377380000000004 1.2327999999999999 1.4942 -0.68682484883163375 -0.72682296814795522 0 -0.72682296814795522 0.68682484883163375 0 -0 0 -1 
1 7.9364660000000002 1.234002 1.4942 -0.77283630696470806 -0.63460542279210919 0 -0.63460542279210919 0.77283630696470806 0 -0 0 -1 
1 7.9353550000000004 1.235355 1.4942 -0.63459774194192309 -0.77284261394038867 0 -0.77284261394038867 0.63459774194192309 0 -0 0 -1 
1 7.932912 1.2373609999999999 1.4942 -0.68673498581498871 -0.7269078753581415 0 -0.7269078753581415 0.68673498581498871 0 -0 0 -1 
1 7.9306140000000003 1.2395320000000001 1.4942 -0.53194919584973821 -0.84677627094458474 0 -0.84677627094458474 0.53194919584973821 0 -0 0 -1 
1 7.9291320000000001 1.2404630000000001 1.4942 -0.63426407201151347 -0.77311647696538832 0 -0.77311647696538832 0.63426407201151347 0 -0 0 -1 
1 7.9277790000000001 1.241573 1.4942 -0.47158933682791454 -0.88181829046023297 0 -0.88181829046023297 0.47158933682791454 0 -0 0 -1 
1 7.9249910000000003 1.2430639999999999 1.4942 -0.53178923892603269 -0.84687673563658072 0 -0.84687673563658072 0.53178923892603269 0 -0 0 -1 
1 7.9223140000000001 1.244745 1.4942 -0.35637528704246857 -0.9343429000026694 0 -0.9343429000026694 0.35637528704246857 0 -0 0 -1 
1 7.9206779999999997 1.2453689999999999 1.4942 -0.47127002054646189 -0.88198898390747349 0 -0.88198898390747349 0.47127002054646189 0 -0 0 -1 
1 7.9191339999999997 1.246194 1.4942 -0.29039367568288138 -0.95690726464134734 0 -0.95690726464134734 0.29039367568288138 0 -0 0 -1 
1 7.9161089999999996 1.247112 1.4942 -0.35628478445896278 -0.9343774143048571 0 -0.9343774143048571 0.35628478445896278 0 -0 0 -1 
1 7.9131559999999999 1.248238 1.4942 -0.16736232272303386 -0.98589545740547524 0 -0.98589545740547524 0.16736232272303386 0 -0 0 -1 
1 7.9114300000000002 1.2485310000000001 1.4942 -0.29022937971502011 -0.95695710831271574 0 -0.95695710831271574 0.29022937971502011 0 -0 0 -1 
1 7.9097549999999996 1.249039 1.4942 -0.098062895085734084 -0.99518021916002952 0 -0.99518021916002952 0.098062895085734084 0 -0 0 -1 
1 7.9066090000000004 1.249349 1.4942 -0.16732188884502627 -0.98590232047263826 0 -0.98590232047263826 0.16732188884502627 0 -0 0 -1 
1 7.903492 1.249878 1.4942 0.028559773898931304 -0.9995920864606932 0 -0.9995920864606932 -0.028559773898931304 0 0 -0 -1 
1 7.9017419999999996 1.2498279999999999 1.4942 -0.098259280079307107 -0.99516084824429074 0 -0.99516084824429074 0.098259280079307107 0 -0 0 -1 
1 7.9000000000000004 1.25 1.4942 0 -1 0 -1 0 0 -0 -0 -1 
1 6.992826 1.25 1.4942 -0.95693944363452688 -0.29028761809013176 0 -0.29028761809013176 0.95693944363452688 0 -0 0 -1 
1 6.9847760000000001 1.276537 1.4942 -0.88191905397187575 -0.47140087212621046 0 -0.47140087212621046 0.88191905397187575 0 -0 0 -1 
1 6.9662940000000004 1.3111139999999999 1.4942 -0.77300184933480331 -0.63440376805704279 0 -0.63440376805704279 0.77300184933480331 0 -0 0 -1 
1 6.9414210000000001 1.341421 1.4942 -0.63440376805704157 -0.77300184933480431 0 -0.77300184933480431 0.63440376805704157 0 -0 0 -1 
1 6.9111140000000004 1.3662939999999999 1.4942 -0.47140087212621218 -0.88191905397187476 0 -0.88191905397187476 0.47140087212621218 0 -0 0 -1 
1 6.8765369999999999 1.384776 1.4942 -0.29027850599208566 -0.95694220774245442 0 -0.95694220774245442 0.29027850599208566 0 -0 0 -1 
1 6.8390180000000003 1.3961570000000001 1.4942 -0.098018717200945168 -0.99518457136266003 0 -0.99518457136266003 0.098018717200945168 0 -0 0 -1 
1 6.7999999999999998 1.3999999999999999 1.4942 0.098018717200947375 -0.9951845713626597 0 -0.9951845713626597 -0.098018717200947375 0 0 -0 -1 
1 6.7609820000000003 1.3961570000000001 1.4942 0.29027850599207933 -0.95694220774245631 0 -0.95694220774245631 -0.29027850599207933 0 0 -0 -1 
1 6.7234629999999997 1.384776 1.4942 0.47140087212622162 -0.88191905397186976 0 -0.88191905397186976 -0.47140087212622162 0 0 -0 -1 
1 6.6888860000000001 1.3662939999999999 1.4942 0.63440376805703047 -0.77300184933481342 0 -0.77300184933481342 -0.63440376805703047 0 0 -0 -1 
1 6.6585789999999996 1.341421 1.4942 0.77300184933481442 -0.63440376805702925 0 -0.63440376805702925 -0.77300184933481442 0 0 -0 -1 
1 6.6337060000000001 1.3111139999999999 1.4942 0.88191905397187575 -0.47140087212621046 0 -0.47140087212621046 -0.88191905397187575 0 0 -0 -1 
1 6.6152240000000004 1.276537 1.4942 0.95694220774245531 -0.29027850599208249 0 -0.29027850599208249 -0.95694220774245531 0 0 -0 -1 
1 6.6038430000000004 1.239018 1.4942 0.99518457136265759 -0.098018717200968705 0 -0.098018717200968705 -0.99518457136265759 0 0 -0 -1 
1 6.5999999999999996 1.2 1.4942 0.99518457136265759 0.098018717200968705 -0 0.098018717200968705 -0.99518457136265759 0 0 -0 -1 
1 6.6038430000000004 1.160982 1.4942 0.95694220774245498 0.2902785059920841 -0 0.2902785059920841 -0.95694220774245498 0 0 -0 -1 
1 6.6152240000000004 1.1234630000000001 1.4942 0.88191905397187698 0.47140087212620813 -0 0.47140087212620813 -0.88191905397187698 0 0 -0 -1 
1 6.6337060000000001 1.088886 1.4942 0.77300184933481442 0.63440376805702925 -0 0.63440376805702925 -0.77300184933481442 0 0 -0 -1 
1 6.6585789999999996 1.0585789999999999 1.4942 0.63440376805703047 0.77300184933481342 -0 0.77300184933481342 -0.63440376805703047 0 0 -0 -1 
1 6.6888860000000001 1.033706 1.4942 0.47140087212622162 0.88191905397186976 -0 0.88191905397186976 -0.47140087212622162 0 0 -0 -1 
1 6.7234629999999997 1.0152239999999999 1.4942 0.29027850599207417 0.95694220774245786 -0 0.95694220774245786 -0.29027850599207417 0 0 -0 -1 
1 6.7609820000000003 1.003843 1.4942 0.098018717200952982 0.99518457136265914 -0 0.99518457136265914 -0.098018717200952982 0 0 -0 -1 
1 6.7999999999999998 1 1.4942 -0.098018717200950775 0.99518457136265936 0 0.99518457136265936 0.098018717200950775 0 0 0 -1 
1 6.8390180000000003 1.003843 1.4942 -0.29027850599208049 0.95694220774245597 0 0.95694220774245597 0.29027850599208049 0 0 0 -1 
1 6.8765369999999999 1.0152239999999999 1.4942 -0.47140087212621218 0.88191905397187476 0 0.88191905397187476 0.47140087212621218 0 0 0 -1 
1 6.9111140000000004 1.033706 1.4942 -0.63440376805704157 0.77300184933480431 0 0.77300184933480431 0.63440376805704157 0 0 0 -1 
1 6.9414210000000001 1.0585789999999999 1.4942 -0.77300184933480331 0.63440376805704279 0 0.63440376805704279 0.77300184933480331 0 0 0 -1 
1 6.9662940000000004 1.088886 1.4942 -0.88191905397187698 0.47140087212620813 0 0.47140087212620813 0.88191905397187698 0 0 0 -1 
1 6.9847760000000001 1.1234630000000001 1.4942 -0.95693944363452632 0.29028761809013404 0 0.29028761809013398 0.9569394436345261 0 0 0 -1 
1 6.992826 1.1499999999999999 1.4942 0 1 0 1 0 0 0 0 -1 
1 7.5499000000000001 1.1499999999999999 1.4942 -1 0 0 0 1 0 0 0 -1 
1 7.5499000000000001 1.1500999999999999 1.4942 0 1 0 1 0 0 0 0 -1 
1 7.5500999999999996 1.1500999999999999 1.4942 1 0 -0 0 -1 0 0 -0 -1 
1 7.5500999999999996 1.1499999999999999 1.4942 0 1 0 1 0 0 0 0 -1 
1 7.711722 1.1499999999999999 1.4942 0.49614039094302986 -0.86824231207359248 0 -0.86824231207359248 -0.49614039094302986 0 0 -0 -1 
1 7.6473519999999997 1.1132169999999999 1.4942 -0.63440534799154458 -0.77300055267750445 0 -0.77300055267750445 0.63440534799154458 0 -0 0 -1 
1 7.6333359999999999 1.1247199999999999 1.4942 -0.47141056271880816 -0.88191387411534505 0 -0.88191387411534505 0.47141056271880816 0 -0 0 -1 
1 7.6074029999999997 1.138582 1.4942 -0.29028865313996638 -0.95693912965150729 0 -0.95693912965150729 0.29028865313996638 0 -0 0 -1 
1 7.5792640000000002 1.1471180000000001 1.4942 -0.098008638444587945 -0.99518556399811098 0 -0.99518556399811098 0.098008638444587945 0 -0 0 -1 
1 7.5500999999999996 1.1499901517222526 1.4942 1 0 -0 0 -1 0 0 -0 -1 
1 7.5500999999999996 1.1498999999999999 1.4942 0 -1 0 -1 0 0 -0 -0 -1 
1 7.5499000000000001 1.1498999999999999 1.4942 -1 0 0 0 1 0 0 0 -1 
1 7.5499000000000001 1.1499901517222526 1.4942 0.098008638444590901 -0.99518556399811064 0 -0.99518556399811064 -0.098008638444590901 0 0 -0 -1 
1 7.5207360000000003 1.1471180000000001 1.4942 0.290288653139958 -0.95693912965150985 0 -0.95693912965150985 -0.290288653139958 0 0 -0 -1 
1 7.492597 1.138582 1.4942 0.47141056271880816 -0.88191387411534505 0 -0.88191387411534505 -0.47141056271880816 0 0 -0 -1 
1 7.4666639999999997 1.1247199999999999 1.4942 0.63439269655481645 -0.77301093560046663 0 -0.77301093560046663 -0.63439269655481645 0 0 -0 -1 
1 7.5787009999999997 0.93070900000000001 1.4942 -0.47139642472668786 0.8819214311688407 0 0.8819214311688407 0.47139642472668786 0 0 0 -1 
1 7.5916680000000003 0.93764000000000003 1.4942 -0.63439269655483121 0.77301093560045442 0 0.77301093560045442 0.63439269655483121 0 0 0 -1 
1 7.6030329999999999 0.946967 1.4942 -0.77301093560046719 0.63439269655481556 0 0.63439269655481556 0.77301093560046719 0 0 0 -1 
1 7.6123599999999998 0.95833199999999996 1.4942 -0.88192143116883859 0.47139642472669185 0 0.47139642472669185 0.88192143116883859 0 0 0 -1 
1 7.6192909999999996 0.97129900000000002 1.4942 -0.9569362637782729 0.29029810034872755 0 0.29029810034872755 0.9569362637782729 0 0 0 -1 
1 7.6235590000000002 0.98536800000000002 1.4942 -0.99518556399811176 0.098008638444579396 0 0.098008638444579396 0.99518556399811176 0 0 0 -1 
1 7.625 1 1.4942 -0.99518556399811176 -0.098008638444579396 0 -0.098008638444579396 0.99518556399811176 0 -0 0 -1 
1 7.6235590000000002 1.014632 1.4942 -0.95693626377827345 -0.29029810034872544 0 -0.29029810034872544 0.95693626377827345 0 -0 0 -1 
1 7.6192909999999996 1.0287010000000001 1.4942 -0.88192143116883681 -0.47139642472669496 0 -0.47139642472669496 0.88192143116883681 0 -0 0 -1 
1 7.6123599999999998 1.041668 1.4942 -0.77301093560047029 -0.6343926965548119 0 -0.6343926965548119 0.77301093560047029 0 -0 0 -1 
1 7.6030329999999999 1.0530330000000001 1.4942 -0.63439269655482666 -0.77301093560045819 0 -0.77301093560045819 0.63439269655482666 0 -0 0 -1 
1 7.5916680000000003 1.06236 1.4942 -0.47139642472668786 -0.8819214311688407 0 -0.8819214311688407 0.47139642472668786 0 -0 0 -1 
1 7.5787009999999997 1.069291 1.4942 -0.29029810034868397 -0.95693626377828611 0 -0.95693626377828611 0.29029810034868397 0 -0 0 -1 
1 7.5646319999999996 1.0735589999999999 1.4942 -0.098008638444595828 -0.9951855639981102 0 -0.9951855639981102 0.098008638444595828 0 -0 0 -1 
1 7.5499999999999998 1.075 1.4942 0.098008638444595828 -0.9951855639981102 0 -0.9951855639981102 -0.098008638444595828 0 0 -0 -1 
1 7.5353680000000001 1.0735589999999999 1.4942 0.29029810034868397 -0.95693626377828611 0 -0.95693626377828611 -0.29029810034868397 0 0 -0 -1 
1 7.521299 1.069291 1.4942 0.471396424726713 -0.88192143116882726 0 -0.88192143116882726 -0.471396424726713 0 0 -0 -1 
1 7.5083320000000002 1.06236 1.4942 0.63439269655479702 -0.77301093560048251 0 -0.77301093560048251 -0.63439269655479702 0 0 -0 -1 
1 7.4969669999999997 1.0530330000000001 1.4942 0.77301093560047029 -0.6343926965548119 0 -0.6343926965548119 -0.77301093560047029 0 0 -0 -1 
1 7.4876399999999999 1.041668 1.4942 0.88192143116883681 -0.47139642472669496 0 -0.47139642472669496 -0.88192143116883681 0 0 -0 -1 
1 7.4807090000000001 1.0287010000000001 1.4942 0.95693626377829022 -0.2902981003486701 0 -0.2902981003486701 -0.95693626377829022 0 0 -0 -1 
1 7.4764410000000003 1.014632 1.4942 0.99518556399810587 -0.098008638444639209 0 -0.098008638444639209 -0.99518556399810587 0 0 -0 -1 
1 7.4749999999999996 1 1.4942 0.99518556399810587 0.098008638444639209 -0 0.098008638444639209 -0.99518556399810587 0 0 -0 -1 
1 7.4764410000000003 0.98536800000000002 1.4942 0.95693626377828955 0.29029810034867221 -0 0.29029810034867221 -0.95693626377828955 0 0 -0 -1 
1 7.4807090000000001 0.97129900000000002 1.4942 0.88192143116883859 0.47139642472669185 -0 0.47139642472669185 -0.88192143116883859 0 0 -0 -1 
1 7.4876399999999999 0.95833199999999996 1.4942 0.77301093560046719 0.63439269655481556 -0 0.63439269655481556 -0.77301093560046719 0 0 -0 -1 
1 7.4969669999999997 0.946967 1.4942 0.63439269655480157 0.77301093560047873 -0 0.77301093560047873 -0.63439269655480157 0 0 -0 -1 
1 7.5083320000000002 0.93764000000000003 1.4942 0.471396424726713 0.88192143116882726 -0 0.88192143116882726 -0.471396424726713 0 0 -0 -1 
1 7.521299 0.93070900000000001 1.4942 0.29029810034869091 0.956936263778284 -0 0.956936263778284 -0.29029810034869091 0 0 -0 -1 
1 7.5353680000000001 0.92644099999999996 1.4942 0.098008638444588347 0.99518556399811087 -0 0.99518556399811087 -0.098008638444588347 0 0 -0 -1 
1 7.5499999999999998 0.92500000000000004 1.4942 -0.098008638444588347 0.99518556399811087 0 0.99518556399811087 0.098008638444588347 0 0 0 -1 
1 7.5646319999999996 0.92644099999999996 1.4942 -0.29029810034869091 0.956936263778284 0 0.956936263778284 0.29029810034869091 0 0 0 -1 
1 7.3039113947122969 1.1515315326250688 1.4941999999999986 0 0 1 1 0 -0 -0 1 0 
Triangulations 0

TShapes 786
Ve
1e-07
7.443934 1.106066 1.4942
0 0

0101101
*
Ed
 1e-07 1 1 0
1  1 0 0 0.0349999999999999
0

0101000
+786 0 -786 1 *
Ve
1e-07
7.42528 1.083336 1.4942
0 0

0101101
*
Ed
 1e-07 1 1 0
1  2 0 0 0.0349999999999999
0

0101000
+784 0 -784 1 *
Ed
 1e-07 1 1 0
1  3 0 0 0.0294044999277319
0

0101000
+786 0 -784 0 *
Wi

0101100
+785 0 -783 0 -782 0 +782 1 *
Fa
0  1e-07 1 0

0101000
+781 0 *
Ve
1e-07
7.411418 1.057403 1.4942
0 0

0101101
*
Ed
 1e-07 1 1 0
1  4 0 0 0.0349999999999999
0

0101000
+779 0 -779 1 *
Ed
 1e-07 1 1 0
1  5 0 0 0.0294053657178412
0

0101000
+784 0 -779 0 *
Wi

0101100
+783 0 -778 0 -777 0 +777 1 *
Fa
0  1e-07 2 0

0101000
+776 0 *
Ve
1e-07
7.402882 1.029264 1.4942
0 0

0101101
*
Ed
 1e-07 1 1 0
1  6 0 0 0.0349999999999999
0

0101000
+774 0 -774 1 *
Ed
 1e-07 1 1 0
1  7 0 0 0.0294052141124667
0

0101000
+779 0 -774 0 *
Wi

0101100
+778 0 -773 0 -772 0 +772 1 *
Fa
0  1e-07 3 0

0101000
+771 0 *
Ve
1e-07
7.4 1 1.4942
0 0

0101101
*
Ed
 1e-07 1 1 0
1  8 0 0 0.0349999999999999
0

0101000
+769 0 -769 1 *
Ed
 1e-07 1 1 0
1  9 0 0 0.0294055712408379
0

0101000
+774 0 -769 0 *
Wi

0101100
+773 0 -768 0 -767 0 +767 1 *
Fa
0  1e-07 4 0

0101000
+766 0 *
Ve
1e-07
7.402882 0.970736 1.4942
0 0

0101101
*
Ed
 1e-07 1 1 0
1  10 0 0 0.0349999999999999
0

0101000
+764 0 -764 1 *
Ed
 1e-07 1 1 0
1  11 0 0 0.0294055712408379
0

0101000
+769 0 -764 0 *
Wi

0101100
+768 0 -763 0 -762 0 +762 1 *
Fa
0  1e-07 5 0

0101000
+761 0 *
Ve
1e-07
7.411418 0.942597 1.4942
0 0

0101101
*
Ed
 1e-07 1 1 0
1  12 0 0 0.0349999999999999
0

0101000
+759 0 -759 1 *
Ed
 1e-07 1 1 0
1  13 0 0 0.0294052141124666
0

0101000
+764 0 -759 0 *
Wi

0101100
+763 0 -758 0 -757 0 +757 1 *
Fa
0  1e-07 6 0

0101000
+756 0 *
Ve
1e-07
7.42528 0.916664 1.4942
0 0

0101101
*
Ed
 1e-07 1 1 0
1  14 0 0 0.0349999999999999
0

0101000
+754 0 -754 1 *
Ed
 1e-07 1 1 0
1  15 0 0 0.0294053657178412
0

0101000
+759 0 -754 0 *
Wi

0101100
+758 0 -753 0 -752 0 +752 1 *
Fa
0  1e-07 7 0

0101000
+751 0 *
Ve
1e-07
7.443934 0.893934 1.4942
0 0

0101101
*
Ed
 1e-07 1 1 0
1  16 0 0 0.0349999999999999
0

0101000
+749 0 -749 1 *
Ed
 1e-07 1 1 0
1  17 0 0 0.029404499927732
0

0101000
+754 0 -749 0 *
Wi

0101100
+753 0 -748 0 -747 0 +747 1 *
Fa
0  1e-07 8 0

0101000
+746 0 *
Ve
1e-07
7.466664 0.87528 1.4942
0 0

0101101
*
Ed
 1e-07 1 1 0
1  18 0 0 0.0349999999999999
0

0101000
+744 0 -744 1 *
Ed
 1e-07 1 1 0
1  19 0 0 0.0294044999277323
0

0101000
+749 0 -744 0 *
Wi

0101100
+748 0 -743 0 -742 0 +742 1 *
Fa
0  1e-07 9 0

0101000
+741 0 *
Ve
1e-07
7.492597 0.861418 1.4942
0 0

0101101
*
Ed
 1e-07 1 1 0
1  20 0 0 0.0349999999999999
0

0101000
+739 0 -739 1 *
Ed
 1e-07 1 1 0
1  21 0 0 0.0294053657178415
0

0101000
+744 0 -739 0 *
Wi

0101100
+743 0 -738 0 -737 0 +737 1 *
Fa
0  1e-07 10 0

0101000
+736 0 *
Ve
1e-07
7.520736 0.852882 1.4942
0 0

0101101
*
Ed
 1e-07 1 1 0
1  22 0 0 0.0349999999999999
0

0101000
+734 0 -734 1 *
Ed
 1e-07 1 1 0
1  23 0 0 0.0294052141124669
0

0101000
+739 0 -734 0 *
Wi

0101100
+738 0 -733 0 -732 0 +732 1 *
Fa
0  1e-07 11 0

0101000
+731 0 *
Ve
1e-07
7.55 0.85 1.4942
0 0

0101101
*
Ed
 1e-07 1 1 0
1  24 0 0 0.0349999999999999
0

0101000
+729 0 -729 1 *
Ed
 1e-07 1 1 0
1  25 0 0 0.0294055712408375
0

0101000
+734 0 -729 0 *
Wi

0101100
+733 0 -728 0 -727 0 +727 1 *
Fa
0  1e-07 12 0

0101000
+726 0 *
Ve
1e-07
7.579264 0.852882 1.4942
0 0

0101101
*
Ed
 1e-07 1 1 0
1  26 0 0 0.0349999999999999
0

0101000
+724 0 -724 1 *
Ed
 1e-07 1 1 0
1  27 0 0 0.0294055712408384
0

0101000
+729 0 -724 0 *
Wi

0101100
+728 0 -723 0 -722 0 +722 1 *
Fa
0  1e-07 13 0

0101000
+721 0 *
Ve
1e-07
7.607403 0.861418 1.4942
0 0

0101101
*
Ed
 1e-07 1 1 0
1  28 0 0 0.0349999999999999
0

0101000
+719 0 -719 1 *
Ed
 1e-07 1 1 0
1  29 0 0 0.029405214112466
0

0101000
+724 0 -719 0 *
Wi

0101100
+723 0 -718 0 -717 0 +717 1 *
Fa
0  1e-07 14 0

0101000
+716 0 *
Ve
1e-07
7.633336 0.87528 1.4942
0 0

0101101
*
Ed
 1e-07 1 1 0
1  30 0 0 0.0349999999999999
0

0101000
+714 0 -714 1 *
Ed
 1e-07 1 1 0
1  31 0 0 0.0294053657178415
0

0101000
+719 0 -714 0 *
Wi

0101100
+718 0 -713 0 -712 0 +712 1 *
Fa
0  1e-07 15 0

0101000
+711 0 *
Ve
1e-07
7.656066 0.893934 1.4942
0 0

0101101
*
Ed
 1e-07 1 1 0
1  32 0 0 0.0349999999999999
0

0101000
+709 0 -709 1 *
Ed
 1e-07 1 1 0
1  33 0 0 0.0294044999277323
0

0101000
+714 0 -709 0 *
Wi

0101100
+713 0 -708 0 -707 0 +707 1 *
Fa
0  1e-07 16 0

0101000
+706 0 *
Ve
1e-07
7.67472 0.916664 1.4942
0 0

0101101
*
Ed
 1e-07 1 1 0
1  34 0 0 0.0349999999999999
0

0101000
+704 0 -704 1 *
Ed
 1e-07 1 1 0
1  35 0 0 0.029404499927732
0

0101000
+709 0 -704 0 *
Wi

0101100
+708 0 -703 0 -702 0 +702 1 *
Fa
0  1e-07 17 0

0101000
+701 0 *
Ve
1e-07
7.688582 0.942597 1.4942
0 0

0101101
*
Ed
 1e-07 1 1 0
1  36 0 0 0.0349999999999999
0

0101000
+699 0 -699 1 *
Ed
 1e-07 1 1 0
1  37 0 0 0.0294053657178416
0

0101000
+704 0 -699 0 *
Wi

0101100
+703 0 -698 0 -697 0 +697 1 *
Fa
0  1e-07 18 0

0101000
+696 0 *
Ve
1e-07
7.697118 0.970736 1.4942
0 0

0101101
*
Ed
 1e-07 1 1 0
1  38 0 0 0.0349999999999999
0

0101000
+694 0 -694 1 *
Ed
 1e-07 1 1 0
1  39 0 0 0.0294052141124664
0

0101000
+699 0 -694 0 *
Wi

0101100
+698 0 -693 0 -692 0 +692 1 *
Fa
0  1e-07 19 0

0101000
+691 0 *
Ve
1e-07
7.7 1 1.4942
0 0

0101101
*
Ed
 1e-07 1 1 0
1  40 0 0 0.0349999999999999
0

0101000
+689 0 -689 1 *
Ed
 1e-07 1 1 0
1  41 0 0 0.029405571240838
0

0101000
+694 0 -689 0 *
Wi

0101100
+693 0 -688 0 -687 0 +687 1 *
Fa
0  1e-07 20 0

0101000
+686 0 *
Ve
1e-07
7.697377 1.026628 1.4942
0 0

0101101
*
Ed
 1e-07 1 1 0
1  42 0 0 0.0349999999999999
0

0101000
+684 0 -684 1 *
Ed
 1e-07 1 1 0
1  43 0 0 0.0267568778634579
0

0101000
+689 0 -684 0 *
Wi

0101100
+688 0 -683 0 -682 0 +682 1 *
Fa
0  1e-07 21 0

0101000
+681 0 *
Ve
1e-07
7.924807 1.156588 1.4942
0 0

0101101
*
Ed
 1e-07 1 1 0
1  44 0 0 0.0349999999999999
0

0101000
+679 0 -679 1 *
Ed
 1e-07 1 1 0
1  45 0 0 0.26194275424222
0

0101000
+684 0 -679 0 *
Wi

0101100
+683 0 -678 0 -677 0 +677 1 *
Fa
0  1e-07 22 0

0101000
+676 0 *
Ve
1e-07
7.926235 1.157601 1.4942
0 0

0101101
*
Ed
 1e-07 1 1 0
1  46 0 0 0.0349999999999999
0

0101000
+674 0 -674 1 *
Ed
 1e-07 1 1 0
1  47 0 0 0.00175081495310031
0

0101000
+679 0 -674 0 *
Wi

0101100
+678 0 -673 0 -672 0 +672 1 *
Fa
0  1e-07 23 0

0101000
+671 0 *
Ve
1e-07
7.927779 1.158427 1.4942
0 0

0101101
*
Ed
 1e-07 1 1 0
1  48 0 0 0.0349999999999999
0

0101000
+669 0 -669 1 *
Ed
 1e-07 1 1 0
1  49 0 0 0.00175106025024839
0

0101000
+674 0 -669 0 *
Wi

0101100
+673 0 -668 0 -667 0 +667 1 *
Fa
0  1e-07 24 0

0101000
+666 0 *
Ve
1e-07
7.930222 1.160432 1.4942
0 0

0101101
*
Ed
 1e-07 1 1 0
1  50 0 0 0.0349999999999999
0

0101000
+664 0 -664 1 *
Ed
 1e-07 1 1 0
1  51 0 0 0.00316042307294402
0

0101000
+669 0 -664 0 *
Wi

0101100
+668 0 -663 0 -662 0 +662 1 *
Fa
0  1e-07 25 0

0101000
+661 0 *
Ve
1e-07
7.9328 1.162262 1.4942
0 0

0101101
*
Ed
 1e-07 1 1 0
1  52 0 0 0.0349999999999999
0

0101000
+659 0 -659 1 *
Ed
 1e-07 1 1 0
1  53 0 0 0.00316148446145213
0

0101000
+664 0 -659 0 *
Wi

0101100
+663 0 -658 0 -657 0 +657 1 *
Fa
0  1e-07 26 0

0101000
+656 0 *
Ve
1e-07
7.934002 1.163534 1.4942
0 0

0101101
*
Ed
 1e-07 1 1 0
1  54 0 0 0.0349999999999999
0

0101000
+654 0 -654 1 *
Ed
 1e-07 1 1 0
1  55 0 0 0.00175008228378004
0

0101000
+659 0 -654 0 *
Wi

0101100
+658 0 -653 0 -652 0 +652 1 *
Fa
0  1e-07 27 0

0101000
+651 0 *
Ve
1e-07
7.935355 1.164645 1.4942
0 0

0101101
*
Ed
 1e-07 1 1 0
1  56 0 0 0.0349999999999999
0

0101000
+649 0 -649 1 *
Ed
 1e-07 1 1 0
1  57 0 0 0.00175069414804515
0

0101000
+654 0 -649 0 *
Wi

0101100
+653 0 -648 0 -647 0 +647 1 *
Fa
0  1e-07 28 0

0101000
+646 0 *
Ve
1e-07
7.937361 1.167088 1.4942
0 0

0101101
*
Ed
 1e-07 1 1 0
1  58 0 0 0.0349999999999999
0

0101000
+644 0 -644 1 *
Ed
 1e-07 1 1 0
1  59 0 0 0.00316105757619167
0

0101000
+649 0 -644 0 *
Wi

0101100
+648 0 -643 0 -642 0 +642 1 *
Fa
0  1e-07 29 0

0101000
+641 0 *
Ve
1e-07
7.939532 1.169386 1.4942
0 0

0101101
*
Ed
 1e-07 1 1 0
1  60 0 0 0.0349999999999999
0

0101000
+639 0 -639 1 *
Ed
 1e-07 1 1 0
1  61 0 0 0.00316133595177724
0

0101000
+644 0 -639 0 *
Wi

0101100
+643 0 -638 0 -637 0 +637 1 *
Fa
0  1e-07 30 0

0101000
+636 0 *
Ve
1e-07
7.940463 1.170868 1.4942
0 0

0101101
*
Ed
 1e-07 1 1 0
1  62 0 0 0.0349999999999999
0

0101000
+634 0 -634 1 *
Ed
 1e-07 1 1 0
1  63 0 0 0.00175016713487621
0

0101000
+639 0 -634 0 *
Wi

0101100
+638 0 -633 0 -632 0 +632 1 *
Fa
0  1e-07 31 0

0101000
+631 0 *
Ve
1e-07
7.941573 1.172221 1.4942
0 0

0101101
*
Ed
 1e-07 1 1 0
1  64 0 0 0.0349999999999999
0

0101000
+629 0 -629 1 *
Ed
 1e-07 1 1 0
1  65 0 0 0.00175005971326673
0

0101000
+634 0 -629 0 *
Wi

0101100
+633 0 -628 0 -627 0 +627 1 *
Fa
0  1e-07 32 0

0101000
+626 0 *
Ve
1e-07
7.943064 1.175009 1.4942
0 0

0101101
*
Ed
 1e-07 1 1 0
1  66 0 0 0.0349999999999999
0

0101000
+624 0 -624 1 *
Ed
 1e-07 1 1 0
1  67 0 0 0.00316164909501341
0

0101000
+629 0 -624 0 *
Wi

0101100
+628 0 -623 0 -622 0 +622 1 *
Fa
0  1e-07 33 0

0101000
+621 0 *
Ve
1e-07
7.944745 1.177686 1.4942
0 0

0101101
*
Ed
 1e-07 1 1 0
1  68 0 0 0.0349999999999999
0

0101000
+619 0 -619 1 *
Ed
 1e-07 1 1 0
1  69 0 0 0.00316102673193408
0

0101000
+624 0 -619 0 *
Wi

0101100
+623 0 -618 0 -617 0 +617 1 *
Fa
0  1e-07 34 0

0101000
+616 0 *
Ve
1e-07
7.945369 1.179322 1.4942
0 0

0101101
*
Ed
 1e-07 1 1 0
1  70 0 0 0.0349999999999999
0

0101000
+614 0 -614 1 *
Ed
 1e-07 1 1 0
1  71 0 0 0.0017509631635189
0

0101000
+619 0 -614 0 *
Wi

0101100
+618 0 -613 0 -612 0 +612 1 *
Fa
0  1e-07 35 0

0101000
+611 0 *
Ve
1e-07
7.946194 1.180866 1.4942
0 0

0101101
*
Ed
 1e-07 1 1 0
1  72 0 0 0.0349999999999999
0

0101000
+609 0 -609 1 *
Ed
 1e-07 1 1 0
1  73 0 0 0.00175058875810389
0

0101000
+614 0 -609 0 *
Wi

0101100
+613 0 -608 0 -607 0 +607 1 *
Fa
0  1e-07 36 0

0101000
+606 0 *
Ve
1e-07
7.947112 1.183891 1.4942
0 0

0101101
*
Ed
 1e-07 1 1 0
1  74 0 0 0.0349999999999999
0

0101000
+604 0 -604 1 *
Ed
 1e-07 1 1 0
1  75 0 0 0.00316122586981688
0

0101000
+609 0 -604 0 *
Wi

0101100
+608 0 -603 0 -602 0 +602 1 *
Fa
0  1e-07 37 0

0101000
+601 0 *
Ve
1e-07
7.948238 1.186844 1.4942
0 0

0101101
*
Ed
 1e-07 1 1 0
1  76 0 0 0.0349999999999999
0

0101000
+599 0 -599 1 *
Ed
 1e-07 1 1 0
1  77 0 0 0.00316039317174308
0

0101000
+604 0 -599 0 *
Wi

0101100
+603 0 -598 0 -597 0 +597 1 *
Fa
0  1e-07 38 0

0101000
+596 0 *
Ve
1e-07
7.948531 1.18857 1.4942
0 0

0101101
*
Ed
 1e-07 1 1 0
1  78 0 0 0.0349999999999999
0

0101000
+594 0 -594 1 *
Ed
 1e-07 1 1 0
1  79 0 0 0.00175069272003961
0

0101000
+599 0 -594 0 *
Wi

0101100
+598 0 -593 0 -592 0 +592 1 *
Fa
0  1e-07 39 0

0101000
+591 0 *
Ve
1e-07
7.949039 1.190245 1.4942
0 0

0101101
*
Ed
 1e-07 1 1 0
1  80 0 0 0.0349999999999999
0

0101000
+589 0 -589 1 *
Ed
 1e-07 1 1 0
1  81 0 0 0.0017503396813191
0

0101000
+594 0 -589 0 *
Wi

0101100
+593 0 -588 0 -587 0 +587 1 *
Fa
0  1e-07 40 0

0101000
+586 0 *
Ve
1e-07
7.949349 1.193391 1.4942
0 0

0101101
*
Ed
 1e-07 1 1 0
1  82 0 0 0.0349999999999999
0

0101000
+584 0 -584 1 *
Ed
 1e-07 1 1 0
1  83 0 0 0.0031612364669541
0

0101000
+589 0 -584 0 *
Wi

0101100
+588 0 -583 0 -582 0 +582 1 *
Fa
0  1e-07 41 0

0101000
+581 0 *
Ve
1e-07
7.949878 1.196508 1.4942
0 0

0101101
*
Ed
 1e-07 1 1 0
1  84 0 0 0.0349999999999999
0

0101000
+579 0 -579 1 *
Ed
 1e-07 1 1 0
1  85 0 0 0.00316157081211209
0

0101000
+584 0 -579 0 *
Wi

0101100
+583 0 -578 0 -577 0 +577 1 *
Fa
0  1e-07 42 0

0101000
+576 0 *
Ve
1e-07
7.949828 1.198258 1.4942
0 0

0101101
*
Ed
 1e-07 1 1 0
1  86 0 0 0.0349999999999999
0

0101000
+574 0 -574 1 *
Ed
 1e-07 1 1 0
1  87 0 0 0.0017507141400013
0

0101000
+579 0 -574 0 *
Wi

0101100
+578 0 -573 0 -572 0 +572 1 *
Fa
0  1e-07 43 0

0101000
+571 0 *
Ve
1e-07
7.95 1.2 1.4942
0 0

0101101
*
Ed
 1e-07 1 1 0
1  88 0 0 0.0349999999999999
0

0101000
+569 0 -569 1 *
Ed
 1e-07 1 1 0
1  89 0 0 0.00175047079381511
0

0101000
+574 0 -569 0 *
Wi

0101100
+573 0 -568 0 -567 0 +567 1 *
Fa
0  1e-07 44 0

0101000
+566 0 *
Ve
1e-07
7.94969 1.203146 1.4942
0 0

0101101
*
Ed
 1e-07 1 1 0
1  90 0 0 0.0349999999999999
0

0101000
+564 0 -564 1 *
Ed
 1e-07 1 1 0
1  91 0 0 0.0031612364669541
0

0101000
+569 0 -564 0 *
Wi

0101100
+568 0 -563 0 -562 0 +562 1 *
Fa
0  1e-07 45 0

0101000
+561 0 *
Ve
1e-07
7.949601 1.206306 1.4942
0 0

0101101
*
Ed
 1e-07 1 1 0
1  92 0 0 0.0349999999999999
0

0101000
+559 0 -559 1 *
Ed
 1e-07 1 1 0
1  93 0 0 0.00316125307433624
0

0101000
+564 0 -559 0 *
Wi

0101100
+563 0 -558 0 -557 0 +557 1 *
Fa
0  1e-07 46 0

0101000
+556 0 *
Ve
1e-07
7.949211 1.208012 1.4942
0 0

0101101
*
Ed
 1e-07 1 1 0
1  94 0 0 0.0349999999999999
0

0101000
+554 0 -554 1 *
Ed
 1e-07 1 1 0
1  95 0 0 0.00175001028568412
0

0101000
+559 0 -554 0 *
Wi

0101100
+558 0 -553 0 -552 0 +552 1 *
Fa
0  1e-07 47 0

0101000
+551 0 *
Ve
1e-07
7.949039 1.209755 1.4942
0 0

0101101
*
Ed
 1e-07 1 1 0
1  96 0 0 0.0349999999999999
0

0101000
+549 0 -549 1 *
Ed
 1e-07 1 1 0
1  97 0 0 0.0017514659574195
0

0101000
+554 0 -549 0 *
Wi

0101100
+553 0 -548 0 -547 0 +547 1 *
Fa
0  1e-07 48 0

0101000
+546 0 *
Ve
1e-07
7.948122 1.212779 1.4942
0 0

0101101
*
Ed
 1e-07 1 1 0
1  98 0 0 0.0349999999999999
0

0101000
+544 0 -544 1 *
Ed
 1e-07 1 1 0
1  99 0 0 0.00315997863916852
0

0101000
+549 0 -544 0 *
Wi

0101100
+548 0 -543 0 -542 0 +542 1 *
Fa
0  1e-07 49 0

0101000
+541 0 *
Ve
1e-07
7.947418 1.215861 1.4942
0 0

0101101
*
Ed
 1e-07 1 1 0
1  100 0 0 0.0349999999999999
0

0101000
+539 0 -539 1 *
Ed
 1e-07 1 1 0
1  101 0 0 0.00316138260892286
0

0101000
+544 0 -539 0 *
Wi

0101100
+543 0 -538 0 -537 0 +537 1 *
Fa
0  1e-07 50 0

0101000
+536 0 *
Ve
1e-07
7.946702 1.217459 1.4942
0 0

0101101
*
Ed
 1e-07 1 1 0
1  102 0 0 0.0349999999999999
0

0101000
+534 0 -534 1 *
Ed
 1e-07 1 1 0
1  103 0 0 0.00175107395617648
0

0101000
+539 0 -534 0 *
Wi

0101100
+538 0 -533 0 -532 0 +532 1 *
Fa
0  1e-07 51 0

0101000
+531 0 *
Ve
1e-07
7.946194 1.219134 1.4942
0 0

0101101
*
Ed
 1e-07 1 1 0
1  104 0 0 0.0349999999999999
0

0101000
+529 0 -529 1 *
Ed
 1e-07 1 1 0
1  105 0 0 0.00175033968131889
0

0101000
+534 0 -529 0 *
Wi

0101100
+533 0 -528 0 -527 0 +527 1 *
Fa
0  1e-07 52 0

0101000
+526 0 *
Ve
1e-07
7.944704 1.221922 1.4942
0 0

0101101
*
Ed
 1e-07 1 1 0
1  106 0 0 0.0349999999999999
0

0101000
+524 0 -524 1 *
Ed
 1e-07 1 1 0
1  107 0 0 0.00316117762866963
0

0101000
+529 0 -524 0 *
Wi

0101100
+528 0 -523 0 -522 0 +522 1 *
Fa
0  1e-07 53 0

0101000
+521 0 *
Ve
1e-07
7.943412 1.224807 1.4942
0 0

0101101
*
Ed
 1e-07 1 1 0
1  108 0 0 0.0349999999999999
0

0101000
+519 0 -519 1 *
Ed
 1e-07 1 1 0
1  109 0 0 0.00316108984370875
0

0101000
+524 0 -519 0 *
Wi

0101100
+523 0 -518 0 -517 0 +517 1 *
Fa
0  1e-07 54 0

0101000
+516 0 *
Ve
1e-07
7.942399 1.226235 1.4942
0 0

0101101
*
Ed
 1e-07 1 1 0
1  110 0 0 0.0349999999999999
0

0101000
+514 0 -514 1 *
Ed
 1e-07 1 1 0
1  111 0 0 0.00175081495310062
0

0101000
+519 0 -514 0 *
Wi

0101100
+518 0 -513 0 -512 0 +512 1 *
Fa
0  1e-07 55 0

0101000
+511 0 *
Ve
1e-07
7.941573 1.227779 1.4942
0 0

0101101
*
Ed
 1e-07 1 1 0
1  112 0 0 0.0349999999999999
0

0101000
+509 0 -509 1 *
Ed
 1e-07 1 1 0
1  113 0 0 0.00175106025024839
0

0101000
+514 0 -509 0 *
Wi

0101100
+513 0 -508 0 -507 0 +507 1 *
Fa
0  1e-07 56 0

0101000
+506 0 *
Ve
1e-07
7.939568 1.230222 1.4942
0 0

0101101
*
Ed
 1e-07 1 1 0
1  114 0 0 0.0349999999999999
0

0101000
+504 0 -504 1 *
Ed
 1e-07 1 1 0
1  115 0 0 0.00316042307294423
0

0101000
+509 0 -504 0 *
Wi

0101100
+508 0 -503 0 -502 0 +502 1 *
Fa
0  1e-07 57 0

0101000
+501 0 *
Ve
1e-07
7.937738 1.2328 1.4942
0 0

0101101
*
Ed
 1e-07 1 1 0
1  116 0 0 0.0349999999999999
0

0101000
+499 0 -499 1 *
Ed
 1e-07 1 1 0
1  117 0 0 0.00316148446145159
0

0101000
+504 0 -499 0 *
Wi

0101100
+503 0 -498 0 -497 0 +497 1 *
Fa
0  1e-07 58 0

0101000
+496 0 *
Ve
1e-07
7.936466 1.234002 1.4942
0 0

0101101
*
Ed
 1e-07 1 1 0
1  118 0 0 0.0349999999999999
0

0101000
+494 0 -494 1 *
Ed
 1e-07 1 1 0
1  119 0 0 0.00175008228378004
0

0101000
+499 0 -494 0 *
Wi

0101100
+498 0 -493 0 -492 0 +492 1 *
Fa
0  1e-07 59 0

0101000
+491 0 *
Ve
1e-07
7.935355 1.235355 1.4942
0 0

0101101
*
Ed
 1e-07 1 1 0
1  120 0 0 0.0349999999999999
0

0101000
+489 0 -489 1 *
Ed
 1e-07 1 1 0
1  121 0 0 0.00175069414804515
0

0101000
+494 0 -489 0 *
Wi

0101100
+493 0 -488 0 -487 0 +487 1 *
Fa
0  1e-07 60 0

0101000
+486 0 *
Ve
1e-07
7.932912 1.237361 1.4942
0 0

0101101
*
Ed
 1e-07 1 1 0
1  122 0 0 0.0349999999999999
0

0101000
+484 0 -484 1 *
Ed
 1e-07 1 1 0
1  123 0 0 0.00316105757619216
0

0101000
+489 0 -484 0 *
Wi

0101100
+488 0 -483 0 -482 0 +482 1 *
Fa
0  1e-07 61 0

0101000
+481 0 *
Ve
1e-07
7.930614 1.239532 1.4942
0 0

0101101
*
Ed
 1e-07 1 1 0
1  124 0 0 0.0349999999999999
0

0101000
+479 0 -479 1 *
Ed
 1e-07 1 1 0
1  125 0 0 0.00316133595177722
0

0101000
+484 0 -479 0 *
Wi

0101100
+483 0 -478 0 -477 0 +477 1 *
Fa
0  1e-07 62 0

0101000
+476 0 *
Ve
1e-07
7.929132 1.240463 1.4942
0 0

0101101
*
Ed
 1e-07 1 1 0
1  126 0 0 0.0349999999999999
0

0101000
+474 0 -474 1 *
Ed
 1e-07 1 1 0
1  127 0 0 0.00175016713487616
0

0101000
+479 0 -474 0 *
Wi

0101100
+478 0 -473 0 -472 0 +472 1 *
Fa
0  1e-07 63 0

0101000
+471 0 *
Ve
1e-07
7.927779 1.241573 1.4942
0 0

0101101
*
Ed
 1e-07 1 1 0
1  128 0 0 0.0349999999999999
0

0101000
+469 0 -469 1 *
Ed
 1e-07 1 1 0
1  129 0 0 0.00175005971326687
0

0101000
+474 0 -469 0 *
Wi

0101100
+473 0 -468 0 -467 0 +467 1 *
Fa
0  1e-07 64 0

0101000
+466 0 *
Ve
1e-07
7.924991 1.243064 1.4942
0 0

0101101
*
Ed
 1e-07 1 1 0
1  130 0 0 0.0349999999999999
0

0101000
+464 0 -464 1 *
Ed
 1e-07 1 1 0
1  131 0 0 0.00316164909501332
0

0101000
+469 0 -464 0 *
Wi

0101100
+468 0 -463 0 -462 0 +462 1 *
Fa
0  1e-07 65 0

0101000
+461 0 *
Ve
1e-07
7.922314 1.244745 1.4942
0 0

0101101
*
Ed
 1e-07 1 1 0
1  132 0 0 0.0349999999999999
0

0101000
+459 0 -459 1 *
Ed
 1e-07 1 1 0
1  133 0 0 0.00316102673193403
0

0101000
+464 0 -459 0 *
Wi

0101100
+463 0 -458 0 -457 0 +457 1 *
Fa
0  1e-07 66 0

0101000
+456 0 *
Ve
1e-07
7.920678 1.245369 1.4942
0 0

0101101
*
Ed
 1e-07 1 1 0
1  134 0 0 0.0349999999999999
0

0101000
+454 0 -454 1 *
Ed
 1e-07 1 1 0
1  135 0 0 0.00175096316351924
0

0101000
+459 0 -454 0 *
Wi

0101100
+458 0 -453 0 -452 0 +452 1 *
Fa
0  1e-07 67 0

0101000
+451 0 *
Ve
1e-07
7.919134 1.246194 1.4942
0 0

0101101
*
Ed
 1e-07 1 1 0
1  136 0 0 0.0349999999999999
0

0101000
+449 0 -449 1 *
Ed
 1e-07 1 1 0
1  137 0 0 0.001750588758104
0

0101000
+454 0 -449 0 *
Wi

0101100
+453 0 -448 0 -447 0 +447 1 *
Fa
0  1e-07 68 0

0101000
+446 0 *
Ve
1e-07
7.916109 1.247112 1.4942
0 0

0101101
*
Ed
 1e-07 1 1 0
1  138 0 0 0.0349999999999999
0

0101000
+444 0 -444 1 *
Ed
 1e-07 1 1 0
1  139 0 0 0.00316122586981701
0

0101000
+449 0 -444 0 *
Wi

0101100
+448 0 -443 0 -442 0 +442 1 *
Fa
0  1e-07 69 0

0101000
+441 0 *
Ve
1e-07
7.913156 1.248238 1.4942
0 0

0101101
*
Ed
 1e-07 1 1 0
1  140 0 0 0.0349999999999999
0

0101000
+439 0 -439 1 *
Ed
 1e-07 1 1 0
1  141 0 0 0.0031603931717428
0

0101000
+444 0 -439 0 *
Wi

0101100
+443 0 -438 0 -437 0 +437 1 *
Fa
0  1e-07 70 0

0101000
+436 0 *
Ve
1e-07
7.91143 1.248531 1.4942
0 0

0101101
*
Ed
 1e-07 1 1 0
1  142 0 0 0.0349999999999999
0

0101000
+434 0 -434 1 *
Ed
 1e-07 1 1 0
1  143 0 0 0.00175069272003939
0

0101000
+439 0 -434 0 *
Wi

0101100
+438 0 -433 0 -432 0 +432 1 *
Fa
0  1e-07 71 0

0101000
+431 0 *
Ve
1e-07
7.909755 1.249039 1.4942
0 0

0101101
*
Ed
 1e-07 1 1 0
1  144 0 0 0.0349999999999999
0

0101000
+429 0 -429 1 *
Ed
 1e-07 1 1 0
1  145 0 0 0.00175033968131953
0

0101000
+434 0 -429 0 *
Wi

0101100
+433 0 -428 0 -427 0 +427 1 *
Fa
0  1e-07 72 0

0101000
+426 0 *
Ve
1e-07
7.906609 1.249349 1.4942
0 0

0101101
*
Ed
 1e-07 1 1 0
1  146 0 0 0.0349999999999999
0

0101000
+424 0 -424 1 *
Ed
 1e-07 1 1 0
1  147 0 0 0.00316123646695324
0

0101000
+429 0 -424 0 *
Wi

0101100
+428 0 -423 0 -422 0 +422 1 *
Fa
0  1e-07 73 0

0101000
+421 0 *
Ve
1e-07
7.903492 1.249878 1.4942
0 0

0101101
*
Ed
 1e-07 1 1 0
1  148 0 0 0.0349999999999999
0

0101000
+419 0 -419 1 *
Ed
 1e-07 1 1 0
1  149 0 0 0.00316157081211271
0

0101000
+424 0 -419 0 *
Wi

0101100
+423 0 -418 0 -417 0 +417 1 *
Fa
0  1e-07 74 0

0101000
+416 0 *
Ve
1e-07
7.901742 1.249828 1.4942
0 0

0101101
*
Ed
 1e-07 1 1 0
1  150 0 0 0.0349999999999999
0

0101000
+414 0 -414 1 *
Ed
 1e-07 1 1 0
1  151 0 0 0.00175071414000152
0

0101000
+419 0 -414 0 *
Wi

0101100
+418 0 -413 0 -412 0 +412 1 *
Fa
0  1e-07 75 0

0101000
+411 0 *
Ve
1e-07
7.9 1.25 1.4942
0 0

0101101
*
Ed
 1e-07 1 1 0
1  152 0 0 0.0349999999999999
0

0101000
+409 0 -409 1 *
Ed
 1e-07 1 1 0
1  153 0 0 0.00175047079381445
0

0101000
+414 0 -409 0 *
Wi

0101100
+413 0 -408 0 -407 0 +407 1 *
Fa
0  1e-07 76 0

0101000
+406 0 *
Ve
1e-07
6.992826 1.25 1.4942
0 0

0101101
*
Ed
 1e-07 1 1 0
1  154 0 0 0.0349999999999999
0

0101000
+404 0 -404 1 *
Ed
 1e-07 1 1 0
1  155 0 0 0.907174
0

0101000
+409 0 -404 0 *
Wi

0101100
+408 0 -403 0 -402 0 +402 1 *
Fa
0  1e-07 77 0

0101000
+401 0 *
Ve
1e-07
6.984776 1.276537 1.4942
0 0

0101101
*
Ed
 1e-07 1 1 0
1  156 0 0 0.0349999999999999
0

0101000
+399 0 -399 1 *
Ed
 1e-07 1 1 0
1  157 0 0 0.027731117341355
0

0101000
+404 0 -399 0 *
Wi

0101100
+403 0 -398 0 -397 0 +397 1 *
Fa
0  1e-07 78 0

0101000
+396 0 *
Ve
1e-07
6.966294 1.311114 1.4942
0 0

0101101
*
Ed
 1e-07 1 1 0
1  158 0 0 0.0349999999999999
0

0101000
+394 0 -394 1 *
Ed
 1e-07 1 1 0
1  159 0 0 0.0392065460478219
0

0101000
+399 0 -394 0 *
Wi

0101100
+398 0 -393 0 -392 0 +392 1 *
Fa
0  1e-07 79 0

0101000
+391 0 *
Ve
1e-07
6.941421 1.341421 1.4942
0 0

0101101
*
Ed
 1e-07 1 1 0
1  160 0 0 0.0349999999999999
0

0101000
+389 0 -389 1 *
Ed
 1e-07 1 1 0
1  161 0 0 0.039206891970673
0

0101000
+394 0 -389 0 *
Wi

0101100
+393 0 -388 0 -387 0 +387 1 *
Fa
0  1e-07 80 0

0101000
+386 0 *
Ve
1e-07
6.911114 1.366294 1.4942
0 0

0101101
*
Ed
 1e-07 1 1 0
1  162 0 0 0.0349999999999999
0

0101000
+384 0 -384 1 *
Ed
 1e-07 1 1 0
1  163 0 0 0.0392068919706724
0

0101000
+389 0 -384 0 *
Wi

0101100
+388 0 -383 0 -382 0 +382 1 *
Fa
0  1e-07 81 0

0101000
+381 0 *
Ve
1e-07
6.876537 1.384776 1.4942
0 0

0101101
*
Ed
 1e-07 1 1 0
1  164 0 0 0.0349999999999999
0

0101000
+379 0 -379 1 *
Ed
 1e-07 1 1 0
1  165 0 0 0.0392065460478227
0

0101000
+384 0 -379 0 *
Wi

0101100
+383 0 -378 0 -377 0 +377 1 *
Fa
0  1e-07 82 0

0101000
+376 0 *
Ve
1e-07
6.839018 1.396157 1.4942
0 0

0101101
*
Ed
 1e-07 1 1 0
1  166 0 0 0.0349999999999999
0

0101000
+374 0 -374 1 *
Ed
 1e-07 1 1 0
1  167 0 0 0.0392071743689847
0

0101000
+379 0 -374 0 *
Wi

0101100
+378 0 -373 0 -372 0 +372 1 *
Fa
0  1e-07 83 0

0101000
+371 0 *
Ve
1e-07
6.8 1.4 1.4942
0 0

0101101
*
Ed
 1e-07 1 1 0
1  168 0 0 0.0349999999999999
0

0101000
+369 0 -369 1 *
Ed
 1e-07 1 1 0
1  169 0 0 0.0392067975356319
0

0101000
+374 0 -369 0 *
Wi

0101100
+373 0 -368 0 -367 0 +367 1 *
Fa
0  1e-07 84 0

0101000
+366 0 *
Ve
1e-07
6.760982 1.396157 1.4942
0 0

0101101
*
Ed
 1e-07 1 1 0
1  170 0 0 0.0349999999999999
0

0101000
+364 0 -364 1 *
Ed
 1e-07 1 1 0
1  171 0 0 0.039206797535631
0

0101000
+369 0 -364 0 *
Wi

0101100
+368 0 -363 0 -362 0 +362 1 *
Fa
0  1e-07 85 0

0101000
+361 0 *
Ve
1e-07
6.723463 1.384776 1.4942
0 0

0101101
*
Ed
 1e-07 1 1 0
1  172 0 0 0.0349999999999999
0

0101000
+359 0 -359 1 *
Ed
 1e-07 1 1 0
1  173 0 0 0.0392071743689856
0

0101000
+364 0 -359 0 *
Wi

0101100
+363 0 -358 0 -357 0 +357 1 *
Fa
0  1e-07 86 0

0101000
+356 0 *
Ve
1e-07
6.688886 1.366294 1.4942
0 0

0101101
*
Ed
 1e-07 1 1 0
1  174 0 0 0.0349999999999999
0

0101000
+354 0 -354 1 *
Ed
 1e-07 1 1 0
1  175 0 0 0.0392065460478219
0

0101000
+359 0 -354 0 *
Wi

0101100
+358 0 -353 0 -352 0 +352 1 *
Fa
0  1e-07 87 0

0101000
+351 0 *
Ve
1e-07
6.658579 1.341421 1.4942
0 0

0101101
*
Ed
 1e-07 1 1 0
1  176 0 0 0.0349999999999999
0

0101000
+349 0 -349 1 *
Ed
 1e-07 1 1 0
1  177 0 0 0.0392068919706731
0

0101000
+354 0 -349 0 *
Wi

0101100
+353 0 -348 0 -347 0 +347 1 *
Fa
0  1e-07 88 0

0101000
+346 0 *
Ve
1e-07
6.633706 1.311114 1.4942
0 0

0101101
*
Ed
 1e-07 1 1 0
1  178 0 0 0.0349999999999999
0

0101000
+344 0 -344 1 *
Ed
 1e-07 1 1 0
1  179 0 0 0.0392068919706724
0

0101000
+349 0 -344 0 *
Wi

0101100
+348 0 -343 0 -342 0 +342 1 *
Fa
0  1e-07 89 0

0101000
+341 0 *
Ve
1e-07
6.615224 1.276537 1.4942
0 0

0101101
*
Ed
 1e-07 1 1 0
1  180 0 0 0.0349999999999999
0

0101000
+339 0 -339 1 *
Ed
 1e-07 1 1 0
1  181 0 0 0.0392065460478219
0

0101000
+344 0 -339 0 *
Wi

0101100
+343 0 -338 0 -337 0 +337 1 *
Fa
0  1e-07 90 0

0101000
+336 0 *
Ve
1e-07
6.603843 1.239018 1.4942
0 0

0101101
*
Ed
 1e-07 1 1 0
1  182 0 0 0.0349999999999999
0

0101000
+334 0 -334 1 *
Ed
 1e-07 1 1 0
1  183 0 0 0.0392071743689852
0

0101000
+339 0 -334 0 *
Wi

0101100
+338 0 -333 0 -332 0 +332 1 *
Fa
0  1e-07 91 0

0101000
+331 0 *
Ve
1e-07
6.6 1.2 1.4942
0 0

0101101
*
Ed
 1e-07 1 1 0
1  184 0 0 0.0349999999999999
0

0101000
+329 0 -329 1 *
Ed
 1e-07 1 1 0
1  185 0 0 0.0392067975356316
0

0101000
+334 0 -329 0 *
Wi

0101100
+333 0 -328 0 -327 0 +327 1 *
Fa
0  1e-07 92 0

0101000
+326 0 *
Ve
1e-07
6.603843 1.160982 1.4942
0 0

0101101
*
Ed
 1e-07 1 1 0
1  186 0 0 0.0349999999999999
0

0101000
+324 0 -324 1 *
Ed
 1e-07 1 1 0
1  187 0 0 0.0392067975356316
0

0101000
+329 0 -324 0 *
Wi

0101100
+328 0 -323 0 -322 0 +322 1 *
Fa
0  1e-07 93 0

0101000
+321 0 *
Ve
1e-07
6.615224 1.123463 1.4942
0 0

0101101
*
Ed
 1e-07 1 1 0
1  188 0 0 0.0349999999999999
0

0101000
+319 0 -319 1 *
Ed
 1e-07 1 1 0
1  189 0 0 0.039207174368985
0

0101000
+324 0 -319 0 *
Wi

0101100
+323 0 -318 0 -317 0 +317 1 *
Fa
0  1e-07 94 0

0101000
+316 0 *
Ve
1e-07
6.633706 1.088886 1.4942
0 0

0101101
*
Ed
 1e-07 1 1 0
1  190 0 0 0.0349999999999999
0

0101000
+314 0 -314 1 *
Ed
 1e-07 1 1 0
1  191 0 0 0.0392065460478221
0

0101000
+319 0 -314 0 *
Wi

0101100
+318 0 -313 0 -312 0 +312 1 *
Fa
0  1e-07 95 0

0101000
+311 0 *
Ve
1e-07
6.658579 1.058579 1.4942
0 0

0101101
*
Ed
 1e-07 1 1 0
1  192 0 0 0.0349999999999999
0

0101000
+309 0 -309 1 *
Ed
 1e-07 1 1 0
1  193 0 0 0.0392068919706724
0

0101000
+314 0 -309 0 *
Wi

0101100
+313 0 -308 0 -307 0 +307 1 *
Fa
0  1e-07 96 0

0101000
+306 0 *
Ve
1e-07
6.688886 1.033706 1.4942
0 0

0101101
*
Ed
 1e-07 1 1 0
1  194 0 0 0.0349999999999999
0

0101000
+304 0 -304 1 *
Ed
 1e-07 1 1 0
1  195 0 0 0.0392068919706731
0

0101000
+309 0 -304 0 *
Wi

0101100
+308 0 -303 0 -302 0 +302 1 *
Fa
0  1e-07 97 0

0101000
+301 0 *
Ve
1e-07
6.723463 1.015224 1.4942
0 0

0101101
*
Ed
 1e-07 1 1 0
1  196 0 0 0.0349999999999999
0

0101000
+299 0 -299 1 *
Ed
 1e-07 1 1 0
1  197 0 0 0.0392065460478219
0

0101000
+304 0 -299 0 *
Wi

0101100
+303 0 -298 0 -297 0 +297 1 *
Fa
0  1e-07 98 0

0101000
+296 0 *
Ve
1e-07
6.760982 1.003843 1.4942
0 0

0101101
*
Ed
 1e-07 1 1 0
1  198 0 0 0.0349999999999999
0

0101000
+294 0 -294 1 *
Ed
 1e-07 1 1 0
1  199 0 0 0.0392071743689855
0

0101000
+299 0 -294 0 *
Wi

0101100
+298 0 -293 0 -292 0 +292 1 *
Fa
0  1e-07 99 0

0101000
+291 0 *
Ve
1e-07
6.8 1 1.4942
0 0

0101101
*
Ed
 1e-07 1 1 0
1  200 0 0 0.0349999999999999
0

0101000
+289 0 -289 1 *
Ed
 1e-07 1 1 0
1  201 0 0 0.0392067975356311
0

0101000
+294 0 -289 0 *
Wi

0101100
+293 0 -288 0 -287 0 +287 1 *
Fa
0  1e-07 100 0

0101000
+286 0 *
Ve
1e-07
6.839018 1.003843 1.4942
0 0

0101101
*
Ed
 1e-07 1 1 0
1  202 0 0 0.0349999999999999
0

0101000
+284 0 -284 1 *
Ed
 1e-07 1 1 0
1  203 0 0 0.0392067975356319
0

0101000
+289 0 -284 0 *
Wi

0101100
+288 0 -283 0 -282 0 +282 1 *
Fa
0  1e-07 101 0

0101000
+281 0 *
Ve
1e-07
6.876537 1.015224 1.4942
0 0

0101101
*
Ed
 1e-07 1 1 0
1  204 0 0 0.0349999999999999
0

0101000
+279 0 -279 1 *
Ed
 1e-07 1 1 0
1  205 0 0 0.0392071743689847
0

0101000
+284 0 -279 0 *
Wi

0101100
+283 0 -278 0 -277 0 +277 1 *
Fa
0  1e-07 102 0

0101000
+276 0 *
Ve
1e-07
6.911114 1.033706 1.4942
0 0

0101101
*
Ed
 1e-07 1 1 0
1  206 0 0 0.0349999999999999
0

0101000
+274 0 -274 1 *
Ed
 1e-07 1 1 0
1  207 0 0 0.0392065460478227
0

0101000
+279 0 -274 0 *
Wi

0101100
+278 0 -273 0 -272 0 +272 1 *
Fa
0  1e-07 103 0

0101000
+271 0 *
Ve
1e-07
6.941421 1.058579 1.4942
0 0

0101101
*
Ed
 1e-07 1 1 0
1  208 0 0 0.0349999999999999
0

0101000
+269 0 -269 1 *
Ed
 1e-07 1 1 0
1  209 0 0 0.0392068919706724
0

0101000
+274 0 -269 0 *
Wi

0101100
+273 0 -268 0 -267 0 +267 1 *
Fa
0  1e-07 104 0

0101000
+266 0 *
Ve
1e-07
6.966294 1.088886 1.4942
0 0

0101101
*
Ed
 1e-07 1 1 0
1  210 0 0 0.0349999999999999
0

0101000
+264 0 -264 1 *
Ed
 1e-07 1 1 0
1  211 0 0 0.039206891970673
0

0101000
+269 0 -264 0 *
Wi

0101100
+268 0 -263 0 -262 0 +262 1 *
Fa
0  1e-07 105 0

0101000
+261 0 *
Ve
1e-07
6.984776 1.123463 1.4942
0 0

0101101
*
Ed
 1e-07 1 1 0
1  212 0 0 0.0349999999999999
0

0101000
+259 0 -259 1 *
Ed
 1e-07 1 1 0
1  213 0 0 0.0392065460478221
0

0101000
+264 0 -259 0 *
Wi

0101100
+263 0 -258 0 -257 0 +257 1 *
Fa
0  1e-07 106 0

0101000
+256 0 *
Ve
1e-07
6.992826 1.15 1.4942
0 0

0101101
*
Ed
 1e-07 1 1 0
1  214 0 0 0.0349999999999999
0

0101000
+254 0 -254 1 *
Ed
 1e-07 1 1 0
1  215 0 0 0.0277311173413548
0

0101000
+259 0 -254 0 *
Wi

0101100
+258 0 -253 0 -252 0 +252 1 *
Fa
0  1e-07 107 0

0101000
+251 0 *
Ve
1e-07
7.5499 1.15 1.4942
0 0

0101101
*
Ed
 1e-07 1 1 0
1  216 0 0 0.0349999999999999
0

0101000
+249 0 -249 1 *
Ed
 1e-07 1 1 0
1  217 0 0 0.557074
0

0101000
+254 0 -249 0 *
Wi

0101100
+253 0 -248 0 -247 0 +247 1 *
Fa
0  1e-07 108 0

0101000
+246 0 *
Ve
1e-07
7.5499 1.1501 1.4942
0 0

0101101
*
Ed
 1e-07 1 1 0
1  218 0 0 0.0349999999999999
0

0101000
+244 0 -244 1 *
Ed
 1e-07 1 1 0
1  219 0 0 9.9999999999989e-05
0

0101000
+249 0 -244 0 *
Wi

0101100
+248 0 -243 0 -242 0 +242 1 *
Fa
0  1e-07 109 0

0101000
+241 0 *
Ve
1e-07
7.5501 1.1501 1.4942
0 0

0101101
*
Ed
 1e-07 1 1 0
1  220 0 0 0.0349999999999999
0

0101000
+239 0 -239 1 *
Ed
 1e-07 1 1 0
1  221 0 0 0.000199999999999534
0

0101000
+244 0 -239 0 *
Wi

0101100
+243 0 -238 0 -237 0 +237 1 *
Fa
0  1e-07 110 0

0101000
+236 0 *
Ve
1e-07
7.5501 1.15 1.4942
0 0

0101101
*
Ed
 1e-07 1 1 0
1  222 0 0 0.0349999999999999
0

0101000
+234 0 -234 1 *
Ed
 1e-07 1 1 0
1  223 0 0 9.9999999999989e-05
0

0101000
+239 0 -234 0 *
Wi

0101100
+238 0 -233 0 -232 0 +232 1 *
Fa
0  1e-07 111 0

0101000
+231 0 *
Ve
1e-07
7.711722 1.15 1.4942
0 0

0101101
*
Ed
 1e-07 1 1 0
1  224 0 0 0.0349999999999999
0

0101000
+229 0 -229 1 *
Ed
 1e-07 1 1 0
1  225 0 0 0.161622
0

0101000
+234 0 -229 0 *
Wi

0101100
+233 0 -228 0 -227 0 +227 1 *
Fa
0  1e-07 112 0

0101000
+226 0 *
Ve
1e-07
7.647352 1.113217 1.4942
0 0

0101101
*
Ed
 1e-07 1 1 0
1  226 0 0 0.0349999999999999
0

0101000
+224 0 -224 1 *
Ed
 1e-07 1 1 0
1  227 0 0 0.0741382896282348
0

0101000
+229 0 -224 0 *
Wi

0101100
+228 0 -223 0 -222 0 +222 1 *
Fa
0  1e-07 113 0

0101000
+221 0 *
Ve
1e-07
7.633336 1.12472 1.4942
0 0

0101101
*
Ed
 1e-07 1 1 0
1  228 0 0 0.0349999999999999
0

0101000
+219 0 -219 1 *
Ed
 1e-07 1 1 0
1  229 0 0 0.0181319404642745
0

0101000
+224 0 -219 0 *
Wi

0101100
+223 0 -218 0 -217 0 +217 1 *
Fa
0  1e-07 114 0

0101000
+216 0 *
Ve
1e-07
7.607403 1.138582 1.4942
0 0

0101101
*
Ed
 1e-07 1 1 0
1  230 0 0 0.0349999999999999
0

0101000
+214 0 -214 1 *
Ed
 1e-07 1 1 0
1  231 0 0 0.0294053657178416
0

0101000
+219 0 -214 0 *
Wi

0101100
+218 0 -213 0 -212 0 +212 1 *
Fa
0  1e-07 115 0

0101000
+211 0 *
Ve
1e-07
7.579264 1.147118 1.4942
0 0

0101101
*
Ed
 1e-07 1 1 0
1  232 0 0 0.0349999999999999
0

0101000
+209 0 -209 1 *
Ed
 1e-07 1 1 0
1  233 0 0 0.029405214112466
0

0101000
+214 0 -209 0 *
Wi

0101100
+213 0 -208 0 -207 0 +207 1 *
Fa
0  1e-07 116 0

0101000
+206 0 *
Ve
1e-07
7.5501 1.14999015172225 1.4942
0 0

0101101
*
Ed
 1e-07 1 1 0
1  234 0 0 0.0349999999999999
0

0101000
+204 0 -204 1 *
Ed
 1e-07 1 1 0
1  235 0 0 0.0293050874681458
0

0101000
+209 0 -204 0 *
Wi

0101100
+208 0 -203 0 -202 0 +202 1 *
Fa
0  1e-07 117 0

0101000
+201 0 *
Ve
1e-07
7.5501 1.1499 1.4942
0 0

0101101
*
Ed
 1e-07 1 1 0
1  236 0 0 0.0349999999999999
0

0101000
+199 0 -199 1 *
Ed
 1e-07 1 1 0
1  237 0 0 9.01517222526849e-05
0

0101000
+204 0 -199 0 *
Wi

0101100
+203 0 -198 0 -197 0 +197 1 *
Fa
0  1e-07 118 0

0101000
+196 0 *
Ve
1e-07
7.5499 1.1499 1.4942
0 0

0101101
*
Ed
 1e-07 1 1 0
1  238 0 0 0.0349999999999999
0

0101000
+194 0 -194 1 *
Ed
 1e-07 1 1 0
1  239 0 0 0.000199999999999534
0

0101000
+199 0 -194 0 *
Wi

0101100
+198 0 -193 0 -192 0 +192 1 *
Fa
0  1e-07 119 0

0101000
+191 0 *
Ve
1e-07
7.5499 1.14999015172225 1.4942
0 0

0101101
*
Ed
 1e-07 1 1 0
1  240 0 0 0.0349999999999999
0

0101000
+189 0 -189 1 *
Ed
 1e-07 1 1 0
1  241 0 0 9.01517222526849e-05
0

0101000
+194 0 -189 0 *
Wi

0101100
+193 0 -188 0 -187 0 +187 1 *
Fa
0  1e-07 120 0

0101000
+186 0 *
Ve
1e-07
7.520736 1.147118 1.4942
0 0

0101101
*
Ed
 1e-07 1 1 0
1  242 0 0 0.0349999999999999
0

0101000
+184 0 -184 1 *
Ed
 1e-07 1 1 0
1  243 0 0 0.0293050874681449
0

0101000
+189 0 -184 0 *
Wi

0101100
+188 0 -183 0 -182 0 +182 1 *
Fa
0  1e-07 121 0

0101000
+181 0 *
Ve
1e-07
7.492597 1.138582 1.4942
0 0

0101101
*
Ed
 1e-07 1 1 0
1  244 0 0 0.0349999999999999
0

0101000
+179 0 -179 1 *
Ed
 1e-07 1 1 0
1  245 0 0 0.0294052141124669
0

0101000
+184 0 -179 0 *
Wi

0101100
+183 0 -178 0 -177 0 +177 1 *
Fa
0  1e-07 122 0

0101000
+176 0 *
Ve
1e-07
7.466664 1.12472 1.4942
0 0

0101101
*
Ed
 1e-07 1 1 0
1  246 0 0 0.0349999999999999
0

0101000
+174 0 -174 1 *
Ed
 1e-07 1 1 0
1  247 0 0 0.0294053657178416
0

0101000
+179 0 -174 0 *
Wi

0101100
+178 0 -173 0 -172 0 +172 1 *
Fa
0  1e-07 123 0

0101000
+171 0 *
Ed
 1e-07 1 1 0
1  248 0 0 0.0294044999277322
0

0101000
+174 0 -786 0 *
Wi

0101100
+173 0 -785 0 -169 0 +169 1 *
Fa
0  1e-07 124 0

0101000
+168 0 *
Ve
1e-07
7.578701 0.930709 1.4942
0 0

0101101
*
Ed
 1e-07 1 1 0
1  249 0 0 0.0349999999999999
0

0101000
+166 0 -166 1 *
Ve
1e-07
7.591668 0.93764 1.4942
0 0

0101101
*
Ed
 1e-07 1 1 0
1  250 0 0 0.0349999999999999
0

0101000
+164 0 -164 1 *
Ed
 1e-07 1 1 0
1  251 0 0 0.0147031238177476
0

0101000
+166 0 -164 0 *
Wi

0101100
+165 0 -163 0 -162 0 +162 1 *
Fa
0  1e-07 125 0

0101000
+161 0 *
Ve
1e-07
7.603033 0.946967 1.4942
0 0

0101101
*
Ed
 1e-07 1 1 0
1  252 0 0 0.0349999999999999
0

0101000
+159 0 -159 1 *
Ed
 1e-07 1 1 0
1  253 0 0 0.0147022499638658
0

0101000
+164 0 -159 0 *
Wi

0101100
+163 0 -158 0 -157 0 +157 1 *
Fa
0  1e-07 126 0

0101000
+156 0 *
Ve
1e-07
7.61236 0.958332 1.4942
0 0

0101101
*
Ed
 1e-07 1 1 0
1  254 0 0 0.0349999999999999
0

0101000
+154 0 -154 1 *
Ed
 1e-07 1 1 0
1  255 0 0 0.014702249963866
0

0101000
+159 0 -154 0 *
Wi

0101100
+158 0 -153 0 -152 0 +152 1 *
Fa
0  1e-07 127 0

0101000
+151 0 *
Ve
1e-07
7.619291 0.971299 1.4942
0 0

0101101
*
Ed
 1e-07 1 1 0
1  256 0 0 0.0349999999999999
0

0101000
+149 0 -149 1 *
Ed
 1e-07 1 1 0
1  257 0 0 0.014703123817747
0

0101000
+154 0 -149 0 *
Wi

0101100
+153 0 -148 0 -147 0 +147 1 *
Fa
0  1e-07 128 0

0101000
+146 0 *
Ve
1e-07
7.623559 0.985368 1.4942
0 0

0101101
*
Ed
 1e-07 1 1 0
1  258 0 0 0.0349999999999999
0

0101000
+144 0 -144 1 *
Ed
 1e-07 1 1 0
1  259 0 0 0.0147021285873851
0

0101000
+149 0 -144 0 *
Wi

0101100
+148 0 -143 0 -142 0 +142 1 *
Fa
0  1e-07 129 0

0101000
+141 0 *
Ve
1e-07
7.625 1 1.4942
0 0

0101101
*
Ed
 1e-07 1 1 0
1  260 0 0 0.0349999999999999
0

0101000
+139 0 -139 1 *
Ed
 1e-07 1 1 0
1  261 0 0 0.014702785620419
0

0101000
+144 0 -139 0 *
Wi

0101100
+143 0 -138 0 -137 0 +137 1 *
Fa
0  1e-07 130 0

0101000
+136 0 *
Ve
1e-07
7.623559 1.014632 1.4942
0 0

0101101
*
Ed
 1e-07 1 1 0
1  262 0 0 0.0349999999999999
0

0101000
+134 0 -134 1 *
Ed
 1e-07 1 1 0
1  263 0 0 0.014702785620419
0

0101000
+139 0 -134 0 *
Wi

0101100
+138 0 -133 0 -132 0 +132 1 *
Fa
0  1e-07 131 0

0101000
+131 0 *
Ve
1e-07
7.619291 1.028701 1.4942
0 0

0101101
*
Ed
 1e-07 1 1 0
1  264 0 0 0.0349999999999999
0

0101000
+129 0 -129 1 *
Ed
 1e-07 1 1 0
1  265 0 0 0.0147021285873852
0

0101000
+134 0 -129 0 *
Wi

0101100
+133 0 -128 0 -127 0 +127 1 *
Fa
0  1e-07 132 0

0101000
+126 0 *
Ve
1e-07
7.61236 1.041668 1.4942
0 0

0101101
*
Ed
 1e-07 1 1 0
1  266 0 0 0.0349999999999999
0

0101000
+124 0 -124 1 *
Ed
 1e-07 1 1 0
1  267 0 0 0.0147031238177469
0

0101000
+129 0 -124 0 *
Wi

0101100
+128 0 -123 0 -122 0 +122 1 *
Fa
0  1e-07 133 0

0101000
+121 0 *
Ve
1e-07
7.603033 1.053033 1.4942
0 0

0101101
*
Ed
 1e-07 1 1 0
1  268 0 0 0.0349999999999999
0

0101000
+119 0 -119 1 *
Ed
 1e-07 1 1 0
1  269 0 0 0.014702249963866
0

0101000
+124 0 -119 0 *
Wi

0101100
+123 0 -118 0 -117 0 +117 1 *
Fa
0  1e-07 134 0

0101000
+116 0 *
Ve
1e-07
7.591668 1.06236 1.4942
0 0

0101101
*
Ed
 1e-07 1 1 0
1  270 0 0 0.0349999999999999
0

0101000
+114 0 -114 1 *
Ed
 1e-07 1 1 0
1  271 0 0 0.0147022499638657
0

0101000
+119 0 -114 0 *
Wi

0101100
+118 0 -113 0 -112 0 +112 1 *
Fa
0  1e-07 135 0

0101000
+111 0 *
Ve
1e-07
7.578701 1.069291 1.4942
0 0

0101101
*
Ed
 1e-07 1 1 0
1  272 0 0 0.0349999999999999
0

0101000
+109 0 -109 1 *
Ed
 1e-07 1 1 0
1  273 0 0 0.0147031238177476
0

0101000
+114 0 -109 0 *
Wi

0101100
+113 0 -108 0 -107 0 +107 1 *
Fa
0  1e-07 136 0

0101000
+106 0 *
Ve
1e-07
7.564632 1.073559 1.4942
0 0

0101101
*
Ed
 1e-07 1 1 0
1  274 0 0 0.0349999999999999
0

0101000
+104 0 -104 1 *
Ed
 1e-07 1 1 0
1  275 0 0 0.014702128587385
0

0101000
+109 0 -104 0 *
Wi

0101100
+108 0 -103 0 -102 0 +102 1 *
Fa
0  1e-07 137 0

0101000
+101 0 *
Ve
1e-07
7.55 1.075 1.4942
0 0

0101101
*
Ed
 1e-07 1 1 0
1  276 0 0 0.0349999999999999
0

0101000
+99 0 -99 1 *
Ed
 1e-07 1 1 0
1  277 0 0 0.0147027856204188
0

0101000
+104 0 -99 0 *
Wi

0101100
+103 0 -98 0 -97 0 +97 1 *
Fa
0  1e-07 138 0

0101000
+96 0 *
Ve
1e-07
7.535368 1.073559 1.4942
0 0

0101101
*
Ed
 1e-07 1 1 0
1  278 0 0 0.0349999999999999
0

0101000
+94 0 -94 1 *
Ed
 1e-07 1 1 0
1  279 0 0 0.0147027856204188
0

0101000
+99 0 -94 0 *
Wi

0101100
+98 0 -93 0 -92 0 +92 1 *
Fa
0  1e-07 139 0

0101000
+91 0 *
Ve
1e-07
7.521299 1.069291 1.4942
0 0

0101101
*
Ed
 1e-07 1 1 0
1  280 0 0 0.0349999999999999
0

0101000
+89 0 -89 1 *
Ed
 1e-07 1 1 0
1  281 0 0 0.014702128587385
0

0101000
+94 0 -89 0 *
Wi

0101100
+93 0 -88 0 -87 0 +87 1 *
Fa
0  1e-07 140 0

0101000
+86 0 *
Ve
1e-07
7.508332 1.06236 1.4942
0 0

0101101
*
Ed
 1e-07 1 1 0
1  282 0 0 0.0349999999999999
0

0101000
+84 0 -84 1 *
Ed
 1e-07 1 1 0
1  283 0 0 0.0147031238177468
0

0101000
+89 0 -84 0 *
Wi

0101100
+88 0 -83 0 -82 0 +82 1 *
Fa
0  1e-07 141 0

0101000
+81 0 *
Ve
1e-07
7.496967 1.053033 1.4942
0 0

0101101
*
Ed
 1e-07 1 1 0
1  284 0 0 0.0349999999999999
0

0101000
+79 0 -79 1 *
Ed
 1e-07 1 1 0
1  285 0 0 0.0147022499638664
0

0101000
+84 0 -79 0 *
Wi

0101100
+83 0 -78 0 -77 0 +77 1 *
Fa
0  1e-07 142 0

0101000
+76 0 *
Ve
1e-07
7.48764 1.041668 1.4942
0 0

0101101
*
Ed
 1e-07 1 1 0
1  286 0 0 0.0349999999999999
0

0101000
+74 0 -74 1 *
Ed
 1e-07 1 1 0
1  287 0 0 0.014702249963866
0

0101000
+79 0 -74 0 *
Wi

0101100
+78 0 -73 0 -72 0 +72 1 *
Fa
0  1e-07 143 0

0101000
+71 0 *
Ve
1e-07
7.480709 1.028701 1.4942
0 0

0101101
*
Ed
 1e-07 1 1 0
1  288 0 0 0.0349999999999999
0

0101000
+69 0 -69 1 *
Ed
 1e-07 1 1 0
1  289 0 0 0.0147031238177469
0

0101000
+74 0 -69 0 *
Wi

0101100
+73 0 -68 0 -67 0 +67 1 *
Fa
0  1e-07 144 0

0101000
+66 0 *
Ve
1e-07
7.476441 1.014632 1.4942
0 0

0101101
*
Ed
 1e-07 1 1 0
1  290 0 0 0.0349999999999999
0

0101000
+64 0 -64 1 *
Ed
 1e-07 1 1 0
1  291 0 0 0.0147021285873849
0

0101000
+69 0 -64 0 *
Wi

0101100
+68 0 -63 0 -62 0 +62 1 *
Fa
0  1e-07 145 0

0101000
+61 0 *
Ve
1e-07
7.475 1 1.4942
0 0

0101101
*
Ed
 1e-07 1 1 0
1  292 0 0 0.0349999999999999
0

0101000
+59 0 -59 1 *
Ed
 1e-07 1 1 0
1  293 0 0 0.0147027856204191
0

0101000
+64 0 -59 0 *
Wi

0101100
+63 0 -58 0 -57 0 +57 1 *
Fa
0  1e-07 146 0

0101000
+56 0 *
Ve
1e-07
7.476441 0.985368 1.4942
0 0

0101101
*
Ed
 1e-07 1 1 0
1  294 0 0 0.0349999999999999
0

0101000
+54 0 -54 1 *
Ed
 1e-07 1 1 0
1  295 0 0 0.0147027856204191
0

0101000
+59 0 -54 0 *
Wi

0101100
+58 0 -53 0 -52 0 +52 1 *
Fa
0  1e-07 147 0

0101000
+51 0 *
Ve
1e-07
7.480709 0.971299 1.4942
0 0

0101101
*
Ed
 1e-07 1 1 0
1  296 0 0 0.0349999999999999
0

0101000
+49 0 -49 1 *
Ed
 1e-07 1 1 0
1  297 0 0 0.0147021285873848
0

0101000
+54 0 -49 0 *
Wi

0101100
+53 0 -48 0 -47 0 +47 1 *
Fa
0  1e-07 148 0

0101000
+46 0 *
Ve
1e-07
7.48764 0.958332 1.4942
0 0

0101101
*
Ed
 1e-07 1 1 0
1  298 0 0 0.0349999999999999
0

0101000
+44 0 -44 1 *
Ed
 1e-07 1 1 0
1  299 0 0 0.014703123817747
0

0101000
+49 0 -44 0 *
Wi

0101100
+48 0 -43 0 -42 0 +42 1 *
Fa
0  1e-07 149 0

0101000
+41 0 *
Ve
1e-07
7.496967 0.946967 1.4942
0 0

0101101
*
Ed
 1e-07 1 1 0
1  300 0 0 0.0349999999999999
0

0101000
+39 0 -39 1 *
Ed
 1e-07 1 1 0
1  301 0 0 0.014702249963866
0

0101000
+44 0 -39 0 *
Wi

0101100
+43 0 -38 0 -37 0 +37 1 *
Fa
0  1e-07 150 0

0101000
+36 0 *
Ve
1e-07
7.508332 0.93764 1.4942
0 0

0101101
*
Ed
 1e-07 1 1 0
1  302 0 0 0.0349999999999999
0

0101000
+34 0 -34 1 *
Ed
 1e-07 1 1 0
1  303 0 0 0.0147022499638665
0

0101000
+39 0 -34 0 *
Wi

0101100
+38 0 -33 0 -32 0 +32 1 *
Fa
0  1e-07 151 0

0101000
+31 0 *
Ve
1e-07
7.521299 0.930709 1.4942
0 0

0101101
*
Ed
 1e-07 1 1 0
1  304 0 0 0.0349999999999999
0

0101000
+29 0 -29 1 *
Ed
 1e-07 1 1 0
1  305 0 0 0.0147031238177468
0

0101000
+34 0 -29 0 *
Wi

0101100
+33 0 -28 0 -27 0 +27 1 *
Fa
0  1e-07 152 0

0101000
+26 0 *
Ve
1e-07
7.535368 0.926441 1.4942
0 0

0101101
*
Ed
 1e-07 1 1 0
1  306 0 0 0.0349999999999999
0

0101000
+24 0 -24 1 *
Ed
 1e-07 1 1 0
1  307 0 0 0.014702128587385
0

0101000
+29 0 -24 0 *
Wi

0101100
+28 0 -23 0 -22 0 +22 1 *
Fa
0  1e-07 153 0

0101000
+21 0 *
Ve
1e-07
7.55 0.925 1.4942
0 0

0101101
*
Ed
 1e-07 1 1 0
1  308 0 0 0.0349999999999999
0

0101000
+19 0 -19 1 *
Ed
 1e-07 1 1 0
1  309 0 0 0.0147027856204188
0

0101000
+24 0 -19 0 *
Wi

0101100
+23 0 -18 0 -17 0 +17 1 *
Fa
0  1e-07 154 0

0101000
+16 0 *
Ve
1e-07
7.564632 0.926441 1.4942
0 0

0101101
*
Ed
 1e-07 1 1 0
1  310 0 0 0.0349999999999999
0

0101000
+14 0 -14 1 *
Ed
 1e-07 1 1 0
1  311 0 0 0.0147027856204188
0

0101000
+19 0 -14 0 *
Wi

0101100
+18 0 -13 0 -12 0 +12 1 *
Fa
0  1e-07 155 0

0101000
+11 0 *
Ed
 1e-07 1 1 0
1  312 0 0 0.014702128587385
0

0101000
+14 0 -166 0 *
Wi

0101100
+13 0 -165 0 -9 0 +9 1 *
Fa
0  1e-07 156 0

0101000
+8 0 *
Wi

0101100
+782 0 +777 0 +772 0 +767 0 +762 0 +757 0 +752 0 +747 0 +742 0 +737 0 
+732 0 +727 0 +722 0 +717 0 +712 0 +707 0 +702 0 +697 0 +692 0 +687 0 
+682 0 +677 0 +672 0 +667 0 +662 0 +657 0 +652 0 +647 0 +642 0 +637 0 
+632 0 +627 0 +622 0 +617 0 +612 0 +607 0 +602 0 +597 0 +592 0 +587 0 
+582 0 +577 0 +572 0 +567 0 +562 0 +557 0 +552 0 +547 0 +542 0 +537 0 
+532 0 +527 0 +522 0 +517 0 +512 0 +507 0 +502 0 +497 0 +492 0 +487 0 
+482 0 +477 0 +472 0 +467 0 +462 0 +457 0 +452 0 +447 0 +442 0 +437 0 
+432 0 +427 0 +422 0 +417 0 +412 0 +407 0 +402 0 +397 0 +392 0 +387 0 
+382 0 +377 0 +372 0 +367 0 +362 0 +357 0 +352 0 +347 0 +342 0 +337 0 
+332 0 +327 0 +322 0 +317 0 +312 0 +307 0 +302 0 +297 0 +292 0 +287 0 
+282 0 +277 0 +272 0 +267 0 +262 0 +257 0 +252 0 +247 0 +242 0 +237 0 
+232 0 +227 0 +222 0 +217 0 +212 0 +207 0 +202 0 +197 0 +192 0 +187 0 
+182 0 +177 0 +172 0 +169 0 *
Wi

0101100
+162 0 +157 0 +152 0 +147 0 +142 0 +137 0 +132 0 +127 0 +122 0 +117 0 
+112 0 +107 0 +102 0 +97 0 +92 0 +87 0 +82 0 +77 0 +72 0 +67 0 
+62 0 +57 0 +52 0 +47 0 +42 0 +37 0 +32 0 +27 0 +22 0 +17 0 
+12 0 +9 0 *
Fa
0  1e-07 157 0

0111000
+6 0 -5 0 *
Sh

0101100
+780 0 +775 0 +770 0 +765 0 +760 0 +755 0 +750 0 +745 0 +740 0 +735 0 
+730 0 +725 0 +720 0 +715 0 +710 0 +705 0 +700 0 +695 0 +690 0 +685 0 
+680 0 +675 0 +670 0 +665 0 +660 0 +655 0 +650 0 +645 0 +640 0 +635 0 
+630 0 +625 0 +620 0 +615 0 +610 0 +605 0 +600 0 +595 0 +590 0 +585 0 
+580 0 +575 0 +570 0 +565 0 +560 0 +555 0 +550 0 +545 0 +540 0 +535 0 
+530 0 +525 0 +520 0 +515 0 +510 0 +505 0 +500 0 +495 0 +490 0 +485 0 
+480 0 +475 0 +470 0 +465 0 +460 0 +455 0 +450 0 +445 0 +440 0 +435 0 
+430 0 +425 0 +420 0 +415 0 +410 0 +405 0 +400 0 +395 0 +390 0 +385 0 
+380 0 +375 0 +370 0 +365 0 +360 0 +355 0 +350 0 +345 0 +340 0 +335 0 
+330 0 +325 0 +320 0 +315 0 +310 0 +305 0 +300 0 +295 0 +290 0 +285 0 
+280 0 +275 0 +270 0 +265 0 +260 0 +255 0 +250 0 +245 0 +240 0 +235 0 
+230 0 +225 0 +220 0 +215 0 +210 0 +205 0 +200 0 +195 0 +190 0 +185 0 
+180 0 +175 0 +170 0 +167 0 -160 0 -155 0 -150 0 -145 0 -140 0 -135 0 
-130 0 -125 0 -120 0 -115 0 -110 0 -105 0 -100 0 -95 0 -90 0 -85 0 
-80 0 -75 0 -70 0 -65 0 -60 0 -55 0 -50 0 -45 0 -40 0 -35 0 
-30 0 -25 0 -20 0 -15 0 -10 0 -7 0 +4 0 -4 1 *
So

0100000
-3 0 *
Co

1100000
+2 0 *

+1 0 